<svg width="56" height="56" viewBox="0 0 56 56" fill="none" xmlns="http://www.w3.org/2000/svg">
<path d="M22.7852 27.5273L31.7891 18.543C31.9844 18.3477 32.2253 18.25 32.5117 18.25C32.7852 18.25 33.0195 18.3477 33.2148 18.543C33.4102 18.7383 33.5078 18.9792 33.5078 19.2656C33.5078 19.5391 33.4102 19.7734 33.2148 19.9688L24.9336 28.25L33.2148 36.5312C33.4102 36.7266 33.5078 36.9609 33.5078 37.2344C33.5078 37.5208 33.4102 37.7617 33.2148 37.957C33.0195 38.1523 32.7852 38.25 32.5117 38.25C32.2253 38.25 31.9844 38.1523 31.7891 37.957L22.7852 28.9727C22.5898 28.7773 22.4922 28.5365 22.4922 28.25C22.4922 27.9635 22.5898 27.7227 22.7852 27.5273Z" fill="#003072"/>
</svg>
