<svg width="150" height="150" viewBox="0 0 150 150" fill="none" xmlns="http://www.w3.org/2000/svg">
<circle cx="75" cy="75" r="74.5" fill="white" stroke="#CCCCCC"/>
<g clip-path="url(#clip0)">
<path d="M36.4398 65.34L43.1498 59.15C46.8288 55.7623 51.6693 53.9185 56.6698 54L68.8398 54.21C76.3593 54.3431 83.7077 56.4762 90.1298 60.39L104.51 69.16L110.46 69.53C113.275 69.7048 115.967 70.7448 118.169 72.5079C120.371 74.271 121.974 76.6711 122.76 79.38L124.88 86.65C125.012 87.1123 125.035 87.5991 124.946 88.0717C124.857 88.5442 124.659 88.9895 124.367 89.3721C124.076 89.7547 123.7 90.064 123.268 90.2754C122.836 90.4869 122.361 90.5946 121.88 90.59L24.9998 88.91L25.1798 78.59C25.2333 75.4196 26.3849 72.3659 28.4383 69.9497C30.4916 67.5335 33.3195 65.9043 36.4398 65.34Z" fill="#249ED9"/>
<path d="M43.1498 59.15C46.8288 55.7623 51.6693 53.9185 56.6698 54L68.8398 54.21C76.3593 54.3431 83.7077 56.4762 90.1298 60.39L104.51 69.16L36.4398 65.34L43.1498 59.15Z" fill="#99EEFF"/>
<path d="M62.9097 73.4201L68.8497 73.5201C69.2687 73.528 69.6738 73.3692 69.9757 73.0785C70.2776 72.7878 70.4517 72.3891 70.4597 71.97C70.4676 71.551 70.3088 71.146 70.0181 70.844C69.7274 70.5421 69.3287 70.368 68.9097 70.3601L62.9697 70.2601C62.5506 70.2521 62.1456 70.4109 61.8437 70.7016C61.5417 70.9923 61.3676 71.391 61.3597 71.8101C61.3517 72.2291 61.5106 72.6341 61.8012 72.9361C62.0919 73.238 62.4906 73.4121 62.9097 73.4201Z" fill="#464655"/>
<path d="M106.24 96.67C101.335 96.67 97.3596 92.6943 97.3596 87.79C97.3596 82.8857 101.335 78.91 106.24 78.91C111.144 78.91 115.12 82.8857 115.12 87.79C115.12 92.6943 111.144 96.67 106.24 96.67Z" fill="#464655"/>
<path opacity="0.1" d="M112 87.8901C112.044 85.7978 111.347 83.7573 110.031 82.1301C108.715 80.5029 106.865 79.3941 104.81 79.0001C105.335 78.9097 105.867 78.8695 106.4 78.8801C108.755 78.9212 110.997 79.8962 112.633 81.5906C114.27 83.285 115.166 85.5599 115.125 87.9151C115.084 90.2702 114.109 92.5125 112.414 94.1488C110.72 95.785 108.445 96.6812 106.09 96.6401C105.559 96.6296 105.03 96.5727 104.51 96.4701C106.567 96.1465 108.444 95.1097 109.814 93.541C111.183 91.9723 111.957 89.9719 112 87.8901Z" fill="black"/>
<path d="M38.6796 95.5C33.7753 95.5 29.7996 91.5243 29.7996 86.62C29.7996 81.7157 33.7753 77.74 38.6796 77.74C43.5839 77.74 47.5596 81.7157 47.5596 86.62C47.5596 91.5243 43.5839 95.5 38.6796 95.5Z" fill="#464655"/>
<path opacity="0.1" d="M44.3996 86.7201C44.4347 84.6395 43.7381 82.6127 42.4313 80.9934C41.1245 79.3741 39.2906 78.2651 37.2496 77.8601C37.7745 77.7697 38.3069 77.7295 38.8396 77.7401C41.1947 77.7812 43.437 78.7562 45.0733 80.4505C46.7095 82.1449 47.6057 84.4199 47.5646 86.7751C47.5235 89.1302 46.5485 91.3725 44.8541 93.0088C43.1597 94.645 40.8847 95.5412 38.5296 95.5001C37.9989 95.4896 37.4703 95.4327 36.9496 95.3301C39.0042 94.9971 40.8764 93.9522 42.2383 92.3782C43.6003 90.8041 44.3654 88.8012 44.3996 86.7201Z" fill="black"/>
<path d="M106.24 91.28C104.313 91.28 102.75 89.7175 102.75 87.7901C102.75 85.8626 104.313 84.3 106.24 84.3C108.167 84.3 109.73 85.8626 109.73 87.7901C109.73 89.7175 108.167 91.28 106.24 91.28Z" fill="#AAB1C6"/>
<path d="M38.6799 90.11C36.7524 90.11 35.1899 88.5475 35.1899 86.62C35.1899 84.6925 36.7524 83.13 38.6799 83.13C40.6074 83.13 42.1699 84.6925 42.1699 86.62C42.1699 88.5475 40.6074 90.11 38.6799 90.11Z" fill="#AAB1C6"/>
<path d="M32.4096 66.74C32.7317 67.5507 32.8882 68.4178 32.8696 69.29V71.1C32.8553 71.9584 32.6718 72.8056 32.3298 73.593C31.9877 74.3805 31.4936 75.0927 30.876 75.689C30.2583 76.2854 29.5291 76.754 28.7301 77.0682C27.9311 77.3824 27.078 77.5359 26.2196 77.52C25.8842 77.5215 25.5494 77.4914 25.2196 77.43C25.4463 75.1942 26.221 73.0489 27.4752 71.1841C28.7294 69.3194 30.4243 67.7929 32.4096 66.74Z" fill="#FF9140"/>
<path d="M122.76 79.38L123 80.12C122.459 80.2462 121.905 80.3066 121.35 80.3C119.617 80.2685 117.968 79.5504 116.764 78.3035C115.56 77.0566 114.901 75.3829 114.93 73.65V71.83C114.938 71.4303 114.981 71.032 115.06 70.64C116.909 71.438 118.559 72.6356 119.89 74.1467C121.221 75.6579 122.201 77.4451 122.76 79.38Z" fill="#FFB64D"/>
<path opacity="0.1" d="M118.48 90.21L116.07 81.94C114.24 75.63 92.2898 68.48 92.2898 68.48L78.9998 60.36C73.9536 57.2828 68.3842 55.1608 62.5698 54.1L68.8398 54.21C76.3593 54.343 83.7077 56.4761 90.1298 60.39L104.51 69.16L110.46 69.53C113.275 69.7047 115.967 70.7447 118.169 72.5078C120.371 74.2709 121.974 76.671 122.76 79.38L124.88 86.65C125.012 87.1123 125.035 87.5991 124.946 88.0716C124.857 88.5442 124.659 88.9895 124.367 89.372C124.076 89.7546 123.7 90.0639 123.268 90.2754C122.836 90.4868 122.361 90.5945 121.88 90.59L118.56 90.53C118.53 90.42 118.51 90.32 118.48 90.21Z" fill="black"/>
</g>
<defs>
<clipPath id="clip0">
<rect width="100.04" height="42.67" transform="matrix(-1 0 0 1 125 54)" fill="white"/>
</clipPath>
</defs>
</svg>
