<svg width="16" height="15" viewBox="0 0 16 15" fill="none" xmlns="http://www.w3.org/2000/svg">
<g clip-path="url(#clip0)">
<path d="M7.55593 15.0451C3.39503 15.0451 0.0102539 11.6598 0.0102539 7.49929C0.0102539 3.33839 3.39503 -0.0463867 7.55593 -0.0463867C11.7165 -0.0463867 15.1018 3.33839 15.1018 7.49929C15.1016 11.6598 11.7165 15.0451 7.55593 15.0451ZM7.55593 0.585804C3.74391 0.585804 0.642445 3.68726 0.642445 7.49929C0.642445 11.3111 3.74391 14.4128 7.55593 14.4128C11.3678 14.4128 14.4694 11.3111 14.4694 7.49929C14.4694 3.68726 11.3676 0.585804 7.55593 0.585804Z" fill="#003072"/>
<path d="M7.27865 10.7958V9.9846C6.81314 9.97668 6.33921 9.83225 6.05859 9.63152L6.2509 9.09354C6.53202 9.28635 6.94966 9.43871 7.39107 9.43871C7.96983 9.43871 8.35494 9.10938 8.35494 8.6518C8.35494 8.21005 8.04196 7.93719 7.44753 7.69635C6.62859 7.37477 6.12281 6.99758 6.12281 6.29899C6.12281 5.63258 6.5959 5.12646 7.32702 5.00612V4.20337H7.83314V4.98202C8.31466 4.9982 8.64382 5.12646 8.8764 5.26314L8.67584 5.7932C8.5073 5.6968 8.17848 5.51208 7.66427 5.51208C7.04607 5.51208 6.81331 5.88135 6.81331 6.21084C6.81331 6.62022 7.10977 6.82921 7.80921 7.12584C8.63573 7.46326 9.05303 7.87298 9.05303 8.58758C9.05303 9.22989 8.61179 9.82399 7.7846 9.96067V10.7958H7.27865Z" fill="#003072"/>
</g>
<defs>
<clipPath id="clip0">
<rect width="15.1685" height="15" fill="white"/>
</clipPath>
</defs>
</svg>
