<svg width="150" height="150" viewBox="0 0 150 150" fill="none" xmlns="http://www.w3.org/2000/svg">
<circle cx="75" cy="75" r="74.5" fill="white" stroke="#CCCCCC"/>
<g clip-path="url(#clip0)">
<path d="M63.533 66.0324L68.8919 68.8078C71.5883 70.2067 69.2755 72.8354 68.8919 73.3205L68.3617 73.0498L69.2868 71.2559L68.8693 71.0416L67.9442 72.8241L67.5155 72.6098L68.4406 70.8272L68.0119 70.6016L67.1432 72.418L66.7258 72.2036L67.6509 70.4211L67.2222 70.1954L66.2971 71.978L65.8683 71.7636L66.7935 69.9811L66.376 69.7555L65.4509 71.538L65.0222 71.3236L65.9473 69.5411L65.5299 69.3155L64.5935 71.098L64.1761 70.8836L65.1012 69.1011L64.6725 68.8755L63.7586 70.658L63.3412 70.4436L64.2325 68.7175L63.8038 68.4919L62.8786 70.2744L62.4499 70.0601L63.375 68.2775L62.9576 68.0519L62.0325 69.8344L61.6038 69.6201L62.5289 67.8375L62.1002 67.6119L61.1751 69.3944L60.7576 69.1801L61.6828 67.3975L61.254 67.1719L60.3741 68.898L59.8438 68.6273C60.0243 68.0293 60.8817 64.656 63.533 66.0324Z" fill="#26C4C4"/>
<path d="M82.3174 64.5432C88.0937 65.773 79.5533 87.0055 71.1144 87.4455C62.3935 87.9081 53.7403 76.8292 53.7403 76.8292L54.248 75.5995C54.248 75.5995 65.2027 82.0866 70.336 81.8722C75.898 81.6579 79.0118 63.8325 82.3174 64.5432Z" fill="#E5BFB5"/>
<path d="M79.8576 66.8786L84.2012 68.5258C84.1296 69.5855 83.9558 70.6358 83.6822 71.6621L78.5264 69.6878C78.9776 68.6386 79.4176 67.6796 79.8576 66.8786Z" fill="#208E9D"/>
<path d="M75.0404 77.2354L79.8916 80.2702C79.2569 81.2882 78.5677 82.2712 77.827 83.2148L73.4496 79.8302C74.0447 79.0067 74.5765 78.1393 75.0404 77.2354Z" fill="#208E9D"/>
<path d="M69.7495 81.8722L68.9711 87.344C67.9113 87.1772 66.8741 86.8896 65.8798 86.4865L66.6357 81.2856C67.6485 81.5967 68.6929 81.7934 69.7495 81.8722Z" fill="#208E9D"/>
<path d="M81.4825 49.0983C81.4825 49.0983 79.1245 43.0625 80.3543 40.7948C83.7953 34.5447 98.9243 34.6575 97.1079 39.6666C101.846 38.0533 102.467 54.8634 91.6249 56.5895C81.4035 58.4059 81.4825 49.0983 81.4825 49.0983Z" fill="#B74918"/>
<path d="M100.12 42.3856C99.8609 45.9845 95.2579 46.5373 93.543 44.924C91.8282 43.3107 88.8949 42.4984 86.5257 41.9117C84.1565 41.3251 84.0662 39.9713 84.0662 39.9713C83.6288 40.6696 83.0267 41.2498 82.3126 41.6609C81.5985 42.072 80.7944 42.3015 79.9709 42.3292C80.0783 44.6516 80.5741 46.9397 81.4375 49.0983C81.4375 49.0983 82.1709 57.8869 91.5913 56.6121C99.184 55.3711 101.181 47.2819 100.12 42.3856Z" fill="#AA4017"/>
<path d="M78.7071 95.7264C76.7102 98.4567 64.7176 86.5655 59.2459 91.2814C54.7331 95.1623 70.1329 109.84 87.6086 110.235C108.706 110.731 118.318 95.9634 115.024 91.2814C111.729 86.5994 102.986 97.2044 100.842 95.7039C98.3151 94.508 84.506 95.0382 78.7071 95.7264Z" fill="#208E9D"/>
<path d="M86.3222 109.22C88.3529 109.648 93.7682 109.332 94.1518 109.49C95.0092 109.84 94.4226 111.476 92.6626 111.927C91.478 112.232 89.5713 112.074 86.5365 110.619L86.3222 109.22Z" fill="#EDCCC1"/>
<path d="M59.2459 91.2814C64.7853 86.9153 72.9421 100.995 87.9922 108.96C87.9419 109.438 87.7478 109.889 87.4355 110.253C87.1233 110.618 86.7075 110.879 86.2435 111.002C86.2435 111.002 72.7842 107.618 65.5863 102.36C59.652 98.0505 56.9895 93.0978 59.2459 91.2814Z" fill="#3AAAB9"/>
<path d="M82.4077 108.746C80.3657 109.163 74.9504 108.746 74.5104 108.938C73.6529 109.276 74.217 110.912 75.9657 111.386C77.1503 111.702 79.0683 111.566 82.1144 110.145L82.4077 108.746Z" fill="#EDCCC1"/>
<path d="M86.266 111.025C86.73 110.902 87.1457 110.64 87.458 110.276C87.7703 109.911 87.9644 109.46 88.0146 108.983C86.5781 108.231 85.2017 107.418 83.8855 106.546C81.6941 107.513 79.3309 108.031 76.9358 108.069C79.9936 109.212 83.1077 110.199 86.266 111.025Z" fill="#2B9BAA"/>
<path d="M80.9296 108.689C80.9953 109.07 81.1421 109.433 81.3601 109.752C81.5781 110.071 81.8622 110.34 82.1932 110.54C82.1932 110.54 93.6894 109.411 103.347 104.775C111.763 100.736 116.524 93.5377 115.024 91.2813C112.88 88.0773 109.292 91.0896 99.2288 98.0505C94.6258 101.255 80.9296 108.689 80.9296 108.689Z" fill="#3AAAB9"/>
<path d="M103.347 104.007C94.7499 108.125 83.7951 109.648 81.4823 109.897C81.6876 110.143 81.9269 110.36 82.1931 110.54C82.1931 110.54 93.6894 109.411 103.347 104.775C111.052 101.074 115.655 94.7562 115.249 91.9808C114.866 95.027 110.398 100.611 103.347 104.007Z" fill="#2B9BAA"/>
<path d="M78.1657 96.0761C81.4619 98.2304 85.343 99.314 89.2784 99.1787C93.7653 98.9941 98.1532 97.8027 102.117 95.6926C101.916 95.7955 101.694 95.8492 101.468 95.8492C101.243 95.8492 101.021 95.7955 100.82 95.6926C98.2926 94.4741 84.4836 95.0044 78.6847 95.6926C78.5626 95.8779 78.3787 96.0138 78.1657 96.0761Z" fill="#1D8191"/>
<path d="M83.8179 82.8425C83.8179 87.5358 82.2836 91.0106 78.7072 95.7264C85.7358 98.1182 93.1367 97.9039 100.842 95.7264C98.5859 88.2014 93.4865 83.4969 93.4865 82.5943C93.4865 81.6918 96.7695 78.2959 98.5521 73.1514C100.335 68.0068 99.5787 65.1863 99.5787 65.1863C92.9788 62.2305 89.1091 61.5423 81.5954 64.6222L81.3133 69.135C81.3133 69.135 79.2713 72.7226 79.5533 74.3585C79.8354 75.9944 83.8179 80.3379 83.8179 82.8425Z" fill="#F7EEE2"/>
<path d="M81.9111 64.4981C82.2496 65.3217 84.3706 67.014 89.5264 67.1719C94.4228 67.3186 96.6453 66.3145 98.834 64.9156C92.7869 62.2417 88.9172 61.7002 81.9111 64.4981Z" fill="#3AAAB9"/>
<path d="M82.4639 64.2951C88.6915 61.6889 92.6176 62.2756 98.0894 64.5545C95.2099 66.2049 91.8718 66.8741 88.5787 66.4612C84.6188 66.0325 83.0731 65.0058 82.4639 64.2951Z" fill="#E08344"/>
<path d="M94.2197 52.2686C94.2197 52.2686 92.4259 59.0377 93.9602 63.6633L89.2218 64.4869H86.2885C87.0206 62.1341 87.3337 59.6711 87.2137 57.21C86.9993 54.3557 94.2197 52.2686 94.2197 52.2686Z" fill="#E08344"/>
<path d="M78.7072 95.7264C85.7358 98.1182 93.1367 97.9039 100.842 95.7264C98.5859 88.2014 93.4865 83.4969 93.4865 82.5943C93.4865 81.6918 96.2393 78.8713 98.0782 74.3585C93.9172 75.9767 89.4371 76.6063 84.9912 76.1975C80.1513 75.6221 79.5533 74.3585 79.5533 74.3585C79.779 75.9606 83.863 80.3831 83.863 82.8876C83.8179 87.5358 82.2836 91.0106 78.7072 95.7264Z" fill="#F4D7D0"/>
<path d="M98.0894 64.5546C96.5879 65.4317 94.9344 66.0173 93.2156 66.2807C90.7501 65.2538 88.5873 63.6152 86.9316 61.5197C87.1674 60.1037 87.2469 58.666 87.1685 57.2326C87.1516 56.8859 87.2337 56.5415 87.4054 56.2398L90.3387 53.8142C91.5866 53.1908 92.8849 52.6738 94.2197 52.2686C94.2197 52.2686 92.5725 58.4849 93.8022 63.1105C95.2676 63.4763 96.7013 63.9592 98.0894 64.5546Z" fill="#D1652F"/>
<path d="M69.6026 66.935C68.2487 66.5176 66.6693 65.7391 66.218 66.1678C65.3493 67.0817 66.6129 68.7739 67.6057 69.056C68.4375 69.1241 69.2722 68.9642 70.02 68.5934C70.02 68.5934 70.9564 67.3637 69.6026 66.935Z" fill="#FFB476"/>
<path d="M63.1381 66.2355C63.0592 66.0437 64.4017 65.4909 64.7289 65.4796C65.6321 65.5187 66.5166 65.7494 67.3237 66.1565L66.1166 66.6981C65.6733 66.4563 65.2176 66.2378 64.7515 66.0437C64.5597 66.0211 63.7586 66.6191 63.1381 66.2355Z" fill="#FFB476"/>
<path d="M63.2509 69.0222C63.0139 68.8304 64.018 67.894 64.3001 67.7473C65.0411 67.2352 65.8499 66.8289 66.7031 66.5402L66.2067 67.736C66.2067 67.736 64.7626 68.1873 64.5934 68.2889C64.4242 68.3904 63.7585 69.0899 63.2509 69.0222Z" fill="#FFB476"/>
<path d="M64.0066 69.7329C63.781 69.5524 64.7399 68.6724 65.0107 68.5145C65.7063 68.0346 66.4659 67.6549 67.2671 67.3863L66.7932 68.5145C66.7932 68.5145 65.4056 68.9432 65.2476 69.0447C65.0897 69.1463 64.4805 69.8457 64.0066 69.7329Z" fill="#FFB476"/>
<path d="M65.3832 70.0037C65.1915 69.8458 66.0038 69.1012 66.2407 68.9658C66.8391 68.5507 67.4922 68.2204 68.1812 67.9843L67.7863 68.9545C67.7863 68.9545 66.6581 69.3268 66.4776 69.4058C66.2971 69.4847 65.7894 70.0601 65.3832 70.0037Z" fill="#FFB476"/>
<path d="M84.6977 59.3761C84.0321 59.2182 83.1521 57.8418 82.5654 57.1198C81.3131 55.5741 80.2075 53.7352 81.5388 50.2152C81.5388 50.2152 79.8691 40.4902 87.6649 40.6256C95.4606 40.761 95.7878 48.5229 93.3961 54.0736C92.6834 55.7566 91.4607 57.1735 89.9002 58.1248C88.3397 59.076 86.5201 59.5137 84.6977 59.3761Z" fill="#FFB476"/>
<path d="M89.6167 40.8625C94.9079 42.4758 93.6895 59.0376 84.6188 59.3423H84.6978C86.5189 59.4807 88.3376 59.0447 89.8979 58.0955C91.4583 57.1464 92.6817 55.7319 93.3962 54.051C95.5736 49.0532 95.4833 42.1825 89.6167 40.8625Z" fill="#ED9558"/>
<path d="M87.9582 50.5649C87.9582 50.5649 88.0597 51.3998 89.594 51.3434C90.914 51.3434 91.354 50.5875 90.9592 50.689C89.9573 50.7068 88.9552 50.6654 87.9582 50.5649Z" fill="#6D3A31"/>
<path d="M87.8227 50.1024L91.0493 49.8767L91.7939 49.8203C91.2863 48.8501 88.116 48.1845 87.8227 50.1024Z" fill="#6D3A31"/>
<path d="M87.9697 50.1249C88.0599 49.6511 88.3645 49.0983 89.5266 49.1885C91.1624 49.3126 91.3091 50.3167 91.0045 50.7567C90.463 51.5239 87.665 51.6029 87.9697 50.1249Z" fill="#F7EEE2"/>
<path d="M90.0229 50.2265C90.0222 50.4533 89.9531 50.6746 89.8247 50.8616C89.6963 51.0486 89.5145 51.1925 89.303 51.2746C89.0916 51.3567 88.8603 51.3731 88.6393 51.3218C88.4184 51.2704 88.2181 51.1536 88.0645 50.9867C87.9109 50.8198 87.8112 50.6104 87.7784 50.386C87.7456 50.1615 87.7812 49.9324 87.8806 49.7285C87.98 49.5246 88.1386 49.3554 88.3356 49.243C88.5326 49.1306 88.7589 49.0801 88.985 49.0983C89.2683 49.121 89.5326 49.2498 89.725 49.459C89.9175 49.6682 90.0239 49.9423 90.0229 50.2265Z" fill="#6D3A31"/>
<path d="M84.5059 50.2378C84.5059 50.2378 84.5059 51.1065 82.9715 50.8357C82.0577 50.6665 81.8433 49.9445 82.1818 50.0799C82.9511 50.1938 83.7282 50.2466 84.5059 50.2378Z" fill="#6D3A31"/>
<path d="M84.5737 49.7639L82.0353 49.2337L81.4825 49.0983C82.0804 48.1957 84.4383 47.9137 84.5737 49.7639Z" fill="#6D3A31"/>
<path d="M84.5515 49.7978C84.4838 49.3127 84.134 48.7599 82.972 48.6696C82.7973 48.6499 82.6206 48.6781 82.4607 48.751C82.3007 48.824 82.1637 48.939 82.064 49.0838C81.9644 49.2286 81.906 49.3978 81.895 49.5732C81.884 49.7486 81.9209 49.9238 82.0017 50.0799C82.4305 51.0501 84.732 51.2193 84.5515 49.7978Z" fill="#F7EEE2"/>
<path d="M81.8095 49.5947C81.8084 49.8771 81.9132 50.1497 82.1033 50.3586C82.2934 50.5675 82.5549 50.6975 82.8362 50.7229C83.0706 50.6644 83.2801 50.5322 83.4338 50.3458C83.5875 50.1594 83.6772 49.9285 83.6899 49.6872C83.7025 49.4459 83.6373 49.2069 83.504 49.0055C83.3706 48.804 83.1761 48.6507 82.949 48.568C82.6646 48.564 82.3893 48.6676 82.178 48.858C81.9667 49.0483 81.8351 49.3115 81.8095 49.5947Z" fill="#6D3A31"/>
<path d="M84.5851 47.1578C84.9778 47.6193 85.2626 48.1626 85.4188 48.7481C85.5749 49.3337 85.5984 49.9466 85.4876 50.5424C85.3721 51.0578 85.1159 51.5311 84.7474 51.9096C84.3789 52.288 83.9126 52.5568 83.4005 52.686C83.4005 52.686 83.6712 54.0511 84.8897 54.1639C86.1081 54.2767 84.0435 52.8326 84.0435 52.8326C84.0435 52.8326 85.7809 51.9526 86.063 50.5763C86.4579 48.7147 84.5851 47.1578 84.5851 47.1578Z" fill="#E08344"/>
<path d="M91.0383 41.7876C91.7292 42.1733 92.3066 42.7338 92.7125 43.413C93.1184 44.0922 93.3386 44.8662 93.3511 45.6573C93.5767 48.5793 92.6065 51.5014 93.2721 51.6931C93.6105 51.7834 94.4905 51.2193 94.4905 51.2193C94.4905 51.2193 98.1007 42.2502 92.6516 40.8287L91.0383 41.7876Z" fill="#B74918"/>
<path d="M88.1838 47.0112C88.1838 47.1917 88.8381 47.2142 90.113 47.5978C91.3878 47.9814 92.0986 48.4327 92.155 48.2634C92.2114 48.0942 91.6247 47.4399 90.2709 47.0112C88.9171 46.5824 88.274 46.6727 88.1838 47.0112Z" fill="#AA4017"/>
<path d="M81.1104 47.7332C81.1104 47.8573 81.7647 47.4737 82.656 47.2819C83.5473 47.0901 84.416 46.9322 84.4047 46.7855C84.3934 46.6389 84.1903 46.5148 83.7842 46.5035C81.3022 46.6953 81.0991 47.5527 81.1104 47.7332Z" fill="#AA4017"/>
<path d="M87.7892 55.5403C87.7892 55.5967 88.0036 55.5967 88.06 55.5403C88.089 55.53 88.1131 55.5093 88.1277 55.4822C88.1423 55.4551 88.1463 55.4235 88.139 55.3936C88.1339 55.3794 88.1261 55.3664 88.116 55.3553C88.1058 55.3442 88.0936 55.3352 88.0799 55.3289C88.0662 55.3226 88.0514 55.319 88.0364 55.3185C88.0214 55.318 88.0064 55.3206 87.9923 55.3259C87.9246 55.3711 87.7779 55.4726 87.7892 55.5403Z" fill="#93271C"/>
<path d="M83.0279 55.0664C83.0279 55.0664 82.8135 55.0664 82.7684 54.9875C82.7492 54.9634 82.7387 54.9336 82.7387 54.9028C82.7387 54.8721 82.7492 54.8422 82.7684 54.8182C82.7914 54.7968 82.8216 54.7849 82.853 54.7849C82.8844 54.7849 82.9147 54.7968 82.9376 54.8182C82.9376 54.8182 83.073 55.01 83.0279 55.0664Z" fill="#93271C"/>
<path d="M87.9355 55.4952L82.9377 54.9875C83.1428 55.4441 83.455 55.8445 83.8478 56.1548C84.2406 56.4651 84.7024 56.6762 85.194 56.77C85.7186 56.7846 86.2393 56.677 86.7151 56.4557C87.1908 56.2345 87.6087 55.9056 87.9355 55.4952Z" fill="#9A6335"/>
<path d="M87.9355 55.4952L82.9377 54.9875C83.1428 55.4441 83.455 55.8445 83.8478 56.1548C84.2406 56.4651 84.7024 56.6762 85.194 56.77C85.7186 56.7846 86.2393 56.677 86.7151 56.4557C87.1908 56.2345 87.6087 55.9056 87.9355 55.4952Z" fill="#93271C"/>
<path d="M87.5522 55.5967L83.4908 55.1793C83.68 55.5664 83.9647 55.899 84.318 56.1457C84.6713 56.3925 85.0816 56.5452 85.5102 56.5895C85.905 56.5984 86.2963 56.513 86.6514 56.3403C87.0066 56.1676 87.3154 55.9127 87.5522 55.5967Z" fill="#F7EEE2"/>
<path d="M87.5522 55.5967L83.4908 55.1793L83.6938 55.5064C84.2839 55.3688 84.8976 55.3688 85.4877 55.5064C86.1182 55.5552 86.7399 55.6841 87.3379 55.89L87.5522 55.5967Z" fill="#D5B698"/>
<path d="M83.3326 40.5128C83.3326 40.5128 83.5357 42.0697 85.8034 42.7692C91.0156 44.3712 92.6515 44.6307 93.8248 49.166C93.8248 49.166 95.1561 44.2697 92.4146 41.5507C90.8351 39.8923 87.71 38.482 83.3326 40.5128Z" fill="#B74918"/>
<path d="M95.7543 53.1259C95.727 53.4492 95.6048 53.7572 95.403 54.0112C95.2013 54.2653 94.9291 54.4542 94.6204 54.5541C94.3118 54.6541 93.9805 54.6606 93.6682 54.573C93.3558 54.4854 93.0763 54.3075 92.8646 54.0616C92.653 53.8157 92.5187 53.5129 92.4785 53.1909C92.4384 52.869 92.4942 52.5424 92.6389 52.2521C92.7837 51.9617 93.011 51.7206 93.2922 51.559C93.5735 51.3973 93.8962 51.3223 94.22 51.3434C94.438 51.3591 94.6507 51.4177 94.846 51.5159C95.0413 51.6141 95.2152 51.75 95.3578 51.9156C95.5004 52.0813 95.6088 52.2735 95.6768 52.4812C95.7449 52.6889 95.7712 52.908 95.7543 53.1259Z" fill="#ED9558"/>
<path d="M94.2198 51.9188C93.9921 51.9127 93.7679 51.9756 93.5767 52.0993C93.67 52.0829 93.7654 52.0829 93.8587 52.0993C94.1002 52.1195 94.3242 52.2336 94.4824 52.4172C94.6406 52.6007 94.7205 52.839 94.7049 53.0808C94.6847 53.3244 94.569 53.5501 94.383 53.7087C94.197 53.8672 93.9558 53.9457 93.7121 53.927C93.6387 53.9112 93.5669 53.8885 93.4977 53.8593C93.6506 53.9886 93.8398 54.0674 94.0393 54.0849C94.313 54.0876 94.5784 53.9907 94.786 53.8122C94.9935 53.6337 95.1291 53.3858 95.1674 53.1147C95.1879 52.8329 95.1019 52.5537 94.9264 52.3322C94.751 52.1108 94.4988 51.9633 94.2198 51.9188Z" fill="#E08344"/>
<path d="M93.5428 44.924C93.4187 44.8112 93.2946 44.7209 93.1705 44.6194C93.2637 44.9588 93.3241 45.3064 93.351 45.6573C93.5766 48.5793 92.6064 51.5013 93.272 51.6931C93.6105 51.7834 94.4905 51.2193 94.4905 51.2193C95.1471 49.4686 95.5277 47.6265 95.6187 45.7589C94.8521 45.7239 94.1201 45.4296 93.5428 44.924Z" fill="#AA4017"/>
<path d="M99.5787 65.1863C104.949 68.0744 92.3357 87.9645 86.9768 88.0547C80.4784 88.1675 71.8929 70.0037 69.1514 68.7062L69.7832 67.0252C72.3667 67.9052 85.8712 81.0374 86.8301 81.0035C88.7932 80.9245 96.3408 63.4489 99.5787 65.1863Z" fill="#FFB476"/>
<path d="M73.9123 69.9811C78.8538 74.1103 86.1645 81.0261 86.8639 81.0035C88.827 80.9246 95.8105 63.212 99.6125 65.2089C105.502 68.2663 92.3357 88.4045 86.9767 88.4947C82.1819 88.585 75.4918 79.4692 71.6108 73.8282L73.9123 69.9811Z" fill="#F7EEE2"/>
<path d="M86.9766 86.8702C91.196 86.7686 100.267 74.2683 100.989 67.4653C101.846 73.6365 91.5345 88.4158 86.9427 88.4948C82.1479 88.585 75.4577 79.4692 71.5768 73.8283L72.0957 72.9596C76.067 78.6231 82.3961 86.9491 86.9766 86.8702Z" fill="#E5BFB5"/>
<path d="M69.8171 111.589C69.6704 110.111 63.0479 109.806 63.0479 109.806L63.7587 107.854C64.7032 107.689 65.6561 107.576 66.613 107.516C69.118 106.632 71.8547 106.66 74.3411 107.595L72.615 107.764C72.615 107.764 77.2067 108.373 78.8765 110.72L77.1503 109.987C77.297 110.122 77.4324 110.257 77.5678 110.404C77.9572 110.755 78.2725 111.181 78.4953 111.655C78.7181 112.13 78.8439 112.644 78.8652 113.168L69.8171 111.589Z" fill="#FFC477"/>
<path d="M39.7168 42.442C42.3229 41.7086 46.2716 55.5064 46.0459 56.7926C45.8203 58.0787 39.2768 61.2263 38.2276 60.6622C37.1784 60.0981 35.3056 43.683 39.7168 42.442Z" fill="#F7A959"/>
<path d="M67.4814 97.5767C66.4999 70.5001 53.3791 67.3863 51.3596 51.3209L40.7433 56.849C42.3228 67.7248 38.2275 68.4581 38.0695 80.1913C38.0695 84.2076 46.9145 94.4516 46.9145 94.4516L53.3678 105.372L67.4814 97.5767Z" fill="#FFC477"/>
<path d="M52.3979 56.2397C56.042 68.0632 66.1054 73.1626 67.4028 95.8505C63.0706 101.266 54.9927 86.4978 54.9927 86.4978C55.7718 82.8826 56.064 79.1794 55.8615 75.4867C55.4891 66.6417 53.4133 64.3402 51.1907 56.9167L52.3979 56.2397Z" fill="#F7A959"/>
<path d="M40.8452 57.6049L49.7466 53.0131C49.3103 55.4594 48.3689 57.7878 46.9825 59.85C43.1241 65.8632 40.6759 66.4612 38.4534 74.9677C39.4462 68.097 41.8944 65.9535 40.8452 57.6049Z" fill="#ED9749"/>
<path d="M46.5985 62.6704C46.1811 62.4109 45.7073 58.4397 45.5719 54.3444L51.3482 51.3547C51.6504 53.7681 52.2569 56.1335 53.1533 58.3946C50.6939 60.5156 47.1514 63.0766 46.5985 62.6704Z" fill="#ED9749"/>
<path d="M47.3097 42.7692H39.717L34.8545 47.9363L35.0914 49.6511L32.0002 52.1557C32.0002 52.1557 32.2597 57.3905 32.9028 58.09C33.5458 58.7895 37.5283 59.41 38.5437 59.2182C39.5591 59.0264 45.0421 57.1762 51.6646 51.5126C51.6194 51.5126 48.5959 42.7692 47.3097 42.7692Z" fill="#FFC477"/>
<path d="M42.8083 42.7692C41.665 44.7165 40.7454 46.7866 40.0668 48.9404C42.028 51.2085 43.41 53.9184 44.0944 56.8377C46.7316 55.2731 49.2573 53.5278 51.6533 51.6142C51.6533 51.6142 48.9908 43.5363 47.3098 42.7692H42.8083Z" fill="#F7A959"/>
<path d="M40.9468 42.7692C39.5207 44.4585 38.2696 46.288 37.2125 48.2296L35.0915 49.6511C34.865 49.0775 34.7649 48.4618 34.7981 47.846C36.3445 46.0658 37.9866 44.371 39.7171 42.7692H40.9468Z" fill="#F7A959"/>
<path d="M33.8164 54.7393C34.7754 54.9311 36.9753 53.1937 37.0317 52.6183C37.0882 52.0429 32.2031 51.7045 32.1467 52.2798C32.0903 52.8552 32.8462 54.5475 33.8164 54.7393Z" fill="#42464B"/>
<path d="M42.3232 49.1322C42.3232 49.3352 42.3834 49.5337 42.4962 49.7026C42.609 49.8714 42.7693 50.003 42.9569 50.0807C43.1445 50.1584 43.351 50.1787 43.5501 50.1391C43.7493 50.0995 43.9322 50.0017 44.0758 49.8581C44.2193 49.7146 44.3171 49.5316 44.3567 49.3325C44.3964 49.1333 44.376 48.9269 44.2983 48.7393C44.2206 48.5517 44.089 48.3914 43.9202 48.2786C43.7514 48.1657 43.5529 48.1055 43.3498 48.1055C43.0775 48.1055 42.8164 48.2137 42.6239 48.4062C42.4313 48.5988 42.3232 48.8599 42.3232 49.1322Z" fill="#42464B"/>
<path d="M33.9292 55.9013C33.9543 55.9015 33.9786 55.8923 33.9973 55.8757C34.0161 55.859 34.028 55.836 34.0308 55.811V54.7957C34.0309 54.7828 34.0282 54.7701 34.023 54.7583C34.0178 54.7466 34.0101 54.7361 34.0005 54.7275C33.9909 54.719 33.9795 54.7126 33.9672 54.7088C33.9549 54.705 33.942 54.7038 33.9292 54.7054C33.9169 54.7035 33.9044 54.7045 33.8925 54.7084C33.8807 54.7122 33.8699 54.7188 33.8611 54.7276C33.8523 54.7364 33.8457 54.7472 33.8419 54.759C33.838 54.7708 33.837 54.7834 33.839 54.7957V55.811C33.839 55.835 33.8485 55.8579 33.8654 55.8749C33.8823 55.8918 33.9053 55.9013 33.9292 55.9013Z" fill="#42464B"/>
<path d="M37.6864 58.1577C38.2773 58.1548 38.8499 57.952 39.311 57.5823C39.3251 57.5633 39.3322 57.54 39.3309 57.5163C39.3297 57.4927 39.3202 57.4702 39.3041 57.4528C39.2881 57.4354 39.2664 57.4242 39.2429 57.421C39.2195 57.4179 39.1956 57.4231 39.1756 57.4357C38.7554 57.7793 38.2292 57.9667 37.6864 57.9659C36.939 57.9115 36.2157 57.6781 35.5776 57.2854C34.9394 56.8927 34.4051 56.3522 34.0198 55.7095C34.0043 55.7006 33.9868 55.6959 33.969 55.6959C33.9512 55.6959 33.9337 55.7006 33.9182 55.7095C33.9009 55.7144 33.8849 55.723 33.8713 55.7347C33.8577 55.7464 33.8467 55.7609 33.8392 55.7772C33.6926 56.2623 33.309 56.8264 32.9705 56.9054C32.9034 56.9133 32.8354 56.9028 32.7738 56.875C32.7121 56.8471 32.6593 56.8031 32.6208 56.7475C32.6022 56.7308 32.5781 56.7216 32.5531 56.7216C32.5281 56.7216 32.504 56.7308 32.4854 56.7475C32.4758 56.7559 32.4681 56.7663 32.4629 56.778C32.4576 56.7897 32.4549 56.8023 32.4549 56.8152C32.4549 56.828 32.4576 56.8406 32.4629 56.8523C32.4681 56.864 32.4758 56.8744 32.4854 56.8828C32.542 56.9716 32.6237 57.0416 32.7201 57.0838C32.8165 57.126 32.9234 57.1385 33.0269 57.1198C33.4331 57.0295 33.7941 56.4993 33.9746 56.0593C34.387 56.6741 34.9373 57.1841 35.5818 57.5484C36.2262 57.9127 36.9469 58.1214 37.6864 58.1577Z" fill="#42464B"/>
<path d="M35.317 49.5383C35.1732 49.3633 35.0936 49.1443 35.0914 48.9178C35.0865 48.6903 35.1582 48.4678 35.2949 48.286C35.4316 48.1041 35.6254 47.9735 35.8453 47.9149C36.0651 47.8564 36.2983 47.8734 36.5073 47.9632C36.7163 48.053 36.8892 48.2104 36.998 48.4101L35.317 49.5383Z" fill="#42464B"/>
<path d="M47.7721 42.2728C50.0285 41.6297 58.6253 51.0952 58.4222 52.4265C58.2192 53.7577 48.4152 61.1925 47.5352 60.6284C46.6552 60.0643 45.4706 42.9158 47.7721 42.2728Z" fill="#FFD086"/>
<path d="M66.0152 111.589C66.0152 111.589 77.2971 95.0495 70.7423 90.1531C62.5065 83.9707 54.7333 101.13 54.7333 101.13C54.7333 101.13 45.2001 87.1747 39.8525 90.1531C34.5049 93.1316 44.0155 111.589 44.0155 111.589H66.0152Z" fill="#FFC477"/>
<path d="M58.6818 111.589H44.0153C44.0153 111.589 32.7334 97.3284 37.5169 91.0895C39.6943 88.2352 43.5302 90.2772 43.5302 90.2772C42.4672 89.0049 41.5231 87.6379 40.7097 86.1932C42.1989 84.6701 42.9661 80.4733 46.4973 80.4733C51.9239 80.4733 58.0838 94.0116 66.534 87.8855L66.6807 88.8783C59.2459 89.3408 57.7115 106.196 58.6818 111.589Z" fill="#ED9749"/>
<path d="M50.8861 79.1533C50.8861 79.1533 51.0327 89.5552 44.5005 111.972H47.0164C47.0164 111.972 52.8153 102.766 55.6357 82.1317L50.8861 79.1533Z" fill="#FFC477"/>
<path d="M42.8984 78.262C42.8984 78.262 42.2328 87.2875 41.9395 111.972H39.4123C39.4123 111.972 37.2236 92.5562 38.0359 79.7964L42.8984 78.262Z" fill="#FFC477"/>
<path d="M47.0161 111.972H45.7074C51.055 102.857 54.9473 86.4527 54.9473 86.4527C54.9473 86.4527 52.4201 102.699 47.0161 111.972Z" fill="#F7A959"/>
<path d="M63.9502 111.589C63.9502 111.589 73.3593 96.4146 71.8475 91.2814C75.2321 97.2269 67.9214 108.351 65.6425 111.984L63.9502 111.589Z" fill="#F7A959"/>
<path d="M78.8311 113.168C78.7634 114.511 77.4321 115.718 73.4947 115.842L75.1532 114.973H75.0403C72.4428 115.781 69.725 116.132 67.0076 116.011L69.264 115.086H68.9481C65.4098 115.281 61.8612 115.023 58.3882 114.319L61.3779 114.093L60.8026 113.992C60.0354 113.845 59.2795 113.732 58.5462 113.642C56.9615 113.522 55.37 113.522 53.7852 113.642C51.7883 113.75 49.8035 114.022 47.8509 114.454L48.9791 113.597C47.5926 113.735 46.2193 113.984 44.8725 114.342C44.8725 114.342 47.3884 109.332 56.4478 109.637C62.8446 109.851 69.9071 112.503 69.8168 111.566L78.8311 113.168Z" fill="#FFC477"/>
<path d="M58.5011 113.597C56.9163 113.477 55.3248 113.477 53.7401 113.597C51.7431 113.705 49.7584 113.977 47.8058 114.409L48.934 113.552C47.6064 113.69 46.2905 113.923 44.9966 114.251C46.811 113.418 48.6996 112.757 50.6376 112.277C54.4847 111.329 59.1103 112.886 59.1103 112.886L58.219 112.164C60.5568 112.861 62.9389 113.4 65.3492 113.777C68.3077 114.317 71.3359 114.355 74.307 113.89L73.8106 114.5C73.8106 114.5 76.6536 114.5 77.7029 113.439C78.7521 112.379 77.1162 110.054 77.1162 110.054C77.1162 110.054 77.3983 110.325 77.5336 110.472C77.923 110.823 78.2384 111.248 78.4612 111.723C78.684 112.198 78.8097 112.712 78.8311 113.236C78.7634 114.578 77.4321 115.786 73.4947 115.91L75.1532 114.973H75.0403C72.4428 115.781 69.725 116.132 67.0076 116.011L69.264 115.086H68.9481C65.4098 115.281 61.8612 115.023 58.3882 114.319L61.3779 114.093L60.8026 113.992C59.9903 113.845 59.2457 113.687 58.5011 113.597Z" fill="#F7A959"/>
<path d="M41.9395 111.972H40.8113C40.7762 102.277 41.3981 92.5896 42.6729 82.9779C42.6729 82.9779 42.12 96.0988 41.9395 111.972Z" fill="#F7A959"/>
<path d="M59.6634 70.0601C59.6634 70.0601 62.2808 74.1216 63.3413 74.5165C63.3413 74.5165 63.1721 74.7872 62.3372 74.5165C62.8504 75.6261 63.6832 76.5571 64.729 77.1903C64.4199 77.3328 64.0759 77.3821 63.7393 77.332C63.4026 77.2819 63.0878 77.1346 62.8336 76.9082C61.649 76.0959 59.6634 70.0601 59.6634 70.0601Z" fill="#F7A959"/>
<path d="M73.5624 76.6149C72.8516 75.6446 72.1973 74.6969 71.6106 73.8282L73.867 70.015C74.6229 70.6467 75.4352 71.3462 76.2588 72.0683L73.5624 76.6149Z" fill="#3AAAB9"/>
<path d="M74.0928 75.6898L73.5625 76.5811C73.5625 76.5811 71.6559 73.9072 71.6559 73.7944L72.1748 72.9257C72.7841 73.7944 73.3933 74.7308 74.0928 75.6898Z" fill="#208E9D"/>
<path d="M96.0023 54.4121C96.0023 54.4121 102.681 58.2818 100.989 62.4335C99.2967 66.5853 91.4783 67.7022 90.745 69.5637C90.0116 71.4252 92.5952 71.5719 92.5952 71.5719C87.9922 72.8355 85.6117 69.6427 87.3265 66.9689C88.6691 64.8592 92.1552 63.4715 93.7798 60.2787C94.3718 58.7965 94.5284 57.1761 94.2311 55.608L96.0023 54.4121Z" fill="#AA4017"/>
<path d="M96.0589 54.5249C97.5162 54.9709 98.7958 55.8651 99.7154 57.0805C100.635 58.2959 101.148 59.7703 101.181 61.2941C101.181 61.2941 102.117 56.6459 96.2281 54.2429L96.0589 54.5249Z" fill="#AA4017"/>
<path d="M93.4075 60.9894C91.1512 64.2725 85.8374 65.1637 86.9768 68.8868C86.6565 68.5718 86.4651 68.1487 86.44 67.7001C86.415 67.2516 86.5581 66.8098 86.8415 66.4611C88.1276 64.295 92.1327 62.8735 93.7686 60.2448L93.4075 60.9894Z" fill="#AA4017"/>
<path d="M93.6444 47.7332C93.3533 47.0219 92.9228 46.3761 92.3784 45.8336C91.8339 45.2911 91.1865 44.8629 90.4742 44.5743C87.2814 43.2205 83.8292 43.683 83.9307 41.3477L83.3553 41.72C83.3553 41.72 82.78 42.6564 84.6415 43.4235C86.503 44.1907 87.8004 43.9086 90.2824 44.9466C93.5542 46.3117 93.667 48.5117 93.667 48.5117L93.6444 47.7332Z" fill="#AA4017"/>
<path d="M86.5255 41.9118C84.664 41.4492 84.2691 40.5241 84.145 40.1405C84.0773 40.1405 83.9983 40.1969 83.9983 40.1969C83.8312 40.4289 83.6463 40.6477 83.4455 40.8513C83.6618 41.3326 83.9877 41.7568 84.3971 42.0898C84.8065 42.4228 85.2881 42.6555 85.8034 42.7692C91.0157 44.3712 92.6515 44.6307 93.8249 49.166C94.1242 47.9184 94.2119 46.6294 94.0843 45.3527C93.8907 45.2445 93.7092 45.1159 93.5428 44.9692C91.7151 43.2092 88.8947 42.4984 86.5255 41.9118Z" fill="#AA4017"/>
<path d="M81.0875 85.4373C80.193 84.6213 79.3419 83.7589 78.5378 82.8537L82.0126 77.1C82.8813 77.8784 83.6824 78.5779 84.3818 79.1758L81.0875 85.4373Z" fill="#3AAAB9"/>
<path d="M95.5396 80.9923C94.8514 81.9625 94.1293 82.8876 93.4073 83.7451L88.4432 79.3C88.9171 78.5667 89.4586 77.6528 90.0453 76.6487L95.5396 80.9923Z" fill="#3AAAB9"/>
<path d="M100.086 72.7226L93.4299 70.8047C94.0391 69.8231 94.6596 68.8868 95.2576 68.0632L100.989 69.3606C100.807 70.5098 100.504 71.6367 100.086 72.7226Z" fill="#3AAAB9"/>
<path d="M79.1359 81.8723C79.9305 82.7366 80.7783 83.5505 81.6743 84.3091L81.0877 85.4373C80.6251 85.0312 80.1625 84.5799 79.6549 84.0609C79.1472 83.542 79.2487 83.6548 78.5267 82.8651L79.1359 81.8723Z" fill="#208E9D"/>
<path d="M92.6063 83.023C93.3396 82.222 94.0729 81.3307 94.7837 80.3943L95.5396 80.9923C94.8401 81.9738 94.1293 82.8876 93.4298 83.6999L92.6063 83.023Z" fill="#208E9D"/>
<path d="M99.4769 72.5421C99.9581 71.4873 100.358 70.3973 100.673 69.2816L101 69.3606C100.812 70.5171 100.506 71.6513 100.086 72.7452L99.4769 72.5421Z" fill="#208E9D"/>
</g>
<defs>
<clipPath id="clip0">
<rect width="83.6553" height="80" transform="matrix(-1 0 0 1 115.655 36)" fill="white"/>
</clipPath>
</defs>
</svg>
