<svg width="150" height="150" viewBox="0 0 150 150" fill="none" xmlns="http://www.w3.org/2000/svg">
<circle cx="75" cy="75" r="74.5" fill="white" stroke="#CCCCCC"/>
<path d="M102.269 71.7048C111.339 71.9285 118.151 66.5263 115.053 58.2832C113.688 54.6594 110.579 52.6909 110.948 52.4001C111.44 51.908 119.594 55.9121 117.759 65.5308C115.925 75.1496 104.17 74.8812 104.17 74.8812L102.269 71.7048Z" fill="#CE6F2E"/>
<path d="M111.305 52.3665C120.108 56.6167 120.622 72.8568 103.476 73.7404L104.158 74.8588C104.158 74.8588 115.891 75.1944 117.748 65.4861C119.414 56.8516 112.972 52.7356 111.305 52.3665Z" fill="#B2581B"/>
<path d="M62.9097 44.4254C62.4875 44.8616 62.2038 45.4129 62.0944 46.01C61.9849 46.6071 62.0546 47.2232 62.2946 47.7808L62.4624 46.5393C62.7059 48.342 63.3854 50.0581 64.442 51.5388L64.319 49.85L64.7328 50.5881L65.1802 49.6039L62.9097 44.4254Z" fill="#CE6F2E"/>
<path d="M69.1846 38.1173C69.7885 36.3613 70.303 30.3999 70.7281 30.288C71.4774 30.0196 73.7255 33.2631 73.3005 36.8199C73.3005 36.7751 69.274 39.0344 69.1846 38.1173Z" fill="#B2581B"/>
<path d="M74.8327 78.382C74.8327 78.382 73.1886 81.5584 71.1977 81.3347C67.641 80.9321 63.5362 71.2686 61.7579 71.6824C60.2367 72.0291 57.7873 78.5274 57.7873 78.5274H55.9307C55.9307 78.5274 56.5458 68.2263 60.4045 67.3427C64.2632 66.4592 69.218 74.3331 70.1799 74.1989C71.4826 73.863 72.7637 73.4484 74.0162 72.9574L74.8327 78.382Z" fill="#B2581B"/>
<path d="M85.9165 79.0978C87.6837 80.865 85.4244 85.0368 86.6547 90.0028C87.4041 92.9891 97.2018 97.4406 98.5328 99.4426C99.8637 101.445 97.336 104.89 97.0676 109.811L99.1927 109.945C99.1927 109.945 99.7295 107.552 100.389 105.024C101.049 102.496 102.38 96.5123 101.318 96.0761C100.255 95.6399 97.0676 92.8884 97.336 87.5757C97.6044 82.263 91.0838 74.6239 85.9165 79.0978Z" fill="#B2581B"/>
<path d="M69.8888 48.0381C69.8888 48.0381 64.8557 68.6066 69.1506 75.2167C72.6962 80.686 85.9947 79.8472 89.9652 81.167C93.9358 82.4867 92.9403 85.1263 97.2352 90.1147C101.53 95.103 106.071 95.953 108.979 101.467C110.917 105.548 112.254 109.888 112.95 114.352L115.421 114.889C115.421 114.889 113.442 97.2505 110.59 96.5123C106.384 94.6444 108.61 81.3906 105.266 74.8253C101.396 67.2533 82.3261 67.4881 79.228 47.7808L69.8888 48.0381Z" fill="#CE6F2E"/>
<path d="M64.5651 49.6934C65.8454 49.9562 67.1658 49.9562 68.4461 49.6934C68.9383 49.548 71.1528 48.8098 71.1528 48.8098L79.2281 47.7809C78.8143 42.7478 79.9663 38.8331 78.6018 37.5022C77.2373 36.1712 72.1594 36.1376 70.7725 36.8758C69.0448 37.8623 67.4155 39.0121 65.9072 40.3095C65.7842 40.6339 66.2763 41.7076 66.2763 41.7076C65.0718 42.4764 63.9477 43.3645 62.9209 44.3584C62.5854 44.9847 63.9835 49.3243 64.5651 49.6934Z" fill="#CE6F2E"/>
<path d="M79.2843 39.9516C79.5786 38.2372 79.7839 36.5087 79.8994 34.7731C80.0672 31.9322 79.2172 30.1538 78.8705 30.0084C78.5237 29.863 77.931 31.619 76.9914 33.5316C76.1722 35.0054 75.2762 36.4353 74.3071 37.8153L79.2843 39.9516Z" fill="#CE6F2E"/>
<path d="M72.5733 41.4727C72.5733 41.6364 72.5247 41.7964 72.4338 41.9325C72.3429 42.0686 72.2136 42.1747 72.0624 42.2373C71.9111 42.3 71.7447 42.3164 71.5842 42.2844C71.4236 42.2525 71.2761 42.1737 71.1604 42.0579C71.0446 41.9422 70.9658 41.7947 70.9339 41.6342C70.9019 41.4736 70.9183 41.3072 70.981 41.1559C71.0436 41.0047 71.1497 40.8755 71.2858 40.7845C71.4219 40.6936 71.5819 40.645 71.7456 40.645C71.9651 40.645 72.1757 40.7322 72.3309 40.8874C72.4861 41.0427 72.5733 41.2532 72.5733 41.4727Z" fill="#6D3A31"/>
<path d="M67.0706 40.645C66.8511 40.645 66.6406 40.7322 66.4854 40.8874C66.3302 41.0427 66.243 41.2532 66.243 41.4727C66.2315 41.5543 66.2315 41.6371 66.243 41.7187L67.5068 40.824C67.3819 40.7233 67.2303 40.6611 67.0706 40.645Z" fill="#6D3A31"/>
<path d="M67.5967 61.9853C69.9149 56.2721 73.0207 50.9112 76.824 46.0584C74.4697 47.309 72.0377 48.4074 69.5428 49.3467C68.6317 53.5376 67.9817 57.781 67.5967 62.0524V61.9853Z" fill="#B2581B"/>
<path d="M75.8838 36.5962C76.5076 36.7089 77.1011 36.9501 77.6267 37.3044C78.1523 37.6586 78.5986 38.1183 78.9372 38.6542C78.9372 38.6542 79.1385 36.9653 79.228 34.8961C79.3175 32.827 79.0602 31.7644 78.7247 31.7197C78.3891 31.6749 77.9529 32.9164 77.1588 34.4487C76.6108 35.4777 75.8838 36.5962 75.8838 36.5962Z" fill="#F48F4A"/>
<path d="M67.7417 49.6151L68.0325 50.275L68.245 49.8611C68.3887 50.4551 68.4711 51.0623 68.4911 51.6731C69.2221 50.4782 69.7264 49.1587 69.9786 47.7808C70.1352 46.0584 67.7417 49.6151 67.7417 49.6151Z" fill="#CE6F2E"/>
<path d="M63.4131 44.4254C63.4131 44.1011 66.6678 44.1346 66.6678 44.4254C66.2329 45.1903 65.6236 45.8418 64.8895 46.3268C64.2376 45.835 63.728 45.1788 63.4131 44.4254Z" fill="#6D3A31"/>
<path d="M67.596 49.0447L64.9788 47.9262L64.688 45.611C64.6847 45.5984 64.6842 45.5853 64.6865 45.5725C64.6887 45.5597 64.6938 45.5476 64.7012 45.5369C64.7087 45.5263 64.7184 45.5174 64.7296 45.5109C64.7408 45.5043 64.7534 45.5003 64.7663 45.4991C64.8334 45.4991 64.8781 45.4991 64.8781 45.5774L65.1689 47.8144L67.5848 48.8098L68.5243 48.2618C68.5459 48.255 68.5691 48.2557 68.5901 48.2638C68.6112 48.2718 68.629 48.2867 68.6406 48.3061C68.6522 48.3254 68.657 48.3481 68.6542 48.3705C68.6513 48.3929 68.6411 48.4137 68.625 48.4295L67.596 49.0447Z" fill="#6D3A31"/>
<path d="M63.4804 49.1677C63.468 49.1729 63.4547 49.1756 63.4413 49.1756C63.4278 49.1756 63.4145 49.1729 63.4021 49.1677C63.3923 49.1583 63.3845 49.147 63.3792 49.1345C63.3738 49.122 63.3711 49.1086 63.3711 49.095C63.3711 49.0814 63.3738 49.068 63.3792 49.0555C63.3845 49.043 63.3923 49.0317 63.4021 49.0223L64.9568 47.9038C64.9662 47.894 64.9775 47.8862 64.99 47.8809C65.0025 47.8756 65.0159 47.8728 65.0295 47.8728C65.0431 47.8728 65.0565 47.8756 65.069 47.8809C65.0815 47.8862 65.0928 47.894 65.1022 47.9038C65.1117 47.9122 65.1193 47.9226 65.1246 47.9341C65.1298 47.9457 65.1325 47.9583 65.1325 47.9709C65.1325 47.9836 65.1298 47.9962 65.1246 48.0078C65.1193 48.0193 65.1117 48.0297 65.1022 48.0381L63.5363 49.2236L63.4804 49.1677Z" fill="#6D3A31"/>
<path d="M67.9873 40.3207C67.1061 40.2731 66.2306 40.4871 65.4707 40.9359L65.7168 40.4885C65.3839 40.5423 65.0625 40.652 64.7661 40.8128C64.9796 40.4853 65.2589 40.2058 65.5862 39.9921C65.9136 39.7784 66.2818 39.6351 66.6675 39.5713H66.0523C66.4379 39.4241 66.8499 39.3589 67.2621 39.3801C67.6743 39.4013 68.0775 39.5083 68.4459 39.6944C69.7656 40.276 67.9873 40.3207 67.9873 40.3207Z" fill="#CE6F2E"/>
<path d="M92.549 78.986C89.4956 75.5747 80.1005 73.8187 80.1005 73.8187C79.8925 75.81 79.4495 77.7698 78.7808 79.657C83.2546 80.3729 87.8515 80.4735 89.9654 81.167C93.9248 82.4868 92.9405 85.1263 97.2354 90.1147V90.1706C94.8083 85.8757 94.9873 81.7038 92.549 78.986Z" fill="#B75F23"/>
<path d="M82.326 56.7285C81.8053 55.8399 81.3457 54.9169 80.9503 53.9659C76.9394 55.6491 72.6277 56.4977 68.2781 56.4601C68.1327 57.4332 67.9873 58.451 67.8643 59.4912C72.8199 59.5334 77.7349 58.5945 82.326 56.7285Z" fill="#B2581B"/>
<path d="M81.5438 72.8344C81.5438 72.8344 79.8996 80.7755 78.591 81.3347C73.5132 83.3927 66.8248 71.4811 65.0464 71.6824C63.8161 71.8166 60.3936 78.5274 60.3936 78.5274H57.7876C57.7876 78.5274 61.0088 67.6448 64.778 66.8842C68.2005 66.2019 75.1238 73.595 75.1238 73.595L81.5438 72.8344Z" fill="#CE6F2E"/>
<path d="M67.3613 67.4322C67.3613 67.4322 69.7213 69.2889 73.0319 72.5324L73.3004 71.3245C71.5676 70.4797 70.1111 69.1592 69.101 67.5173C68.0909 65.8754 67.569 63.98 67.5962 62.0524C67.5962 62.0524 67.3613 65.3183 67.3613 67.4322Z" fill="#B75F23"/>
<path d="M67.9649 55.6101C72.3916 55.6943 76.7839 54.8166 80.8384 53.0376L82.1358 55.8338C82.1358 55.8338 74.7428 59.0438 67.4951 58.5852L67.9649 55.6101Z" fill="#28B2BC"/>
<path d="M67.9653 55.61L67.4844 58.6411C68.0212 58.6411 68.5469 58.6411 69.0726 58.6411C69.5871 57.5226 70.1239 56.516 70.6608 55.5206C69.7651 55.6067 68.8648 55.6366 67.9653 55.61Z" fill="#1998A5"/>
<path d="M69.6318 57.5562C69.9036 57.5562 70.1239 57.3359 70.1239 57.0641C70.1239 56.7923 69.9036 56.572 69.6318 56.572C69.36 56.572 69.1396 56.7923 69.1396 57.0641C69.1396 57.3359 69.36 57.5562 69.6318 57.5562Z" fill="#F7D6D0"/>
<path d="M74.9443 56.9969C75.2161 56.9969 75.4364 56.7766 75.4364 56.5048C75.4364 56.233 75.2161 56.0127 74.9443 56.0127C74.6725 56.0127 74.4521 56.233 74.4521 56.5048C74.4521 56.7766 74.6725 56.9969 74.9443 56.9969Z" fill="#F7D6D0"/>
<path d="M79.8427 55.6772C80.1145 55.6772 80.3348 55.4569 80.3348 55.1851C80.3348 54.9133 80.1145 54.6929 79.8427 54.6929C79.5709 54.6929 79.3506 54.9133 79.3506 55.1851C79.3506 55.4569 79.5709 55.6772 79.8427 55.6772Z" fill="#F7D6D0"/>
<path d="M94.9986 84.1085H41.5137V87.2067H94.9986V84.1085Z" fill="#F7D6D0"/>
<path d="M97.5262 84.1085H90.2114V87.2067H97.5262V84.1085Z" fill="#DD3636"/>
<path d="M84.7195 84.1085H77.4048V87.2067H84.7195V84.1085Z" fill="#DD3636"/>
<path d="M71.9139 84.1085H64.5991V87.2067H71.9139V84.1085Z" fill="#DD3636"/>
<path d="M59.1067 84.1085H51.792V87.2067H59.1067V84.1085Z" fill="#DD3636"/>
<path d="M46.3006 84.1085H38.9858V87.2067H46.3006V84.1085Z" fill="#DD3636"/>
<g style="mix-blend-mode:multiply" opacity="0.3">
<path d="M94.9986 85.6632H41.5137V87.2067H94.9986V85.6632Z" fill="#C94F80"/>
</g>
<path d="M42.4987 51.3152H38.8413V120H42.4987V51.3152Z" fill="#F7D6D0"/>
<path d="M50.3382 120H31V119.016L38.8404 116.768H42.4978L50.3382 119.016V120Z" fill="#F7D6D0"/>
<g style="mix-blend-mode:multiply" opacity="0.3">
<path d="M42.4979 116.768V51.3152H40.6748V120H40.7419H42.4979H50.3383V119.016L42.4979 116.768Z" fill="#C94F80"/>
</g>
<path d="M97.526 51.3152H93.8687V120H97.526V51.3152Z" fill="#F7D6D0"/>
<path d="M105.367 120H86.0283V119.016L93.8687 116.768H97.5261L105.367 119.016V120Z" fill="#F7D6D0"/>
<g style="mix-blend-mode:multiply" opacity="0.3">
<path d="M97.5262 116.768V51.3152H95.7031V120H95.7702H97.5262H105.367V119.016L97.5262 116.768Z" fill="#C94F80"/>
</g>
</svg>
