<svg width="150" height="150" viewBox="0 0 150 150" fill="none" xmlns="http://www.w3.org/2000/svg">
<circle cx="75" cy="75" r="74.5" fill="white" stroke="#CCCCCC"/>
<path d="M92.4508 46.8734C93.3479 46.6402 98.7756 36.0181 95.6805 33.9816C94.0925 32.9499 91.9932 37.6419 91.9932 37.6419C91.9932 37.6419 90.4053 46.8196 92.4508 46.8734Z" fill="#7F3500"/>
<path d="M95.6983 33.9816C98.6229 35.9014 95.9136 47.1784 92.639 46.7657C92.8065 45.8964 92.8936 45.0135 92.8992 44.1282C92.8992 43.4822 92.8992 42.8812 92.8274 42.3339V43.2938L92.2353 43.4105C92.2353 43.4105 92.3609 38.9248 91.4189 36.4218C91.9213 36.8165 94.6486 38.7454 96.0123 36.5833C96.266 36.1793 96.3733 35.7004 96.3161 35.2268C96.259 34.7532 96.0409 34.3136 95.6983 33.9816Z" fill="#722C00"/>
<path d="M82.0976 53.9877C80.3034 54.7144 75.4229 69.4633 73.9337 69.4633C72.0318 69.4633 68.8559 62.8334 65.8595 56.0511L61.625 56.3382C61.625 56.3382 67.3667 77.7976 73.9337 78.2193C79.2358 78.5602 84.1072 68.4764 84.1072 68.4764L82.0976 53.9877Z" fill="#2894A3"/>
<path d="M82.6543 116.231C82.6543 116.231 83.9641 117.693 80.9856 118.447C78.9581 118.967 77.8187 119.102 78.1417 119.658C78.4647 120.214 85.7674 119.936 85.4982 119.281C84.9139 118.301 84.3984 117.282 83.9551 116.231C83.4348 114.742 82.6543 116.231 82.6543 116.231Z" fill="#2D313D"/>
<path d="M114.413 114.464C114.413 114.464 115.408 113.898 116.207 115.513C117.176 117.586 118.082 119.864 118.602 119.658C119.123 119.452 117.759 112.113 117.122 112.257C116.173 112.634 115.195 112.934 114.197 113.154C112.69 113.414 114.413 114.464 114.413 114.464Z" fill="#2D313D"/>
<path d="M83.1381 84.912C83.1381 84.912 65.339 85.0017 64.3521 88.1058C63.1141 91.9814 68.3803 97.1399 81.7655 117.191H85.1567C85.1567 117.191 82.3307 105.385 81.1734 102.505C79.6393 98.692 75.9252 95.3277 75.9252 95.3277L85.991 94.5741L88.817 96.1262C88.817 96.1262 87.1214 116.599 89.6603 119.003C92.9259 122.089 104.239 117.209 115.22 115.19V112.248C115.22 112.248 108.303 110.821 103.853 111.144C101.887 111.311 99.9308 111.587 97.9947 111.97L101.906 92.9413C102.355 90.2499 102.678 87.1817 102.938 83.8713L83.1381 84.912Z" fill="#3D4359"/>
<path d="M64.3883 88.1058C63.1502 91.9814 68.4164 97.1399 81.8017 117.191H85.1928C85.1928 117.191 82.3669 105.385 81.2096 102.505C79.6755 98.692 75.9613 95.3277 75.9613 95.3277L85.9913 94.5741L88.8173 96.1261L87.6869 92.8785L90.5129 84.7056L90.0374 84.5352L83.1384 84.912C83.1384 84.912 65.3751 85.0017 64.3883 88.1058Z" fill="#323749"/>
<path d="M102.373 89.6668C102.589 87.8725 102.777 85.9078 102.938 83.8713L83.1387 84.912C83.1387 84.912 87.5167 91.0304 102.373 89.6668Z" fill="#323749"/>
<path d="M103.234 86.8318C103.234 86.8318 105.62 70.3514 101.081 54.499C101.081 54.499 97.609 52.4446 90.4139 52.6061C87.5464 52.6034 84.6977 53.0701 81.9809 53.9877C80.4737 58.7604 82.3397 64.8699 83.3266 71.9304C84.9324 82.9652 83.1382 84.9119 83.1382 84.9119C83.1382 84.9119 92.6299 90.223 103.234 86.8318Z" fill="#3AAAB9"/>
<path d="M94.0573 42.3429C94.0573 42.3429 92.7116 49.3226 94.2547 53.1085C92.0746 53.8711 87.8132 54.9028 87.0148 52.8573C87.2256 51.4312 87.2074 49.9805 86.9609 48.56L94.0573 42.3429Z" fill="#E08344"/>
<path d="M85.938 53.0009C85.938 53.0009 86.3417 55.5846 90.002 55.6923C91.1015 55.7038 92.1887 55.4593 93.1774 54.9782C94.1662 54.497 95.0294 53.7924 95.6988 52.9201C92.468 52.3458 89.1589 52.3731 85.938 53.0009Z" fill="#E08344"/>
<path d="M94.0573 42.3429L86.9609 48.5331C87.0989 49.6429 87.1529 50.7615 87.1224 51.8794C88.6683 53.4199 90.5692 54.5568 92.6578 55.1899C93.8513 54.7101 94.8995 53.9279 95.699 52.9201C95.699 52.9201 95.1249 52.8035 94.147 52.6869C92.8013 48.8651 94.0573 42.3429 94.0573 42.3429Z" fill="#D1652F"/>
<path d="M90.1367 53.9608L91.9669 57.6659L95.8066 52.8752L94.0393 50.6862L90.1367 53.9608Z" fill="#F9E8F0"/>
<path d="M88.7012 53.9608L87.2837 57.6659L85.938 53.0008L87.0594 51.4129L88.7012 53.9608Z" fill="#F9E8F0"/>
<path d="M88.7009 53.9608L89.5711 55.6833L90.1363 53.9608L91.0694 55.8896L89.6339 57.0379L87.9922 55.7371L88.7009 53.9608Z" fill="#E8C4D8"/>
<path d="M83.5244 73.1415C83.7218 74.7474 83.8564 76.1379 83.9281 77.3491C86.5118 77.5225 89.0963 77.0217 91.4282 75.8957C96.0843 73.7695 97.7081 72.1816 97.7081 72.1816C97.7081 72.1816 98.3899 81.2068 96.9097 87.9353C99.0582 87.8553 101.186 87.4841 103.234 86.8318C104.377 77.2008 103.953 67.4484 101.978 57.953L83.5244 73.1415Z" fill="#2894A3"/>
<path d="M45.5935 119.837C45.5935 119.837 35.8416 121.183 32.7016 112.086C29.5616 102.989 37.9499 97.427 38.4433 97.732C38.9367 98.0371 31.8852 104.461 35.1508 111.709C38.2639 118.617 46.1407 117.092 46.1407 117.092L45.5935 119.837Z" fill="#F7D6D0"/>
<path d="M45.5937 119.837L46.0781 117.415L45.791 117.191C44.6337 117.334 40.794 117.595 37.7886 115.208C39.0625 120.77 45.5937 119.837 45.5937 119.837Z" fill="#995236"/>
<path d="M64.1282 55.3334C62.5134 56.0421 62.5224 68.8532 63.7694 69.1044C66.8196 69.7234 68.883 66.1528 69.0266 63.9818C69.1701 61.8107 67.322 53.9338 64.1282 55.3334Z" fill="#914A2F"/>
<path d="M45.5934 119.837C45.5934 119.837 31.8762 107.313 39.5467 100.477C45.8267 94.8522 49.0295 110.462 55.6952 110.256C62.3609 110.05 65.9943 96.8887 70.2198 101.751C73.3149 105.34 62.7646 119.864 62.7646 119.864L45.5934 119.837Z" fill="#F7D6D0"/>
<path d="M72.6062 62.8245C72.0769 62.0888 68.4704 61.3891 67.8962 60.5547C67.322 59.7204 67.2862 57.7018 66.3262 56.4548C65.3663 55.2078 60.4141 53.4315 57.0319 56.1947C53.4434 59.1552 56.9781 66.5117 48.2131 87.6751C45.6155 92.9962 44.1637 98.8033 43.9517 104.721C46.9032 119.703 63.8053 110.498 63.8053 110.498C62.4865 102.173 69.5739 97.436 69.9955 91.1381C70.6504 81.2696 64.6127 77.1069 65.2676 69.239C65.2676 69.239 68.9817 70.181 70.9016 68.9609C72.041 68.2073 73.2072 63.6499 72.6062 62.8245Z" fill="#F7D6D0"/>
<path d="M57.588 67.032C57.588 67.032 65.8147 67.0859 64.4241 60.0433C63.7782 56.8226 62.2621 55.3782 60.8356 54.7592C59.5437 54.8489 58.0724 54.8579 56.951 55.7999C55.2375 57.2263 55.5515 60.6265 55.1567 65.4351C55.9012 66.0616 56.7173 66.5976 57.588 67.032Z" fill="#995236"/>
<path d="M70.22 101.751C68.4257 99.6608 66.6315 100.935 64.7834 103.07C66.1111 99.8133 67.7978 98.2792 68.8833 95.3008C67.089 93.2194 65.9676 92.2326 63.2582 92.1787C58.2702 92.0711 55.6057 96.5567 51.4699 98.8355C46.3921 101.652 44.8939 99.6698 44.5261 99.2123L44.4453 99.6788V100.091C50.9944 107.995 48.5363 119.828 48.5363 119.828H62.7648C62.7648 119.828 73.3151 105.268 70.22 101.751Z" fill="#E5BABA"/>
<path d="M69.9863 88.9221C69.9863 88.9221 69.9863 95.2021 69.9863 105.313C69.9863 115.424 69.9863 119.837 69.9863 119.837H67.7614C67.7614 119.837 65.357 104.38 65.1956 92.5107C65.1058 83.2881 69.9863 88.9221 69.9863 88.9221Z" fill="#F7D6D0"/>
<path d="M69.8159 62.9949C69.9774 62.4656 72.7227 62.5374 72.9111 62.9949C73.0995 63.4525 72.1306 65.0494 71.673 65.0494C71.2155 65.0494 69.6814 63.5243 69.8159 62.9949Z" fill="#3A2323"/>
<path d="M62.8269 60.1958C62.8223 60.4481 62.7194 60.6887 62.5401 60.8663C62.3608 61.0439 62.1193 61.1445 61.867 61.1468C61.7445 61.147 61.6233 61.1222 61.5108 61.0738C61.3983 61.0253 61.2969 60.9544 61.2128 60.8653C61.1288 60.7762 61.0639 60.6709 61.0221 60.5557C60.9803 60.4406 60.9625 60.3181 60.9699 60.1958C60.988 59.9515 61.0981 59.7231 61.2778 59.5567C61.4576 59.3902 61.6938 59.298 61.9388 59.2987C62.1752 59.3011 62.4011 59.3966 62.5674 59.5646C62.7337 59.7326 62.827 59.9595 62.8269 60.1958Z" fill="#332020"/>
<path d="M68.0401 60.5547C67.4569 59.7294 67.3583 57.7018 66.3714 56.4548C65.4754 55.6349 64.3589 55.0953 63.1597 54.9028C64.4426 55.6743 65.1962 59.0655 68.0401 60.5547Z" fill="#995236"/>
<path d="M66.4429 59.3526C66.8672 59.7972 67.3537 60.1779 67.8873 60.483V60.4202C67.6565 59.9725 67.4875 59.4957 67.3849 59.0027C67.3081 58.9701 67.226 58.9518 67.1426 58.9489C67.0037 58.9612 66.8691 59.0038 66.7482 59.0735C66.6274 59.1432 66.5232 59.2385 66.4429 59.3526Z" fill="#332020"/>
<path d="M68.2458 68.4405L66.7476 67.3819C66.7344 67.3671 66.7271 67.348 66.7271 67.3281C66.7271 67.3082 66.7344 67.2891 66.7476 67.2743C66.7535 67.2668 66.761 67.2608 66.7695 67.2566C66.7781 67.2525 66.7875 67.2503 66.797 67.2503C66.8065 67.2503 66.8158 67.2525 66.8244 67.2566C66.8329 67.2608 66.8404 67.2668 66.8463 67.2743L68.2638 68.288L71.4755 66.6822L71.6549 64.9597C71.6561 64.949 71.6593 64.9387 71.6644 64.9293C71.6695 64.92 71.6765 64.9117 71.6848 64.905C71.6932 64.8983 71.7027 64.8934 71.713 64.8904C71.7233 64.8875 71.734 64.8866 71.7447 64.8879C71.7447 64.8879 71.8164 64.9327 71.8075 64.9686L71.6191 66.7629L68.2458 68.4405Z" fill="#3A2323"/>
<path d="M72.1844 67.3998C72.167 67.406 72.148 67.406 72.1306 67.3998L71.4757 66.7629C71.4637 66.7582 71.453 66.7507 71.4445 66.7411C71.436 66.7315 71.4299 66.72 71.4268 66.7075C71.4236 66.695 71.4235 66.682 71.4264 66.6695C71.4293 66.657 71.4351 66.6453 71.4434 66.6355C71.4517 66.6257 71.4622 66.618 71.4741 66.6131C71.486 66.6082 71.4988 66.6062 71.5117 66.6072C71.5245 66.6083 71.5368 66.6123 71.5477 66.6191C71.5586 66.6259 71.5678 66.6352 71.5744 66.6463L72.2382 67.2384C72.2459 67.2451 72.252 67.2534 72.2562 67.2627C72.2604 67.2719 72.2625 67.282 72.2625 67.2922C72.2625 67.3024 72.2604 67.3124 72.2562 67.3217C72.252 67.331 72.2459 67.3393 72.2382 67.346C72.2364 67.3597 72.2301 67.3723 72.2204 67.382C72.2107 67.3917 72.198 67.398 72.1844 67.3998Z" fill="#3A2323"/>
<path d="M45.5928 119.837C47.0856 119.039 48.7304 118.565 50.4194 118.447C53.5324 118.124 53.9002 119.263 53.667 119.837H45.5928Z" fill="#F7D6D0"/>
<path d="M57.6597 119.837C59.157 119.034 60.8087 118.56 62.5042 118.447C65.6262 118.124 65.9851 119.263 65.7518 119.837H57.6597Z" fill="#F7D6D0"/>
<path d="M59.9923 88.9221C59.9923 88.9221 60.0371 95.2021 59.9923 105.313C59.9474 115.424 59.9923 119.837 59.9923 119.837H57.7674C57.7674 119.837 55.3272 104.38 55.2195 92.5107C55.1119 83.2881 59.9923 88.9221 59.9923 88.9221Z" fill="#F7D6D0"/>
<path d="M56.9872 55.3334C58.8623 56.0332 58.8353 69.2569 57.3999 69.5171C53.8921 70.1541 48.5362 64.9328 48.3747 62.6899C48.2133 60.4471 54.2958 54.3376 56.9872 55.3334Z" fill="#914A2F"/>
<path d="M65.2676 69.2121C63.0517 68.8524 60.8721 68.297 58.7544 67.5524C61.2256 69.5207 63.2346 72.0074 64.6396 74.8371C69.1253 83.3958 69.7084 85.8898 69.7084 85.8898C68.5601 79.4843 64.7742 75.5369 65.2676 69.2121Z" fill="#E5BABA"/>
<path d="M32.8984 112.571C33.3653 113.794 34.0323 114.931 34.8721 115.935C34.9708 113.073 33.6161 112.607 32.8984 112.571Z" fill="#995236"/>
<path d="M34.1998 104.003C34.0138 104.296 33.9379 104.645 33.9856 104.988C34.0332 105.332 34.2014 105.647 34.46 105.878C34.6113 105.08 34.8397 104.299 35.1418 103.545C34.9265 103.402 34.5945 103.402 34.1998 104.003Z" fill="#995236"/>
<path d="M54.1431 86.0154C52.6538 87.1727 50.9493 84.6069 51.2722 83.4227C52.0348 80.5518 56.978 83.8084 54.1431 86.0154Z" fill="#995236"/>
<path d="M44.8306 97.6154C46.4275 98.3151 52.4472 94.269 51.9538 89.7116C51.586 86.3115 50.2851 84.7325 49.6123 84.1224C49.1817 85.2618 48.7152 86.446 48.2128 87.711C46.694 90.8656 45.5585 94.1907 44.8306 97.6154Z" fill="#995236"/>
<path d="M65.4476 70.9256C65.1188 70.6723 64.7484 70.4781 64.3531 70.3514C63.761 70.1899 62.6575 69.8759 62.2359 69.7414C61.8142 69.6068 61.6886 69.553 61.6258 69.5888C61.563 69.6247 61.4285 70.0105 62.0744 70.2168C62.7203 70.4232 63.7341 70.6833 63.7341 70.6833L65.4476 70.9256Z" fill="#ED9558"/>
<path d="M65.3755 72.4238C64.084 72.6798 62.7715 72.8149 61.455 72.8275C59.6607 72.8275 59.3916 72.6481 59.4185 72.4687C59.4454 72.2892 59.8312 72.2803 60.4053 72.3341C60.7284 72.3151 61.0494 72.2701 61.3653 72.1995C60.9763 72.1421 60.5826 72.1241 60.19 72.1457C60.0016 72.1457 58.7456 72.1008 58.7726 71.8138C58.7995 71.5267 59.6697 71.5805 60.1721 71.5984C60.5792 71.5936 60.9849 71.5485 61.3832 71.4639C60.9641 71.3795 60.5366 71.3434 60.1093 71.3562C59.9299 71.3562 58.5931 71.3562 58.6021 71.0512C58.6111 70.7462 58.934 70.7103 60.0734 70.7641C60.5271 70.8044 60.9834 70.8044 61.437 70.7641C61.437 70.5219 59.1045 70.6564 59.1224 70.2348C59.1224 70.0285 59.6607 70.0285 60.3605 70.0643C61.0602 70.1002 61.2576 70.0643 61.7869 70.163C63.0729 70.3388 64.3443 70.6087 65.5908 70.9704C65.7456 71.1949 65.8096 71.4698 65.7696 71.7396C65.7296 72.0093 65.5888 72.2539 65.3755 72.4238Z" fill="#FFB476"/>
<path d="M101.081 54.4991C107.28 58.6259 95.1781 73.1954 87.7947 75.2588C81.7301 76.9544 71.8078 77.376 65.2407 73.1057L65.6624 70.5578C65.6624 70.5578 78.617 71.3024 85.5429 69.0416C91.3563 67.1576 97.9413 52.4087 101.081 54.4991Z" fill="#42B6C6"/>
<path d="M81.8734 36.0988C81.8734 36.0988 80.8955 36.9332 82.4386 40.7908C82.4386 40.7908 83.9727 36.8883 81.8734 36.0988Z" fill="#722C00"/>
<path d="M92.8816 44.1281C92.8759 45.0606 92.7918 45.9909 92.6304 46.9093C92.0703 48.432 91.0315 49.7321 89.6699 50.6144C88.5444 51.1947 87.2451 51.3416 86.0185 51.0271C85.4892 50.7131 83.2733 46.9721 82.9055 45.1957C82.7655 44.2534 82.6787 43.3039 82.6453 42.3518C82.4838 40.8715 82.2416 39.8488 82.1519 38.0545C82.0622 36.2603 84.0359 35.094 86.6375 34.9415C92.46 34.6185 92.6125 37.0767 92.8816 44.1281Z" fill="#FFB476"/>
<path d="M89.6702 35.1568C92.1553 36.5922 91.8234 44.0026 91.5542 45.6174C91.2611 47.4978 90.2795 49.2021 88.8 50.3991C88.3642 50.6971 87.8657 50.8909 87.343 50.9656C86.8203 51.0402 86.2875 50.9938 85.7856 50.8298C85.8528 50.9122 85.9313 50.9847 86.0189 51.0451C87.2476 51.354 88.5471 51.2008 89.6702 50.6144C91.0349 49.7275 92.0741 48.4207 92.6308 46.8913C92.7922 45.973 92.8762 45.0426 92.882 44.1102C92.6756 38.6108 92.5321 35.9014 89.6702 35.1568Z" fill="#ED9558"/>
<path d="M92.8275 41.7597L92.7737 43.2759L92.1816 43.3925C92.1816 43.3925 92.3699 36.5474 90.5039 35.0312C90.5039 35.0312 93.0966 34.5288 92.8275 41.7597Z" fill="#7F3500"/>
<path d="M92.2438 43.5361C92.2761 43.7375 92.3487 43.9304 92.4573 44.1031C92.5658 44.2759 92.7081 44.4249 92.8757 44.5413C93.0432 44.6578 93.2325 44.7392 93.4322 44.7807C93.632 44.8223 93.8381 44.8231 94.0381 44.7831C94.4422 44.7085 94.8013 44.4794 95.0391 44.1444C95.277 43.8094 95.3749 43.3949 95.3121 42.9888C95.2787 42.7882 95.2054 42.5963 95.0963 42.4246C94.9873 42.2528 94.8449 42.1048 94.6774 41.9893C94.51 41.8738 94.3211 41.7931 94.1219 41.7522C93.9226 41.7112 93.7172 41.7107 93.5178 41.7508C93.1134 41.8211 92.7529 42.0479 92.5145 42.382C92.276 42.7161 92.1788 43.1308 92.2438 43.5361Z" fill="#ED9558"/>
<path d="M93.5364 44.0474C93.6324 44.0265 93.7231 43.9863 93.8031 43.9293C93.8831 43.8723 93.9507 43.7997 94.0019 43.7158C94.053 43.632 94.0866 43.5386 94.1007 43.4414C94.1148 43.3442 94.109 43.2452 94.0837 43.1503C94.0449 42.9698 93.9364 42.812 93.7818 42.7112C93.6272 42.6104 93.4391 42.5747 93.2583 42.612C93.3525 42.5366 93.4632 42.4843 93.5813 42.4595C93.6891 42.4344 93.8009 42.431 93.9101 42.4495C94.0192 42.468 94.1236 42.5081 94.2171 42.5674C94.3107 42.6267 94.3914 42.704 94.4548 42.7948C94.5181 42.8857 94.5628 42.9882 94.5861 43.0964C94.6316 43.3257 94.5858 43.5638 94.4584 43.7598C94.3311 43.9559 94.1322 44.0944 93.9042 44.1461C93.6969 44.1943 93.4789 44.1622 93.2942 44.0564C93.3749 44.0654 93.4566 44.0624 93.5364 44.0474Z" fill="#E08344"/>
<path d="M92.9077 43.249L92.1811 43.3925C92.1118 41.0304 91.7502 38.686 91.1045 36.4128C91.248 36.5294 92.1541 36.9062 92.5937 37.1484C92.9396 39.1623 93.045 41.2102 92.9077 43.249Z" fill="#722C00"/>
<path d="M85.1661 40.746C88.1805 42.7645 84.9149 44.4332 85.0853 45.0433C85.3365 45.9404 87.059 45.4828 87.059 45.4828C86.9065 46.0929 84.9867 46.066 84.7534 45.1868C84.4484 43.9936 87.5345 43.8411 85.1661 40.746Z" fill="#C47B49"/>
<path d="M84.7622 47.1425L89.2479 46.7388C89.0441 47.1871 88.7342 47.5791 88.345 47.8807C87.9558 48.1824 87.499 48.3848 87.014 48.4703C86.553 48.477 86.099 48.3566 85.7018 48.1224C85.3046 47.8882 84.9795 47.5492 84.7622 47.1425Z" fill="#6D3A31"/>
<path d="M85.4351 47.2502L88.9429 46.9272C88.7897 47.2287 88.5773 47.4961 88.3183 47.7134C88.0593 47.9308 87.7591 48.0936 87.4357 48.1922C86.9592 48.3235 86.4518 48.2855 86.0003 48.0846L85.4351 47.2502Z" fill="#F7EEE2"/>
<path d="M89.248 46.685C89.1942 46.685 89.1404 46.8016 89.1583 46.8196C89.1762 46.8375 89.2839 46.8196 89.3377 46.8196C89.3916 46.8196 89.3916 46.7478 89.3377 46.7209C89.3286 46.706 89.315 46.6945 89.2988 46.688C89.2827 46.6816 89.2648 46.6805 89.248 46.685Z" fill="#6D3A31"/>
<path d="M84.6905 47.2054C84.7443 47.2054 84.852 47.2054 84.8699 47.2054C84.8879 47.2054 84.7982 47.1067 84.7443 47.0887C84.7295 47.0755 84.7104 47.0682 84.6905 47.0682C84.6706 47.0682 84.6515 47.0755 84.6367 47.0887C84.6367 47.0887 84.6277 47.1874 84.6905 47.2054Z" fill="#6D3A31"/>
<path d="M87.8932 42.2262C87.2921 41.6431 87.9919 41.0689 88.6827 41.042C89.006 41.0359 89.3258 41.1096 89.6138 41.2567C89.9017 41.4038 90.1489 41.6197 90.3334 41.8853L90.1989 41.975C89.4401 42.1319 88.668 42.216 87.8932 42.2262Z" fill="#6D3A31"/>
<path d="M87.9207 42.2621C87.831 42.0468 88.0194 41.5354 88.7192 41.4457C89.4189 41.356 90.1994 41.8225 90.2084 42.0378C90.2174 42.2531 88.6474 43.3656 87.9207 42.2621Z" fill="#FFE4CB"/>
<path d="M89.6782 42.0289C89.7063 42.1297 89.7118 42.2356 89.6941 42.3388C89.6765 42.442 89.6362 42.54 89.5761 42.6258C89.5161 42.7116 89.4378 42.783 89.3468 42.8349C89.2559 42.8868 89.1546 42.9179 89.0502 42.926C88.8358 42.9503 88.6199 42.8966 88.442 42.7746C88.264 42.6527 88.136 42.4708 88.0813 42.2621C88.0531 42.1612 88.0477 42.0554 88.0653 41.9522C88.083 41.849 88.1232 41.7509 88.1833 41.6652C88.2433 41.5794 88.3217 41.508 88.4126 41.4561C88.5035 41.4042 88.6049 41.373 88.7093 41.365C88.9236 41.3407 89.1395 41.3944 89.3175 41.5163C89.4954 41.6382 89.6235 41.8202 89.6782 42.0289Z" fill="#6D3A31"/>
<path d="M83.0754 42.621C82.4923 42.0558 83.1651 41.4906 83.838 41.4637C84.1335 41.4613 84.4243 41.5382 84.68 41.6866C84.9356 41.8349 85.1468 42.0492 85.2913 42.307L85.1657 42.3967C84.4787 42.5441 83.7781 42.6193 83.0754 42.621Z" fill="#6D3A31"/>
<path d="M83.1381 42.6569C83.0484 42.4416 83.2368 41.9661 83.9096 41.8674C84.16 41.8226 84.418 41.8542 84.65 41.9583C84.8821 42.0623 85.0774 42.2338 85.2105 42.4505C85.1836 42.6479 83.802 43.7245 83.1381 42.6569Z" fill="#FFE4CB"/>
<path d="M84.8071 42.4147C84.8293 42.5107 84.8307 42.6104 84.8111 42.7071C84.7915 42.8037 84.7515 42.895 84.6937 42.9749C84.6359 43.0548 84.5617 43.1214 84.476 43.1702C84.3904 43.219 84.2953 43.249 84.1971 43.258C83.9969 43.2659 83.7998 43.2067 83.6372 43.0896C83.4746 42.9725 83.3559 42.8044 83.2999 42.612C83.2778 42.5159 83.2764 42.4162 83.296 42.3196C83.3155 42.223 83.3555 42.1316 83.4133 42.0517C83.4711 41.9719 83.5453 41.9053 83.631 41.8564C83.7167 41.8076 83.8118 41.7777 83.91 41.7687C84.1102 41.7607 84.3073 41.82 84.4699 41.9371C84.6325 42.0542 84.7512 42.2223 84.8071 42.4147Z" fill="#6D3A31"/>
<path d="M84.6724 39.8488C84.7442 40.1179 84.2418 40.1179 83.551 40.2884C82.8602 40.4589 82.3399 40.7998 82.2681 40.5306C82.1515 40.0641 82.627 39.6335 83.3177 39.463C84.2059 39.2836 84.6096 39.6156 84.6724 39.8488Z" fill="#722C00"/>
<path d="M91.0065 40.1808C90.8989 40.4409 90.1094 40.0193 88.988 39.8757C87.8666 39.7322 87.0681 39.9834 87.0591 39.5707C87.0502 39.158 88.0101 38.862 89.1226 39.0055C90.549 39.1939 91.1321 39.8488 91.0065 40.1808Z" fill="#722C00"/>
<path d="M91.1052 36.4128C90.8893 36.0688 90.5843 35.7897 90.2226 35.6049C89.861 35.4201 89.456 35.3366 89.0508 35.3631C88.1536 35.3631 87.3193 36.1078 84.924 36.4397C83.641 36.6102 83.4078 36.1975 82.9233 36.4397C82.4389 36.6819 82.1339 37.92 82.1339 37.92C82.1339 37.92 80.5459 34.4481 81.6494 32.5372C83.4437 29.3434 92.3253 29.3434 94.7117 31.5414C95.1081 31.851 95.384 32.2892 95.4921 32.7805C95.6002 33.2717 95.5336 33.7853 95.3038 34.2328C95.3038 34.2328 96.5957 39.7412 91.1052 36.4128Z" fill="#7F3500"/>
<path d="M86.8259 30.097C85.6327 30.3841 81.9096 31.0569 82.6991 33.9995C83.4078 36.6192 87.3283 35.74 88.2344 35.5067C87.1707 35.937 86.0593 36.2382 84.924 36.4038C83.641 36.5743 83.4078 36.1616 82.9233 36.4038C82.4389 36.6461 82.1339 37.8841 82.1339 37.8841C82.1339 37.8841 80.5459 34.4122 81.6494 32.5013C82.4299 31.1466 84.5202 30.3661 86.8259 30.097Z" fill="#722C00"/>
<path d="M85.1482 36.1168C84.5803 36.0231 84.0627 35.7346 83.6845 35.3007C83.3063 34.8668 83.0911 34.3147 83.0758 33.7394C82.8874 32.0886 84.574 30.2405 87.4269 30.0432C87.4269 30.0432 83.1207 30.8147 83.5333 33.6945C83.8294 35.7848 86.9604 35.8207 86.9604 35.8207L85.1482 36.1168Z" fill="#722C00"/>
</svg>
