<svg width="150" height="150" viewBox="0 0 150 150" fill="none" xmlns="http://www.w3.org/2000/svg">
<circle cx="75" cy="75" r="74.5" fill="white" stroke="#CCCCCC"/>
<g clip-path="url(#clip0)">
<path d="M115.197 41.2152C117.164 38.4194 117.408 24.8011 111.614 25.3618C110.322 22.3978 101.261 24.4085 100.148 29.7357C99.4331 33.1723 98.7586 38.9962 101.27 41.7519C104.089 44.8841 112.207 45.3968 115.197 41.2152Z" fill="#8F4517"/>
<path d="M111.686 31.8266C109.972 28.9587 107.038 28.9987 105.356 28.6703C103.674 28.3419 103.406 27.4046 103.406 27.4046C102.22 29.0068 100.968 29.175 100.334 29.1269C99.0668 32.8119 98.7499 44.6999 101.383 47.5918C104.202 50.708 112.45 51.5972 115.432 47.4396C116.635 45.7573 116.96 33.8212 115.92 29.7438C115.514 32.0108 112.995 34.0135 111.686 31.8266Z" fill="#7F3200"/>
<path d="M92.6643 74.0595C92.1553 74.4559 91.733 74.9499 91.423 75.5116C91.1129 76.0734 90.9216 76.6912 90.8604 77.3279C90.8116 78.0008 92.5668 77.3279 92.7618 77.0074C93.0892 76.088 93.1895 75.1049 93.0544 74.1396C92.9347 74.077 92.7994 74.0492 92.6643 74.0595Z" fill="#ED9558"/>
<path d="M46.6149 88.8874C46.5614 88.8875 46.5094 88.8704 46.4668 88.8385C46.4242 88.8067 46.3935 88.7619 46.3792 88.7111C46.3694 88.6806 46.3661 88.6485 46.3694 88.6167C46.3728 88.5848 46.3829 88.554 46.3989 88.5262C46.4149 88.4984 46.4366 88.4741 46.4626 88.4549C46.4885 88.4358 46.5182 88.4221 46.5498 88.4148L92.7535 75.7016C93.1273 75.6295 94.9637 75.3091 95.6057 75.7898C95.6793 75.8391 95.7404 75.9045 95.784 75.9809C95.8278 76.0574 95.8529 76.1427 95.8576 76.2303C95.8672 76.3083 95.8566 76.3875 95.8267 76.4603C95.7969 76.5332 95.7488 76.5974 95.6869 76.6469C95.1019 77.1276 92.9404 76.5828 92.2903 76.4066C92.2581 76.3954 92.2279 76.3792 92.201 76.3585L46.6799 88.8874H46.6149ZM93.1679 76.1182C94.273 76.3665 95.2482 76.4386 95.3782 76.2704C95.3702 76.2312 95.3468 76.1966 95.3132 76.1743C94.6151 75.9728 93.8759 75.9535 93.1679 76.1182Z" fill="#FF7F1F"/>
<path d="M92.6642 74.0594C92.1299 74.3833 91.6219 74.7475 91.1447 75.1489C90.8831 75.5898 90.6576 76.0505 90.4703 76.5267C90.2671 76.9033 90.2021 77.0394 90.389 77.0314C90.5744 76.9868 90.7456 76.8977 90.8874 76.7718C91.0292 76.646 91.1372 76.4875 91.2016 76.3105C91.2829 76.1502 91.421 75.7978 91.5998 75.7016C91.9001 75.7161 92.1972 75.6342 92.4462 75.4681C92.6953 75.3019 92.883 75.0606 92.9812 74.7804C93.3306 73.7871 92.6642 74.0594 92.6642 74.0594Z" fill="#FFB476"/>
<path d="M92.4443 76.5268C92.4443 76.9353 92.4443 77.2397 92.6556 77.2397C92.8669 77.2397 92.8994 76.9113 92.8994 76.5027C92.8994 76.0942 92.7775 75.8298 92.6475 75.8218C92.5175 75.8138 92.4443 76.1182 92.4443 76.5268Z" fill="#FFB476"/>
<path d="M91.9329 76.695C91.9329 77.1436 91.8922 77.4961 92.1604 77.4961C92.4285 77.4961 92.4204 77.1436 92.4285 76.695C92.4367 76.2464 92.3148 75.8939 92.1685 75.8939C92.0222 75.8939 91.941 76.2464 91.9329 76.695Z" fill="#FFB476"/>
<path d="M91.3799 76.8232C91.3799 77.2958 91.3799 77.6242 91.6399 77.6242C91.8999 77.6242 91.8999 77.2557 91.9081 76.8232C91.9162 76.3906 91.8024 75.958 91.648 75.942C91.4936 75.9259 91.388 76.3505 91.3799 76.8232Z" fill="#FFB476"/>
<path d="M90.8194 76.9513C90.7707 77.3759 90.7382 77.6723 91.0226 77.7043C91.307 77.7364 91.2745 77.424 91.3314 76.9994C91.3882 76.5748 91.3314 76.1983 91.2176 76.1983C91.1038 76.1983 90.8844 76.5267 90.8194 76.9513Z" fill="#FFB476"/>
<path d="M100.7 44.5957C99.7822 45.1004 97.125 57.2928 96.1012 61.0258C95.0773 64.7589 91.9082 74.2356 91.9082 74.2356L93.4684 74.8845C93.4684 74.8845 97.0194 69.9979 97.9457 67.2742C98.5505 65.5289 99.0285 63.7433 99.3759 61.931C100.716 58.2181 102.346 54.6131 104.251 51.1485L100.7 44.5957Z" fill="#BF1F2D"/>
<path d="M114.937 120.987C115.022 121.823 114.983 122.668 114.823 123.494C114.539 124.632 113.198 124.095 113.198 124.8C113.198 125.08 115.75 125.08 116.05 124.744C116.863 123.943 116.432 120.474 115.709 120.738L114.937 120.987Z" fill="#2D313D"/>
<path d="M103.821 122.469C103.242 123.149 102.495 123.671 101.652 123.983C100.181 124.551 99.2869 124.423 99.352 124.784C99.417 125.144 104.902 124.976 104.902 124.535C104.784 123.847 104.721 123.151 104.715 122.453C104.772 121.467 103.821 122.469 103.821 122.469Z" fill="#2D313D"/>
<path d="M97.9783 69.9018C97.7346 78.3612 100.587 84.5135 105.495 95.7526C112.548 111.934 114.791 121.227 114.791 121.227L116.318 120.474C116.318 120.474 116.4 109.812 114.198 103.163C112.694 98.6125 110.192 96.057 109.94 94.9996C109.127 91.7232 108.371 70.831 108.371 70.831L97.9783 69.9018Z" fill="#323749"/>
<path d="M116.449 70.1662C116.554 81.9901 113.735 84.113 110.517 96.3615C110.24 98.1719 111.232 102.257 110.931 105.974C110.533 110.781 105.243 122.509 105.243 122.509H103.398C106.291 100.775 106.527 100.735 105.966 76.3906L104.845 75.99V70.5027L116.449 70.1662Z" fill="#3D4359"/>
<path d="M116.091 68.8604H98.2145C98.0935 69.1946 98.0117 69.5413 97.9707 69.8938C100.888 70.6317 103.9 70.9447 106.909 70.8231C110.663 70.751 114.174 70.4225 116.433 70.1582C116.372 69.7137 116.257 69.278 116.091 68.8604Z" fill="#313547"/>
<path d="M116.14 70.8551C116.123 70.6293 116.093 70.4046 116.05 70.1822L108.542 70.3985C108.9 76.695 109.119 84.4574 108.778 93.3334H111.362C113.653 85.5629 115.603 82.2785 116.237 75.7096C116.312 74.0911 116.279 72.4695 116.14 70.8551Z" fill="#323749"/>
<path d="M103.488 59.0472C101.189 62.612 98.9459 65.2636 98.2227 68.8604C103.318 69.9018 109.355 69.8137 116.1 68.8604C114.873 65.5039 112.037 61.6026 109.94 59.2475L109.891 59.1994L109.835 59.1273L109.786 59.0792C108.697 57.1246 112.427 54.9777 113.759 51.1806C115.092 47.3835 114.572 45.3087 114.572 45.3087C109.631 43.1217 106.73 42.2886 101.115 44.5557L100.945 48.3288C100.945 48.3288 99.8072 50.8762 99.9778 52.0377C100.148 53.1993 105.089 56.9644 103.488 59.0472Z" fill="#F7EEE2"/>
<path d="M110.459 35.7438C110.459 35.7438 109.118 40.7105 110.264 44.1472L106.721 44.756H104.527C105.076 43.0181 105.31 41.1986 105.218 39.3807C105.088 37.2819 110.459 35.7438 110.459 35.7438Z" fill="#E08344"/>
<path d="M109.704 58.7588C109.298 57.5252 110.638 56.1794 111.979 54.3769C113.393 52.2541 114.823 49.5705 114.051 45.7253L110.216 43.8908C110.216 43.8908 107.551 49.6826 107.453 53.5038C107.404 55.4023 107.997 61.0659 108.493 69.5253C110.801 69.4372 113.214 69.2129 115.733 68.8684C114.287 64.4465 109.753 61.1541 109.704 58.7588Z" fill="#E2ADAC"/>
<path d="M101.164 44.5957L101.384 48.2967C101.384 48.2967 100.051 50.6999 100.335 52.0538C100.62 53.4076 101.96 54.457 102.773 55.7467C103.586 56.9323 104.154 58.15 103.464 59.0472C103.066 59.664 102.651 60.2488 102.285 60.8256C100.904 63.2528 98.8076 66.4571 98.377 68.8604C100.141 69.2025 101.928 69.4194 103.724 69.5093C103.764 64.5986 104.341 59.0952 104.439 57.8696C104.536 56.6439 104.536 52.8308 104.536 51.461C104.536 50.0911 104.439 43.5944 104.439 43.5944L101.164 44.5957Z" fill="#E2ADAC"/>
<path d="M102.919 43.8668C103 44.5797 103.488 46.4302 106.324 46.4302C108.536 46.498 110.696 45.7625 112.394 44.3634C109.16 43.1058 106.616 42.7132 102.919 43.8668Z" fill="#E08344"/>
<path d="M110.459 35.7438C110.459 35.7438 105.088 37.2819 105.218 39.3968C105.281 40.5358 105.21 41.6783 105.007 42.8013C106.447 44.1936 108.231 45.1905 110.183 45.6932C110.979 45.3529 111.722 44.9053 112.393 44.3634C111.647 44.0581 110.884 43.7907 110.11 43.5624C109.257 40.2058 110.459 35.7438 110.459 35.7438Z" fill="#D1652F"/>
<path d="M104.633 41.1271C104.121 41.0309 103.431 40.0456 103.008 39.5249C102.033 38.4194 101.155 37.1217 102.041 34.4621C102.041 34.4621 100.513 27.3565 106.348 27.2524C112.182 27.1482 112.637 32.8599 111.012 36.9935C110.527 38.2576 109.649 39.3381 108.503 40.0805C107.357 40.8229 106.003 41.1892 104.633 41.1271Z" fill="#FFB476"/>
<path d="M107.738 27.3645C111.736 28.3979 111.297 40.6304 104.536 41.103C104.536 41.103 104.577 41.103 104.601 41.103C105.966 41.1554 107.313 40.7827 108.45 40.0378C109.588 39.293 110.459 38.2138 110.939 36.9534C112.418 33.2204 112.158 28.1656 107.738 27.3645Z" fill="#ED9558"/>
<path d="M112.67 36.2084C112.661 36.4493 112.578 36.6818 112.434 36.8766C112.29 37.0714 112.091 37.2196 111.861 37.3025C111.631 37.3854 111.382 37.3992 111.144 37.3422C110.907 37.2853 110.692 37.16 110.526 36.9824C110.361 36.8048 110.253 36.5828 110.216 36.3445C110.178 36.1063 110.214 35.8625 110.317 35.644C110.421 35.4256 110.587 35.2423 110.797 35.1175C111.006 34.9926 111.248 34.9318 111.492 34.9427C111.818 34.9573 112.126 35.0986 112.346 35.3358C112.567 35.573 112.684 35.8867 112.67 36.2084Z" fill="#ED9558"/>
<path d="M111.476 35.3753C111.306 35.3674 111.14 35.4185 111.004 35.5195C111.074 35.5035 111.146 35.5035 111.216 35.5195C111.358 35.5665 111.481 35.6586 111.565 35.7815C111.649 35.9044 111.69 36.0512 111.681 36.1991C111.671 36.3471 111.613 36.4879 111.514 36.5996C111.415 36.7114 111.282 36.7879 111.135 36.8173C111.078 36.8255 111.02 36.8255 110.964 36.8173C111.086 36.9087 111.233 36.9617 111.386 36.9695C111.602 36.978 111.812 36.9017 111.971 36.7575C112.129 36.6133 112.223 36.4129 112.232 36.2004C112.24 35.988 112.163 35.7808 112.016 35.6246C111.87 35.4684 111.667 35.3758 111.451 35.3673L111.476 35.3753Z" fill="#E08344"/>
<path d="M104.162 32.139C104.472 32.4649 104.706 32.8543 104.846 33.2793C104.987 33.7044 105.031 34.1547 104.975 34.5983C104.897 34.9742 104.717 35.3222 104.453 35.6045C104.19 35.8869 103.853 36.0929 103.479 36.2004C103.479 36.2004 103.715 37.2018 104.633 37.2418C105.552 37.2819 103.959 36.2886 103.959 36.2886C103.959 36.2886 105.235 35.5996 105.405 34.6063C105.608 33.2365 104.162 32.139 104.162 32.139Z" fill="#E08344"/>
<path d="M108.826 28.0054C109.35 28.2722 109.795 28.6687 110.117 29.156C110.439 29.6433 110.627 30.2046 110.663 30.7851C110.915 32.94 110.273 35.1109 110.776 35.2391C111.028 35.2952 111.67 34.8546 111.67 34.8546C111.67 34.8546 114.108 28.1416 110.045 27.2604L108.826 28.0054Z" fill="#8F4517"/>
<path d="M106.844 31.9307C106.844 32.0588 107.339 32.0588 108.298 32.3072C109.257 32.5555 109.81 32.8679 109.85 32.7397C109.891 32.6116 109.428 32.1469 108.404 31.8666C107.38 31.5862 106.901 31.6743 106.844 31.9307Z" fill="#7F3500"/>
<path d="M101.383 32.6997C101.833 32.5884 102.275 32.4493 102.707 32.2831C103.357 32.1149 104.007 31.9787 103.999 31.8666C103.991 31.7544 103.829 31.6823 103.528 31.6823C101.692 31.8906 101.383 32.5635 101.383 32.6997Z" fill="#7F3500"/>
<path d="M106.795 38.2192C106.795 38.2592 106.949 38.2192 106.998 38.2192C107.008 38.2156 107.017 38.21 107.025 38.2028C107.033 38.1956 107.04 38.1869 107.044 38.1772C107.049 38.1675 107.051 38.157 107.052 38.1463C107.052 38.1356 107.05 38.125 107.046 38.115C107.044 38.1042 107.039 38.0941 107.032 38.0853C107.025 38.0766 107.016 38.0693 107.006 38.064C106.996 38.0587 106.985 38.0556 106.974 38.0547C106.963 38.0538 106.951 38.0553 106.941 38.0589C106.892 38.091 106.778 38.1711 106.795 38.2192Z" fill="#93271C"/>
<path d="M103.228 38.0028C103.228 38.0028 103.065 38.0028 103.033 37.9548C103.017 37.9385 103.009 37.917 103.009 37.8947C103.009 37.8724 103.017 37.8509 103.033 37.8346C103.04 37.8261 103.05 37.8193 103.06 37.8146C103.071 37.8099 103.082 37.8075 103.094 37.8075C103.105 37.8075 103.117 37.8099 103.127 37.8146C103.138 37.8193 103.147 37.8261 103.155 37.8346C103.155 37.8346 103.252 37.9628 103.228 38.0028Z" fill="#93271C"/>
<path d="M106.901 38.1791L103.139 37.9548C103.305 38.2904 103.552 38.5811 103.857 38.8017C104.163 39.0222 104.519 39.1659 104.894 39.2205C105.288 39.215 105.675 39.1178 106.024 38.9368C106.373 38.7558 106.673 38.4962 106.901 38.1791Z" fill="#9A6335"/>
<path d="M106.901 38.1791L103.139 37.9548C103.305 38.2904 103.552 38.5811 103.857 38.8017C104.163 39.0222 104.519 39.1659 104.894 39.2205C105.288 39.215 105.675 39.1178 106.024 38.9368C106.373 38.7558 106.673 38.4962 106.901 38.1791Z" fill="#93271C"/>
<path d="M106.624 38.2592L103.577 38.075C103.71 38.3538 103.916 38.5923 104.174 38.7653C104.433 38.9384 104.734 39.0397 105.045 39.0586C105.357 39.0774 105.668 39.0131 105.946 38.8725C106.224 38.7318 106.458 38.52 106.624 38.2592Z" fill="#F7EEE2"/>
<path d="M106.624 38.2592L103.577 38.075L103.732 38.3153C104.165 38.182 104.625 38.1518 105.072 38.2272C105.544 38.2454 106.011 38.3234 106.462 38.4595L106.624 38.2592Z" fill="#D5B698"/>
<path d="M103.407 27.4046C103.407 27.4046 103.13 28.502 104.804 29.0548C106.478 29.6075 110.054 29.992 111.053 33.2925C111.053 33.2925 112.337 29.8238 110.241 27.9012C108.965 26.7557 106.616 25.8104 103.407 27.4046Z" fill="#8F4517"/>
<path d="M112.256 32.4754C111.955 32.2511 111.134 30.9694 110.631 30.4887C108.932 28.9587 106.746 28.8866 105.381 28.6543C103.707 28.3258 103.431 27.3885 103.431 27.3885C103.431 27.3885 103.155 28.486 104.829 29.0388C106.348 29.5354 109.428 29.9119 110.736 32.4514C110.679 33.9254 110.436 35.119 110.801 35.2151C111.167 35.3112 111.695 34.8306 111.695 34.8306C112.058 34.5686 112.315 34.1872 112.417 33.7552C112.52 33.3233 112.463 32.8693 112.256 32.4754Z" fill="#7F3200"/>
<path d="M110.826 43.6905C110.826 43.6905 108.274 49.7386 107.966 53.0631C107.657 56.3876 110.111 71.4078 109.29 92.8767H113.792C113.792 92.8767 117.522 79.8111 116.652 70.3985C116.14 64.855 110.151 60.9297 110.216 58.206C110.314 55.2821 115.904 52.1579 114.564 45.2766L110.826 43.6905Z" fill="#D0333B"/>
<path d="M103.975 43.5864L100.725 44.5957L100.96 48.2967C100.96 48.2967 99.6196 50.6999 99.9121 52.0538C100.318 53.9683 103.162 55.5865 103.162 58.0058C103.162 59.6079 98.0675 65.8644 97.8644 69.4933C97.6612 73.1221 98.2707 81.5895 102.976 92.8767H104.203C104.203 92.8767 103.284 75.1409 103.284 70.1021C103.284 65.0633 103.894 59.2154 103.999 57.9016C104.105 56.5879 104.105 52.8629 104.105 51.493C104.105 50.1232 103.975 43.5864 103.975 43.5864Z" fill="#D0333B"/>
<path d="M104.438 43.4742L102.951 43.8027C103.008 44.2699 103.176 44.7175 103.439 45.1097C103.703 45.5019 104.056 45.8279 104.471 46.0617C104.454 44.6839 104.438 43.4742 104.438 43.4742Z" fill="#D1652F"/>
<path d="M109.338 46.0056C110.275 45.7233 111.157 45.2873 111.946 44.7159L110.232 43.9148C110.232 43.9148 109.825 44.7399 109.338 46.0056Z" fill="#D1652F"/>
<path d="M112.255 51.2367C112.255 51.2367 109.086 55.8669 109.192 58.1901C109.298 60.5132 113.482 65.8484 114.303 70.791C115.075 75.4453 113.661 86.9248 112.036 92.8607H113.791C113.791 92.8607 117.521 79.7952 116.652 70.3825C116.14 64.839 110.151 60.9137 110.216 58.1901C110.273 56.5158 112.134 54.7775 113.466 52.3101C112.759 51.6613 112.255 51.2367 112.255 51.2367Z" fill="#BF1F2D"/>
<path d="M110.825 43.6905C110.825 43.6905 107.965 49.7867 107.965 53.0631C107.965 53.0631 111.589 48.4489 111.646 48.0484C111.703 47.6478 110.468 46.7106 110.622 46.4462C110.776 46.1818 113.23 44.78 113.182 44.5236C113.133 44.2673 110.825 43.6905 110.825 43.6905Z" fill="#FF7878"/>
<path d="M102.082 47.8721C101.985 47.3194 103.309 46.8147 103.309 46.4142C103.309 46.0136 101.684 44.5476 101.782 44.1391C101.879 43.7305 104.024 43.4341 104.024 43.4341C104.024 43.4341 104.179 48.2406 104.081 53.0471C104.081 53.015 102.196 48.4249 102.082 47.8721Z" fill="#FF7878"/>
<path d="M106.787 34.5742C106.787 34.5742 106.893 35.1991 108.055 35.119C109.062 35.0469 109.371 34.5021 109.079 34.5902C108.315 34.6264 107.55 34.621 106.787 34.5742Z" fill="#6D3A31"/>
<path d="M106.673 34.2378L109.111 33.9734L109.671 33.9174C109.273 33.2044 106.843 32.8119 106.673 34.2378Z" fill="#6D3A31"/>
<path d="M106.787 34.2458C106.844 33.8853 107.055 33.4447 107.949 33.5008C109.192 33.5488 109.331 34.3018 109.111 34.6383C108.697 35.2151 106.592 35.3593 106.787 34.2458Z" fill="#F7EEE2"/>
<path d="M107.671 35.0638C108.125 34.978 108.422 34.5456 108.335 34.098C108.248 33.6505 107.809 33.3573 107.355 33.4432C106.901 33.529 106.604 33.9614 106.691 34.409C106.778 34.8565 107.217 35.1497 107.671 35.0638Z" fill="#6D3A31"/>
<path d="M104.162 34.414C104.162 34.414 104.162 35.0629 103.008 34.9027C102.301 34.8065 102.09 34.2618 102.382 34.3579C102.973 34.4207 103.568 34.4394 104.162 34.414Z" fill="#6D3A31"/>
<path d="M104.195 34.0696L102.253 33.7491L101.822 33.661C102.261 32.9641 104.041 32.6837 104.195 34.0696Z" fill="#6D3A31"/>
<path d="M104.179 34.0936C104.122 33.7331 103.837 33.2925 102.943 33.3326C102.81 33.3232 102.677 33.3495 102.558 33.4085C102.439 33.4676 102.339 33.5572 102.267 33.668C102.196 33.7788 102.156 33.9066 102.152 34.038C102.148 34.1693 102.18 34.2992 102.245 34.414C102.602 35.0949 104.357 35.159 104.179 34.0936Z" fill="#F7EEE2"/>
<path d="M102.123 34.0215C102.123 34.1799 102.171 34.3348 102.26 34.4665C102.349 34.5983 102.476 34.7009 102.625 34.7616C102.773 34.8222 102.937 34.8381 103.094 34.8072C103.252 34.7763 103.397 34.7 103.51 34.5879C103.624 34.4759 103.701 34.3332 103.733 34.1778C103.764 34.0224 103.748 33.8613 103.686 33.7149C103.625 33.5685 103.521 33.4434 103.387 33.3554C103.253 33.2674 103.096 33.2204 102.936 33.2204C102.72 33.2204 102.513 33.3048 102.361 33.455C102.209 33.6053 102.123 33.809 102.123 34.0215Z" fill="#6D3A31"/>
<path d="M72.2604 90.113C77.0059 91.4829 82.434 102.345 87.2689 103.539C88.4837 103.882 89.7587 103.968 91.0095 103.79C92.2603 103.611 93.4586 103.174 94.5253 102.506C94.5253 102.506 92.0387 107.008 87.0738 105.838C79.4436 103.996 77.8185 95.8007 72.8536 93.6458C70.0095 92.4041 72.2604 90.113 72.2604 90.113Z" fill="#F7D6D0"/>
<path d="M87.0736 105.798C88.2157 106.082 89.4149 106.05 90.54 105.707C91.6651 105.363 92.6726 104.722 93.4524 103.852C91.3549 105.024 88.8724 105.332 86.5455 104.709C81.7106 103.515 76.3069 92.6925 71.537 91.2826C71.2689 92.0356 71.342 92.9889 72.8534 93.6858C77.8183 95.8007 79.4435 103.996 87.0736 105.798Z" fill="#E5BABA"/>
<path d="M37.8066 101.152C37.8066 101.152 41.5933 106.407 42.1133 107.953C42.6334 109.499 44.3398 119.689 44.2342 120.578C44.1286 121.467 43.186 125 43.186 125H44.8111L46.4769 120.578C46.4769 120.578 46.6313 107.064 46.7045 106.407C46.7776 105.75 44.9086 99.758 44.9086 99.758L37.8066 101.152Z" fill="#E5BABA"/>
<path d="M61.5664 94.4148C62.9641 95.1037 63.5247 104.124 64.9224 106.046C66.32 107.969 72.5851 110.853 73.4221 111.654C74.259 112.455 67.8477 119.072 67.9858 121.956L70.2123 121.547C72.3007 117.766 77.3225 111.518 77.3225 111.518C77.3225 111.518 75.0228 108.362 73.2108 105.75C71.3987 103.139 69.8629 96.9382 69.8629 96.9382L61.5664 94.4148Z" fill="#E5BABA"/>
<path d="M72.3002 90.113C75.6481 91.7633 73.5922 97.8034 76.932 104.813C78.0533 107.144 82.3682 110.581 82.3682 110.581L82.5795 125H80.4911C80.4911 125 79.6785 113.673 78.8172 111.814C77.9558 109.956 69.6187 109.347 67.5303 105.838C65.442 102.329 64.1662 97.6272 62.9149 97.0263C61.6635 96.4255 72.3002 90.113 72.3002 90.113Z" fill="#F7D6D0"/>
<path d="M39.6268 98.0437C39.6268 98.0437 39.7081 105.718 39.2287 106.295C38.7492 106.872 31.1922 113.384 30.6884 113.961C30.1846 114.538 32.5573 120.61 32.5573 120.61L33.955 119.929C33.955 119.929 33.2074 116.46 33.5243 115.307C33.8412 114.153 42.9747 109.94 43.6004 108.594C44.2261 107.248 46.9401 101.112 46.9401 101.112L39.6268 98.0437Z" fill="#F7D6D0"/>
<path d="M72.3005 90.113C68.1238 87.846 49.7838 90.041 45.0626 88.2626C41.2922 86.8366 39.6833 76.4787 37.5625 75.1569C35.6854 73.9873 32.6869 74.8765 31.4681 75.2851C30.8749 75.4773 30.5498 76.5428 29.8429 76.8872C27.7789 77.9607 25.78 78.169 25.2599 78.7057C24.7399 79.2424 25.8531 81.4454 27.1045 81.91C29.7779 82.8553 33.1339 82.0702 33.7271 83.7284C35.3522 88.2786 35.8967 98.2921 37.1399 100.391C38.6026 102.866 46.8259 104.893 49.6294 104.396C54.4318 103.595 58.4459 99.4376 62.2488 99.726C65.6698 99.9903 74.2101 103.371 75.4615 102.93C75.4696 102.954 73.8688 90.9622 72.3005 90.113Z" fill="#F7D6D0"/>
<path d="M36.7014 83.0395C38.5054 83.8406 41.4226 78.7297 40.6669 77.1756C40.4637 76.4947 36.9046 74.5801 36.2626 75.1649C35.3363 76.0141 35.8157 82.663 36.7014 83.0395Z" fill="#42464B"/>
<path d="M25 78.6096C25 78.4253 26.5277 78.217 26.5277 78.217C26.5764 78.8579 25.7151 79.2665 25.5526 79.8833C25.5066 80.0891 25.5235 80.3038 25.6013 80.5001C25.245 79.9288 25.0384 79.2791 25 78.6096V78.6096Z" fill="#42464B"/>
<path d="M32.3779 77.2077C32.126 77.5842 31.736 77.7764 31.5084 77.6242C31.2809 77.472 31.289 77.0555 31.5084 76.671C31.7278 76.2864 32.1422 76.1022 32.3779 76.2464C32.6135 76.3906 32.6298 76.8232 32.3779 77.2077Z" fill="#42464B"/>
<path d="M43.3156 108.45C42.4136 109.635 33.3208 114.057 33.0039 115.163C32.7357 116.164 33.3208 119.336 33.4833 120.178L33.9871 119.929C33.9871 119.929 33.2395 116.461 33.5564 115.307C33.8734 114.153 43.0068 109.94 43.6325 108.594C43.7788 108.29 44.0307 107.729 44.3313 107.048C43.925 107.625 43.5675 108.113 43.3156 108.45Z" fill="#E5BABA"/>
<path d="M79.7437 111.374C78.8255 109.563 70.3339 109.018 67.9856 105.678C66.7629 103.99 65.7174 102.183 64.8652 100.287C65.6035 102.204 66.4948 104.06 67.5305 105.838C69.6189 109.347 77.9804 109.964 78.8173 111.814C79.6543 113.665 80.4913 125 80.4913 125H81.182C81.0682 123.134 80.9219 113.721 79.7437 111.374Z" fill="#E5BABA"/>
<path d="M33.7349 83.7124C35.0919 87.5015 35.6932 95.0877 36.5708 98.7246C35.4413 93.1171 35.1894 82.0862 34.9456 81.8459C34.9456 81.8459 29.2575 82.3826 27.1123 81.8939C29.7857 82.8392 33.1254 82.0542 33.7349 83.7124Z" fill="#E5BABA"/>
<path d="M43.08 93.1251C43.5961 93.1251 44.0145 92.623 44.0145 92.0036C44.0145 91.3842 43.5961 90.8821 43.08 90.8821C42.5639 90.8821 42.1455 91.3842 42.1455 92.0036C42.1455 92.623 42.5639 93.1251 43.08 93.1251Z" fill="#42464B"/>
<path d="M45.721 90.2012C45.6563 90.2012 45.5922 90.2139 45.5325 90.2385C45.4729 90.2632 45.4187 90.2993 45.3734 90.3448C45.328 90.3903 45.2922 90.4442 45.2682 90.5034C45.2442 90.5627 45.2324 90.626 45.2335 90.6898C45.2335 90.7868 45.2628 90.8816 45.3176 90.9621C45.3724 91.0427 45.4503 91.1053 45.5414 91.142C45.6324 91.1788 45.7325 91.1879 45.8289 91.1684C45.9252 91.1489 46.0135 91.1016 46.0825 91.0324C46.1515 90.9633 46.1981 90.8755 46.2163 90.7802C46.2345 90.6848 46.2235 90.5864 46.1847 90.4972C46.146 90.4081 46.0812 90.3323 45.9986 90.2796C45.916 90.2269 45.8194 90.1996 45.721 90.2012Z" fill="#42464B"/>
<path d="M48.6458 98.5644C48.4739 98.5565 48.3036 98.6 48.1572 98.6893C48.0108 98.7786 47.8952 98.9095 47.8257 99.0647C47.7561 99.22 47.7358 99.3923 47.7674 99.5591C47.7991 99.7259 47.8811 99.8794 48.0028 99.9994C48.1245 100.119 48.2802 100.2 48.4494 100.231C48.6186 100.263 48.7935 100.243 48.9509 100.174C49.1084 100.105 49.2411 99.9915 49.3317 99.8472C49.4223 99.7029 49.4664 99.535 49.4584 99.3655C49.4584 99.153 49.3728 98.9493 49.2204 98.799C49.068 98.6488 48.8614 98.5644 48.6458 98.5644Z" fill="#42464B"/>
<path d="M52.8882 96.2333C52.6326 96.2973 52.4059 96.4436 52.244 96.6489C52.082 96.8541 51.9941 97.1068 51.9941 97.3668C51.9941 97.6268 52.082 97.8795 52.244 98.0848C52.4059 98.29 52.6326 98.4363 52.8882 98.5003C53.1439 98.4363 53.3706 98.29 53.5325 98.0848C53.6944 97.8795 53.7823 97.6268 53.7823 97.3668C53.7823 97.1068 53.6944 96.8541 53.5325 96.6489C53.3706 96.4436 53.1439 96.2973 52.8882 96.2333Z" fill="#42464B"/>
<path d="M56.2116 94.4229C56.4315 94.4229 56.6098 94.2471 56.6098 94.0303C56.6098 93.8136 56.4315 93.6378 56.2116 93.6378C55.9917 93.6378 55.8135 93.8136 55.8135 94.0303C55.8135 94.2471 55.9917 94.4229 56.2116 94.4229Z" fill="#42464B"/>
<path d="M53.7411 90.2012C53.5374 90.2198 53.3435 90.2963 53.1831 90.4215C53.0227 90.5466 52.9025 90.715 52.8373 90.9062C52.7721 91.0973 52.7646 91.303 52.8157 91.4983C52.8668 91.6936 52.9744 91.8701 53.1253 92.0063C53.2762 92.1424 53.4639 92.2325 53.6658 92.2655C53.8676 92.2985 54.0748 92.273 54.2622 92.1921C54.4496 92.1113 54.6092 91.9785 54.7215 91.8099C54.8338 91.6414 54.8941 91.4443 54.8949 91.2426C54.8887 91.0995 54.8538 90.959 54.7924 90.8291C54.731 90.6993 54.6443 90.5827 54.5371 90.486C54.4299 90.3892 54.3044 90.3143 54.1678 90.2654C54.0313 90.2166 53.8862 90.1947 53.7411 90.2012Z" fill="#42464B"/>
<path d="M62.1593 96.4255C62.0436 96.4318 61.9323 96.4713 61.8391 96.5393C61.7459 96.6072 61.6749 96.7006 61.635 96.8078C61.595 96.9151 61.5878 97.0315 61.6143 97.1428C61.6407 97.254 61.6996 97.3552 61.7837 97.4338C61.8678 97.5124 61.9734 97.565 62.0875 97.5851C62.2016 97.6052 62.3192 97.5919 62.4257 97.5469C62.5322 97.5018 62.623 97.427 62.6869 97.3316C62.7507 97.2363 62.7848 97.1246 62.785 97.0103C62.784 96.9311 62.7669 96.8529 62.7346 96.7803C62.7024 96.7077 62.6558 96.6422 62.5974 96.5876C62.5391 96.5331 62.4703 96.4907 62.395 96.4629C62.3198 96.435 62.2396 96.4223 62.1593 96.4255Z" fill="#42464B"/>
<path d="M63.7034 91.4348C63.4719 91.4473 63.2493 91.5264 63.0629 91.6623C62.8766 91.7982 62.7347 91.9849 62.6548 92.1994C62.5748 92.4139 62.5604 92.6468 62.6133 92.8693C62.6661 93.0918 62.784 93.2942 62.9522 93.4514C63.1204 93.6086 63.3316 93.7138 63.5598 93.754C63.788 93.7942 64.0231 93.7676 64.2362 93.6775C64.4492 93.5874 64.6308 93.4377 64.7585 93.247C64.8862 93.0563 64.9544 92.8329 64.9548 92.6044C64.9506 92.4466 64.9149 92.2911 64.8497 92.1469C64.7845 92.0027 64.6911 91.8726 64.5749 91.764C64.4587 91.6554 64.3219 91.5704 64.1724 91.5139C64.0228 91.4574 63.8635 91.4306 63.7034 91.4348Z" fill="#42464B"/>
<path d="M67.1896 91.6271C67.3613 91.6085 67.5239 91.5413 67.6577 91.4335C67.7914 91.3258 67.8907 91.1821 67.9433 91.0199C67.996 90.8578 67.9999 90.684 67.9545 90.5197C67.9091 90.3554 67.8164 90.2075 67.6876 90.0941C67.5588 89.9806 67.3994 89.9064 67.2287 89.8803C67.058 89.8543 66.8832 89.8776 66.7257 89.9474C66.5681 90.0172 66.4344 90.1306 66.3408 90.2737C66.2472 90.4168 66.1977 90.5836 66.1982 90.7539C66.2045 90.8757 66.2351 90.995 66.2885 91.105C66.3418 91.215 66.4167 91.3134 66.5089 91.3946C66.6012 91.4758 66.7088 91.5382 66.8256 91.5781C66.9425 91.618 67.0662 91.6347 67.1896 91.6271Z" fill="#42464B"/>
<path d="M67.2542 98.0437C67.0437 98.0358 66.8357 98.09 66.6567 98.1994C66.4777 98.3089 66.336 98.4686 66.2498 98.6581C66.1636 98.8475 66.1368 99.0581 66.1728 99.2626C66.2089 99.4672 66.3061 99.6565 66.4521 99.8062C66.5981 99.9558 66.7862 100.059 66.9921 100.103C67.198 100.146 67.4125 100.128 67.6079 100.05C67.8033 99.973 67.9707 99.8397 68.0887 99.6677C68.2067 99.4956 68.2698 99.2928 68.27 99.0851C68.2743 98.8145 68.17 98.5532 67.9797 98.3581C67.7894 98.1631 67.5287 98.05 67.2542 98.0437Z" fill="#42464B"/>
<path d="M72.6741 94.9355C72.5115 94.9242 72.3492 94.9615 72.2083 95.0424C72.0674 95.1233 71.9544 95.2441 71.8841 95.3892C71.8138 95.5342 71.7894 95.6967 71.814 95.8556C71.8386 96.0145 71.9112 96.1624 72.0222 96.2801C72.1333 96.3979 72.2777 96.4799 72.4367 96.5156C72.5956 96.5514 72.7618 96.5391 72.9136 96.4805C73.0655 96.4219 73.1959 96.3196 73.2879 96.1869C73.38 96.0542 73.4295 95.8973 73.4299 95.7366C73.4304 95.5335 73.3526 95.3378 73.2123 95.1891C73.072 95.0403 72.8797 94.9497 72.6741 94.9355Z" fill="#42464B"/>
<path d="M71.8534 94.2226C71.9844 94.2292 72.1129 94.1852 72.2115 94.1C72.3102 94.0147 72.3712 93.8949 72.3816 93.7659C72.3597 93.6435 72.2948 93.5326 72.1982 93.4527C72.1016 93.3727 71.9795 93.3289 71.8534 93.3289C71.7273 93.3289 71.6052 93.3727 71.5086 93.4527C71.412 93.5326 71.3471 93.6435 71.3252 93.7659C71.3356 93.8949 71.3966 94.0147 71.4952 94.1C71.5939 94.1852 71.7224 94.2292 71.8534 94.2226Z" fill="#42464B"/>
<path d="M71.1309 105.566C70.9702 105.566 70.8131 105.613 70.6795 105.701C70.5459 105.789 70.4417 105.914 70.3802 106.06C70.3187 106.207 70.3026 106.368 70.334 106.523C70.3653 106.679 70.4427 106.821 70.5564 106.933C70.67 107.045 70.8148 107.122 70.9724 107.153C71.13 107.184 71.2934 107.168 71.4419 107.107C71.5904 107.046 71.7173 106.944 71.8066 106.812C71.8959 106.68 71.9435 106.525 71.9435 106.367C71.9435 106.154 71.8579 105.951 71.7055 105.8C71.5531 105.65 71.3465 105.566 71.1309 105.566Z" fill="#42464B"/>
<path d="M76.4854 107.376C76.6259 107.361 76.7588 107.306 76.8681 107.217C76.9773 107.129 77.0583 107.011 77.1011 106.878C77.1439 106.746 77.1468 106.603 77.1094 106.469C77.072 106.335 76.996 106.214 76.8904 106.121C76.7848 106.029 76.6543 105.968 76.5146 105.947C76.3749 105.926 76.232 105.945 76.1032 106.003C75.9743 106.06 75.8652 106.153 75.7888 106.27C75.7124 106.387 75.6722 106.524 75.6729 106.663C75.695 106.86 75.7902 107.042 75.9403 107.174C76.0903 107.305 76.2846 107.377 76.4854 107.376Z" fill="#42464B"/>
<path d="M80.6294 112.687C80.8069 112.702 80.9848 112.663 81.1397 112.577C81.2947 112.49 81.4195 112.359 81.4979 112.201C81.5763 112.044 81.6046 111.866 81.5791 111.692C81.5537 111.519 81.4756 111.356 81.3552 111.227C81.2347 111.097 81.0775 111.007 80.904 110.967C80.7305 110.927 80.5488 110.94 80.3826 111.003C80.2165 111.066 80.0736 111.178 79.9727 111.322C79.8717 111.467 79.8174 111.639 79.8168 111.814C79.8066 111.925 79.8201 112.037 79.8563 112.143C79.8926 112.249 79.9508 112.346 80.0273 112.428C80.1038 112.51 80.1969 112.576 80.3005 112.62C80.4042 112.665 80.5162 112.688 80.6294 112.687Z" fill="#42464B"/>
<path d="M81.3206 118.655C81.3499 118.307 81.2381 117.962 81.0097 117.695C80.7813 117.427 80.4548 117.26 80.1017 117.23C79.9885 117.232 79.8762 117.251 79.7686 117.286C79.8742 118.215 79.9717 119.168 80.0611 120.073C80.2384 120.062 80.4116 120.017 80.571 119.939C80.7303 119.862 80.8726 119.754 80.9897 119.622C81.1067 119.491 81.1962 119.337 81.253 119.171C81.3097 119.006 81.3327 118.83 81.3206 118.655Z" fill="#42464B"/>
<path d="M81.9788 122.669C81.9743 122.834 82.03 122.995 82.1359 123.123C82.2418 123.251 82.3908 123.337 82.5557 123.366V121.98C82.3922 122.008 82.2443 122.093 82.1386 122.22C82.0329 122.346 81.9762 122.505 81.9788 122.669Z" fill="#42464B"/>
<path d="M39.838 100.703C40.2733 100.703 40.6262 100.298 40.6262 99.798C40.6262 99.2981 40.2733 98.8928 39.838 98.8928C39.4027 98.8928 39.0498 99.2981 39.0498 99.798C39.0498 100.298 39.4027 100.703 39.838 100.703Z" fill="#42464B"/>
<path d="M38.0018 96.6819C37.8381 96.6574 37.6708 96.6828 37.5222 96.7547C37.3736 96.8265 37.2507 96.9414 37.1702 97.084C37.0896 97.2265 37.0551 97.3899 37.0713 97.5523C37.0875 97.7147 37.1536 97.8684 37.2608 97.9927C37.368 98.1171 37.5112 98.2062 37.6712 98.2481C37.8312 98.29 38.0003 98.2828 38.156 98.2274C38.3117 98.1719 38.4465 98.0709 38.5424 97.9379C38.6382 97.8049 38.6906 97.6462 38.6925 97.483C38.7014 97.3855 38.6905 97.2873 38.6605 97.194C38.6304 97.1007 38.5818 97.0142 38.5175 96.9397C38.4532 96.8651 38.3745 96.8039 38.286 96.7596C38.1974 96.7154 38.1008 96.689 38.0018 96.6819Z" fill="#42464B"/>
<path d="M37.8067 92.276C37.9 92.289 37.995 92.2737 38.0792 92.2321C38.1634 92.1905 38.2328 92.1245 38.278 92.0431C38.3232 91.9616 38.3422 91.8685 38.3323 91.7762C38.3225 91.6838 38.2843 91.5966 38.2229 91.5262C38.1615 91.4558 38.0798 91.4055 37.9887 91.3821C37.8975 91.3586 37.8013 91.3631 37.7128 91.3949C37.6244 91.4268 37.5478 91.4845 37.4935 91.5603C37.4391 91.6361 37.4095 91.7265 37.4085 91.8194C37.4041 91.8751 37.4109 91.9312 37.4285 91.9844C37.4462 92.0376 37.4743 92.0868 37.5113 92.1293C37.5483 92.1717 37.5935 92.2065 37.6442 92.2317C37.6949 92.2569 37.7501 92.2719 37.8067 92.276Z" fill="#42464B"/>
<path d="M40.4389 85.2745C40.2873 85.2616 40.1353 85.2941 40.0028 85.3677C39.8703 85.4413 39.7634 85.5527 39.6961 85.6872C39.6288 85.8217 39.6043 85.9731 39.6257 86.1215C39.6471 86.27 39.7134 86.4087 39.8161 86.5193C39.9187 86.63 40.0528 86.7076 40.2009 86.742C40.349 86.7763 40.5041 86.7658 40.646 86.7117C40.7879 86.6577 40.91 86.5628 40.9963 86.4393C41.0826 86.3158 41.129 86.1695 41.1296 86.0195C41.1339 85.9258 41.1195 85.8323 41.0872 85.7441C41.0548 85.656 41.0051 85.575 40.941 85.5058C40.8768 85.4366 40.7994 85.3805 40.7133 85.3408C40.6271 85.3012 40.5339 85.2786 40.4389 85.2745Z" fill="#42464B"/>
<path d="M36.4896 84.7618C36.3877 84.7385 36.2809 84.7471 36.1841 84.7864C36.0873 84.8257 36.0053 84.8937 35.9495 84.9811C35.8938 85.0684 35.867 85.1707 35.8729 85.2737C35.8788 85.3767 35.9171 85.4754 35.9825 85.556C36.0479 85.6365 36.1371 85.695 36.2377 85.7233C36.3384 85.7516 36.4455 85.7483 36.5442 85.7138C36.6428 85.6794 36.7281 85.6155 36.7883 85.531C36.8484 85.4465 36.8803 85.3457 36.8797 85.2425C36.8911 85.128 36.8568 85.0137 36.7839 84.9239C36.711 84.8341 36.6054 84.7759 36.4896 84.7618Z" fill="#42464B"/>
<path d="M44.144 104.717C43.8368 104.784 43.562 104.952 43.365 105.194C43.1679 105.435 43.0605 105.736 43.0605 106.046C43.0605 106.357 43.1679 106.657 43.365 106.899C43.562 107.141 43.8368 107.309 44.144 107.376H44.1847L45.0785 105.382C45.0031 105.195 44.8751 105.033 44.7096 104.915C44.544 104.797 44.3478 104.728 44.144 104.717Z" fill="#42464B"/>
<path d="M39.7076 107.697C39.5443 107.679 39.3793 107.71 39.2345 107.787C39.0897 107.863 38.9717 107.981 38.8963 108.125C38.8209 108.269 38.7915 108.432 38.812 108.593C38.8325 108.754 38.902 108.904 39.0113 109.025C39.1205 109.146 39.2644 109.232 39.4239 109.271C39.5835 109.309 39.7512 109.3 39.905 109.242C40.0587 109.185 40.1913 109.084 40.2852 108.951C40.379 108.818 40.4298 108.66 40.4308 108.498C40.4374 108.398 40.4239 108.298 40.391 108.204C40.3581 108.11 40.3065 108.023 40.2392 107.948C40.1719 107.874 40.0903 107.813 39.999 107.77C39.9078 107.727 39.8087 107.702 39.7076 107.697Z" fill="#42464B"/>
<path d="M35.7989 112.367C35.4495 112.367 35.1732 112.76 35.1732 113.24C35.1677 113.456 35.2301 113.669 35.352 113.849C35.677 113.641 36.0345 113.432 36.4164 113.208C36.3758 112.744 36.132 112.367 35.7989 112.367Z" fill="#42464B"/>
<path d="M31.5575 114.378C31.773 114.378 31.9797 114.293 32.1321 114.143C32.2845 113.993 32.3701 113.789 32.3701 113.577C32.3718 113.433 32.336 113.291 32.2663 113.165C32.1966 113.039 32.0953 112.932 31.972 112.856C31.4356 113.336 31.0375 113.657 30.8506 113.889C30.9099 114.028 31.0077 114.147 31.1328 114.234C31.2578 114.32 31.405 114.37 31.5575 114.378Z" fill="#42464B"/>
<path d="M32.7442 118.167C32.714 117.967 32.6086 117.786 32.4489 117.66C32.2892 117.534 32.0871 117.472 31.8829 117.486C31.7514 117.487 31.6215 117.514 31.501 117.566C31.6472 118.015 31.7935 118.439 31.9398 118.84C32.1332 118.84 32.3204 118.773 32.4678 118.649C32.6153 118.526 32.7133 118.355 32.7442 118.167Z" fill="#42464B"/>
<path d="M78.6307 96.8982C78.7899 96.8969 78.9465 96.8586 79.0878 96.7862C79.229 96.7137 79.3509 96.6094 79.4433 96.4816C78.8664 95.8007 78.2894 95.1198 77.7206 94.4709C77.5659 94.7215 77.4714 95.0038 77.4443 95.296C77.4443 96.1852 77.9563 96.8982 78.6307 96.8982Z" fill="#42464B"/>
<path d="M83.1243 101.544C83.2326 101.539 83.3379 101.507 83.4303 101.451C83.5226 101.395 83.5991 101.317 83.6525 101.224C83.295 100.888 82.9374 100.527 82.588 100.151C82.4922 100.308 82.4416 100.488 82.4417 100.671C82.4205 100.875 82.4795 101.08 82.6064 101.242C82.7334 101.404 82.9188 101.513 83.1243 101.544Z" fill="#42464B"/>
<path d="M86.2206 104.845C86.0725 104.849 85.9283 104.893 85.8037 104.972C85.6791 105.051 85.5788 105.162 85.5137 105.293C86.0211 105.497 86.5424 105.666 87.0738 105.798C87.072 105.565 86.9847 105.339 86.8279 105.164C86.6711 104.989 86.4555 104.876 86.2206 104.845Z" fill="#42464B"/>
<path d="M89.7391 104.332C89.8689 104.319 89.9898 104.261 90.0805 104.169C90.1712 104.077 90.2259 103.956 90.2348 103.828C89.9179 103.828 89.5766 103.828 89.2354 103.828C89.2445 103.957 89.3004 104.079 89.3927 104.172C89.4851 104.264 89.6079 104.321 89.7391 104.332Z" fill="#42464B"/>
<path d="M93.4843 103.819C93.8788 103.421 94.2276 102.98 94.5244 102.506C94.0553 102.837 93.5445 103.106 93.0049 103.307C93.0448 103.42 93.1079 103.524 93.1904 103.612C93.2729 103.701 93.3729 103.771 93.4843 103.819Z" fill="#42464B"/>
<path d="M45.9403 110.42C45.6764 110.47 45.4383 110.609 45.267 110.813C45.0957 111.017 45.002 111.273 45.002 111.538C45.002 111.803 45.0957 112.059 45.267 112.263C45.4383 112.467 45.6764 112.606 45.9403 112.655C46.0664 112.655 46.1908 112.626 46.3037 112.571C46.4165 112.515 46.5146 112.434 46.5903 112.335C46.5903 111.806 46.5903 111.277 46.5903 110.733C46.5118 110.637 46.4129 110.559 46.3005 110.505C46.1882 110.451 46.0652 110.422 45.9403 110.42Z" fill="#42464B"/>
<path d="M44.9001 115.579C45.12 115.579 45.2983 115.361 45.2983 115.091C45.2983 114.821 45.12 114.602 44.9001 114.602C44.6802 114.602 44.502 114.821 44.502 115.091C44.502 115.361 44.6802 115.579 44.9001 115.579Z" fill="#42464B"/>
<path d="M45.1033 120.386C45.1033 119.873 44.7946 119.465 44.4126 119.465C44.3247 119.466 44.2383 119.488 44.1607 119.529C44.2143 119.876 44.2387 120.227 44.2339 120.578C44.2339 120.722 44.177 120.955 44.1201 121.219C44.2069 121.276 44.3085 121.306 44.4126 121.307C44.7946 121.307 45.1033 120.931 45.1033 120.386Z" fill="#42464B"/>
<path d="M70.9353 119.08C71.1552 119.08 71.3334 118.861 71.3334 118.591C71.3334 118.322 71.1552 118.103 70.9353 118.103C70.7154 118.103 70.5371 118.322 70.5371 118.591C70.5371 118.861 70.7154 119.08 70.9353 119.08Z" fill="#42464B"/>
<path d="M72.2685 115.868C72.6748 115.868 73.008 115.411 73.008 114.842C73.019 114.653 72.978 114.465 72.8893 114.297C72.8006 114.129 72.6675 113.988 72.5042 113.889C72.2279 114.306 71.9191 114.754 71.5859 115.227C71.618 115.39 71.701 115.54 71.8233 115.655C71.9457 115.77 72.1013 115.844 72.2685 115.868Z" fill="#42464B"/>
<path d="M75.275 112.655C75.0081 112.691 74.766 112.829 74.6005 113.038C74.435 113.248 74.3592 113.513 74.3893 113.777C74.3818 113.967 74.4215 114.156 74.5051 114.328C74.5886 114.5 74.7134 114.649 74.8687 114.762C75.2912 114.193 75.6813 113.673 76.0388 113.224C75.9801 113.067 75.877 112.93 75.7415 112.829C75.6061 112.728 75.4442 112.668 75.275 112.655Z" fill="#42464B"/>
<path d="M69.5056 108.281C69.2131 108.281 68.9774 108.578 68.9043 108.978C69.2943 109.211 69.7169 109.443 70.0826 109.659C70.1258 109.53 70.1477 109.395 70.1476 109.259C70.1476 108.722 69.855 108.281 69.5056 108.281Z" fill="#42464B"/>
<path d="M65.7101 103.956C65.7496 103.602 65.6478 103.247 65.4264 102.966C65.2049 102.685 64.8812 102.5 64.5237 102.45C64.2767 102.456 64.0403 102.55 63.8574 102.714C64.0484 103.648 64.3203 104.565 64.67 105.454C64.9937 105.363 65.2751 105.164 65.4651 104.89C65.6551 104.617 65.7418 104.286 65.7101 103.956Z" fill="#42464B"/>
<path d="M46.9807 88.4868C46.9807 88.4868 45.4855 97.0664 46.2575 104.324L47.9395 104.524C47.9395 104.524 46.8913 95.6485 48.7115 88.7191L46.9807 88.4868Z" fill="#FF7F1F"/>
<path d="M46.9801 88.4868C42.8787 90.6221 39.2034 93.4718 36.132 96.8982L35.8232 95.0877C35.8232 95.0877 40.0162 90.105 45.3143 88.0863L46.9801 88.4868Z" fill="#FF7F1F"/>
<path d="M45.3145 88.0863L48.7436 88.7111C48.7436 88.7111 46.3302 89.6885 45.3145 88.0863Z" fill="#FF7F1F"/>
<path d="M37.9116 92.8928C37.1754 93.561 36.4782 94.2697 35.8232 95.0156L36.132 96.8981C36.9446 95.9609 37.8385 95.1117 38.6917 94.3347C38.4012 93.8707 38.1406 93.3891 37.9116 92.8928Z" fill="#F76319"/>
<path d="M46.0381 100.102C46.0381 101.52 46.1112 102.962 46.2575 104.356L47.9395 104.556C47.9395 104.556 47.7608 103.002 47.6795 100.687C47.1026 100.471 46.5581 100.279 46.0381 100.102Z" fill="#F76319"/>
<path d="M101.545 71.1034L97.5313 70.6068C97.5313 70.6068 96.7187 72.2089 98.3439 72.5213C101.456 73.0741 101.545 71.1034 101.545 71.1034Z" fill="#FF7878"/>
<path d="M111.337 71.1034L116.651 70.3985C116.651 70.3985 117.578 71.9125 114.506 72.5214C111.434 73.1302 111.337 71.1034 111.337 71.1034Z" fill="#FF7878"/>
<path d="M114.304 70.8071C114.392 71.375 114.449 71.9473 114.474 72.5214C115.978 72.217 116.522 71.7203 116.685 71.2557C116.685 70.9673 116.685 70.6869 116.62 70.3985L114.255 70.7189C114.267 70.7501 114.284 70.7797 114.304 70.8071Z" fill="#ED6262"/>
<path d="M117.253 75.269C117.052 75.5866 116.894 75.9286 116.782 76.2864C116.66 76.743 116.473 77.6482 116.368 77.9847C116.262 78.3212 116.23 78.4093 116.262 78.4573C116.295 78.5054 116.587 78.6015 116.75 78.1049C116.912 77.6082 117.099 76.8151 117.099 76.8151L117.253 75.269Z" fill="#ED9558"/>
<path d="M118.448 75.5414C118.661 76.5404 118.778 77.5569 118.797 78.5775C118.797 79.9954 118.683 80.1796 118.537 80.1796C118.391 80.1796 118.391 79.8672 118.423 79.3786C118.409 79.1299 118.371 78.8832 118.31 78.6416C118.258 78.9405 118.236 79.2437 118.245 79.5468C118.245 79.691 118.245 80.6603 118.001 80.6523C117.757 80.6443 117.806 79.9473 117.822 79.5708C117.813 79.2552 117.773 78.9411 117.7 78.6336C117.642 78.956 117.617 79.2835 117.627 79.6109C117.627 79.7551 117.627 80.7885 117.399 80.7885C117.172 80.7885 117.131 80.5321 117.164 79.6509C117.196 79.2992 117.196 78.9453 117.164 78.5935C116.977 78.5935 117.099 80.404 116.774 80.3959C116.611 80.3959 116.603 79.9714 116.627 79.4427C116.627 79.0732 116.649 78.7041 116.692 78.3372C116.81 77.36 116.978 76.3894 117.196 75.4292C117.382 75.2912 117.613 75.2263 117.844 75.247C118.075 75.2677 118.291 75.3727 118.448 75.5414Z" fill="#FFB476"/>
<path d="M117.18 75.4373L116.985 73.5627L118.497 73.731L118.432 75.7176L117.18 75.4373Z" fill="#FFB476"/>
<path d="M114.457 45.2767C114.457 45.2767 116.724 45.7733 117.764 59.6961C117.764 59.6961 118.423 62.4919 118.764 64.7589C119.227 67.803 118.853 74.7644 118.853 74.7644L116.724 74.9566C116.724 74.9566 115.18 67.8591 114.807 65.3437C114.612 64.0299 114.189 60.4571 114.189 60.4571C113.679 57.3718 112.701 54.3796 111.288 51.5812C111.402 50.1392 114.457 45.2767 114.457 45.2767Z" fill="#D0333B"/>
<path d="M118.765 64.7749C118.423 62.5079 117.765 59.7121 117.765 59.7121C117.075 50.4837 115.937 47.4796 115.141 46.0938C115.783 48.2006 116.506 51.7654 117.091 59.7121C117.091 59.7121 117.757 62.5079 118.098 64.7749C118.553 67.819 117.895 74.8845 117.895 74.8845L118.854 74.7804C118.854 74.7804 119.26 67.819 118.765 64.7749Z" fill="#BF1F2D"/>
</g>
<defs>
<clipPath id="clip0">
<rect x="25" y="24" width="94" height="101" fill="white"/>
</clipPath>
</defs>
</svg>
