<svg width="17" height="15" viewBox="0 0 17 15" fill="none" xmlns="http://www.w3.org/2000/svg">
<path d="M8.2037 14.8981L8.03704 14.787C7.72222 14.5833 0 9.63889 0 4.93519C0 2.76852 0.925926 1.12037 2.51852 0.398151C4.2037 -0.361109 6.35185 0.0833358 8.18519 1.58334C9.77778 0.0833358 11.8333 -0.398146 13.6111 0.342595C15.3519 1.06482 16.3889 2.78704 16.3889 4.95371C16.3889 9.65741 8.66667 14.6019 8.35185 14.8241L8.2037 14.8981ZM4.27778 0.601854C3.74074 0.601854 3.24074 0.712965 2.77778 0.916669C1.38889 1.5463 0.592593 3.00926 0.592593 4.93519C0.592593 8.95371 7.09259 13.4537 8.2037 14.1944C9.31482 13.4537 15.8148 8.95371 15.8148 4.93519C15.8148 3.00926 14.9074 1.49074 13.3889 0.861113C11.7593 0.194447 9.85185 0.694447 8.40741 2.15741L8.22222 2.37963L8.01852 2.19445C6.83333 1.15741 5.5 0.601854 4.27778 0.601854Z" fill="#003072"/>
</svg>
