<svg width="150" height="150" viewBox="0 0 150 150" fill="none" xmlns="http://www.w3.org/2000/svg">
<circle cx="75" cy="75" r="74.5" fill="white" stroke="#CCCCCC"/>
<g clip-path="url(#clip0)">
<path d="M48.8298 87.5199L52.3798 81.5699C49.3798 77.0599 44.4598 67.2999 44.4598 67.2999C44.4598 67.2999 43.8298 61.6599 43.8098 59.8899C43.7298 53.9999 38.9998 52.4299 37.9398 52.3799C36.1898 52.2999 36.5098 54.8299 36.5098 54.8299V71.1599C36.6898 75.5599 40.2098 84.1599 42.7698 89.5399C44.9998 89.8799 46.7598 88.8299 48.8298 87.5199Z" fill="#E0AB7E"/>
<path d="M63.9998 63.86C60.9398 62.64 52.1098 59.78 50.6398 63.41C49.4198 66.41 47.2798 73.12 47.2798 73.12L45.0898 81.9C45.0898 81.9 47.6098 94.3 50.9998 95.77C53.5303 97.0192 56.2567 97.8242 59.0598 98.15C60.3098 98.24 62.0098 98.8 63.3998 98.31C65.7316 96.902 67.7855 95.0785 69.4598 92.93C71.3938 89.664 73.1562 86.2994 74.7398 82.85C76.067 80.0641 77.229 77.2024 78.2198 74.28C77.2998 71.4 76.2698 68.7 63.9998 63.86Z" fill="#E0AB7E"/>
<path d="M44.5213 85.3512L30.8091 119.817L52.6269 128.497L66.3391 94.0314L44.5213 85.3512Z" fill="#E0AB7E"/>
<path d="M65.6199 65.9199C65.2662 66.7999 64.5786 67.5042 63.7074 67.8789C62.8361 68.2536 61.852 68.2684 60.9699 67.9199C60.0882 67.5683 59.3822 66.881 59.0071 66.009C58.6321 65.137 58.6187 64.1518 58.9699 63.2699L69.9699 35.3699C70.3215 34.4882 71.0088 33.7822 71.8808 33.4071C72.7528 33.0321 73.738 33.0187 74.6199 33.3699C75.5016 33.7215 76.2076 34.4088 76.5827 35.2808C76.9577 36.1528 76.9711 37.138 76.6199 38.0199L65.6199 65.9199Z" fill="#E0AB7E"/>
<path d="M70.7102 73.7999C70.3587 74.6817 69.6713 75.3877 68.7993 75.7627C67.9273 76.1378 66.9421 76.1511 66.0602 75.7999C65.1785 75.4484 64.4725 74.761 64.0974 73.889C63.7224 73.017 63.709 72.0318 64.0602 71.1499L75.1002 43.2699C75.4518 42.3882 76.1391 41.6822 77.0111 41.3072C77.8831 40.9321 78.8684 40.9187 79.7502 41.2699C80.6319 41.6215 81.3379 42.3088 81.713 43.1808C82.088 44.0528 82.1014 45.0381 81.7502 45.9199L70.7102 73.7999Z" fill="#E0AB7E"/>
<path d="M75.0001 82.34C74.6728 83.1613 74.0332 83.8193 73.2215 84.1699C72.4099 84.5204 71.4923 84.5348 70.6701 84.21C69.8487 83.8827 69.1907 83.2431 68.8401 82.4314C68.4896 81.6198 68.4752 80.7022 68.8001 79.88L79.0901 53.88C79.251 53.4688 79.4919 53.0936 79.7987 52.7761C80.1056 52.4586 80.4724 52.2051 80.8778 52.0303C81.2833 51.8555 81.7194 51.7628 82.1609 51.7576C82.6024 51.7523 83.0406 51.8347 83.4501 52C84.2714 52.3272 84.9294 52.9668 85.28 53.7785C85.6305 54.5901 85.6449 55.5077 85.3201 56.33L75.0001 82.34Z" fill="#E0AB7E"/>
<path d="M57.2998 66.1299C57.1268 66.5662 56.8694 66.964 56.5425 67.3006C56.2155 67.6373 55.8254 67.9062 55.3945 68.092C54.9635 68.2777 54.5002 68.3767 54.0309 68.3832C53.5617 68.3897 53.0958 68.3037 52.6598 68.1299C51.7823 67.7762 51.0799 67.0902 50.7053 66.2213C50.3308 65.3524 50.3144 64.3708 50.6598 63.4899L61.6998 35.5999C61.8729 35.1637 62.1302 34.7659 62.4571 34.4292C62.7841 34.0926 63.1742 33.8237 63.6051 33.6379C64.0361 33.4521 64.4994 33.3532 64.9687 33.3467C65.4379 33.3401 65.9039 33.4262 66.3398 33.5999C67.2215 33.9515 67.9275 34.6388 68.3026 35.5108C68.6776 36.3828 68.691 37.3681 68.3398 38.2499L57.2998 66.1299Z" fill="#E0AB7E"/>
<path d="M103.58 84.51L99.4702 78.93C101.98 74.16 105.94 63.93 105.94 63.93C105.94 63.93 106 58.26 105.85 56.5C105.35 50.6 109.94 48.6 110.95 48.45C112.68 48.19 112.61 50.74 112.61 50.74L114.27 67C114.52 71.39 111.87 80.29 109.86 85.9C107.66 86.47 105.78 85.61 103.58 84.51Z" fill="#FBBF8D"/>
<path d="M86.11 62.46C89 61 97.54 57.23 99.36 60.7C100.88 63.57 103.66 70.03 103.66 70.03L106.75 78.55C106.75 78.55 105.47 91.13 102.21 92.94C99.8141 94.4329 97.1789 95.5018 94.42 96.1C93.18 96.31 91.55 97.04 90.12 96.69C87.6636 95.5129 85.4409 93.9002 83.56 91.93C81.3088 88.8736 79.2225 85.699 77.31 82.42C75.7159 79.7793 74.2768 77.048 73 74.24C73.66 71.27 74.41 68.49 86.11 62.46Z" fill="#FBBF8D"/>
<path d="M107.735 81.7889L86.8848 92.5415L103.871 125.48L124.722 114.727L107.735 81.7889Z" fill="#FBBF8D"/>
<path d="M84.7402 64.68C85.1775 65.5237 85.9315 66.1595 86.8369 66.4482C87.7423 66.7369 88.7252 66.6548 89.5702 66.22C89.9889 66.0044 90.3609 65.7084 90.665 65.3488C90.9691 64.9892 91.1993 64.5732 91.3424 64.1245C91.4854 63.6758 91.5386 63.2033 91.4987 62.7341C91.4589 62.2649 91.3268 61.8081 91.1102 61.39L77.3602 34.73C77.1456 34.3116 76.8505 33.9398 76.4918 33.6358C76.1332 33.3318 75.718 33.1016 75.2701 32.9585C74.8223 32.8154 74.3505 32.7622 73.8821 32.8019C73.4136 32.8417 72.9576 32.9735 72.5402 33.19C71.6998 33.6253 71.066 34.3757 70.7774 35.2771C70.4888 36.1785 70.5689 37.1575 71.0002 38L84.7402 64.68Z" fill="#FBBF8D"/>
<path d="M80.46 73C80.6755 73.4187 80.9716 73.7907 81.3311 74.0948C81.6907 74.3989 82.1067 74.6291 82.5554 74.7721C83.0041 74.9152 83.4766 74.9683 83.9458 74.9285C84.4151 74.8886 84.8718 74.7566 85.29 74.54C86.1312 74.1029 86.7647 73.3499 87.0516 72.4463C87.3384 71.5427 87.2551 70.5622 86.82 69.72L73.07 43.07C72.8553 42.6517 72.5603 42.2798 72.2019 41.9755C71.8434 41.6713 71.4286 41.4406 70.981 41.2966C70.5334 41.1527 70.0619 41.0983 69.5933 41.1367C69.1247 41.175 68.6682 41.3052 68.25 41.52C67.8313 41.7355 67.4592 42.0315 67.1551 42.3911C66.851 42.7507 66.6208 43.1667 66.4778 43.6154C66.3347 44.0641 66.2816 44.5366 66.3214 45.0058C66.3613 45.4751 66.4933 45.9318 66.71 46.35L80.46 73Z" fill="#FBBF8D"/>
<path d="M76.9999 81.9399C77.4056 82.7252 78.1059 83.3176 78.9474 83.5875C79.789 83.8574 80.7033 83.7828 81.4899 83.3799C82.2759 82.9723 82.8685 82.2702 83.1384 81.427C83.4082 80.5838 83.3333 79.668 82.9299 78.8799L70.1199 54.0499C69.9201 53.6601 69.6453 53.3136 69.3114 53.0302C68.9774 52.7468 68.5908 52.5321 68.1737 52.3983C67.7566 52.2646 67.3173 52.2144 66.8808 52.2507C66.4443 52.287 66.0192 52.4091 65.6299 52.6099C64.8447 53.0155 64.2522 53.7158 63.9823 54.5574C63.7124 55.399 63.7871 56.3133 64.1899 57.0999L76.9999 81.9399Z" fill="#FBBF8D"/>
<path d="M93 64.06C93.2156 64.4787 93.5116 64.8507 93.8712 65.1548C94.2308 65.4589 94.6468 65.6891 95.0955 65.8321C95.5442 65.9752 96.0167 66.0283 96.4859 65.9885C96.9551 65.9486 97.4119 65.8166 97.83 65.5999C98.673 65.1646 99.3087 64.4124 99.5975 63.5086C99.8863 62.6049 99.8045 61.6234 99.37 60.7799L85.66 34.1099C85.4445 33.6912 85.1484 33.3192 84.7889 33.0151C84.4293 32.711 84.0133 32.4808 83.5646 32.3378C83.1159 32.1947 82.6434 32.1416 82.1742 32.1814C81.7049 32.2213 81.2482 32.3533 80.83 32.5699C80.4113 32.7855 80.0393 33.0815 79.7352 33.4411C79.4311 33.8007 79.2009 34.2167 79.0578 34.6654C78.9148 35.1141 78.8617 35.5866 78.9015 36.0558C78.9414 36.5251 79.0734 36.9818 79.29 37.3999L93 64.06Z" fill="#FBBF8D"/>
<path d="M101.73 58.86C100.39 50.46 95.15 46.64 89.73 46.2C80.73 45.46 77.59 51.71 76.8 52.93C76.01 51.71 70.5 44.52 61.35 46.55C56.83 47.55 52.96 51.76 51.84 58.86C49.54 73.24 69.11 79.86 76.84 85.73C84.45 79.91 104 73.24 101.73 58.86Z" fill="#C6312B"/>
<path d="M101.73 57.5499C100.39 49.1499 95.15 45.3299 89.73 44.8899C80.73 44.1499 77.59 50.3999 76.8 51.6199C76.01 50.3999 70.5 43.2099 61.35 45.2399C56.83 46.2399 52.96 50.4499 51.84 57.5499C49.54 71.9299 69.11 78.5999 76.84 84.4199C84.45 78.5999 104 71.9299 101.73 57.5499Z" fill="#FF5542"/>
</g>
<defs>
<clipPath id="clip0">
<rect x="26" y="22" width="98.72" height="106.33" fill="white"/>
</clipPath>
</defs>
</svg>
