<svg width="17" height="15" viewBox="0 0 17 15" fill="none" xmlns="http://www.w3.org/2000/svg">
<g clip-path="url(#clip0)">
<path d="M13.7501 15H2.98084C2.36546 15 1.92315 14.5384 1.92315 13.9231V8.0769H-0.0576172L8.36546 0.0769043L16.7885 8.0769H14.8078V13.9231C14.8078 14.5577 14.3655 15 13.7501 15ZM1.40392 7.49998H2.50008V13.9231C2.50008 14.2308 2.69238 14.4231 2.98084 14.4231H13.7501C14.0578 14.4231 14.2308 14.25 14.2308 13.9231V7.49998H15.327L8.36546 0.884597L1.40392 7.49998ZM10.2885 12.6923H6.44238C6.077 12.6923 5.76931 12.3846 5.76931 12.0192V8.17306C5.76931 7.80767 6.077 7.49998 6.44238 7.49998H10.2885C10.6539 7.49998 10.9616 7.80767 10.9616 8.17306V12.0192C10.9616 12.3846 10.6539 12.6923 10.2885 12.6923ZM6.44238 8.0769C6.38469 8.0769 6.34623 8.11537 6.34623 8.17306V12.0192C6.34623 12.0769 6.38469 12.1154 6.44238 12.1154H10.2885C10.3462 12.1154 10.3847 12.0769 10.3847 12.0192V8.17306C10.3847 8.11537 10.3462 8.0769 10.2885 8.0769H6.44238Z" fill="#003072"/>
</g>
<defs>
<clipPath id="clip0">
<rect width="16.7308" height="15" fill="white"/>
</clipPath>
</defs>
</svg>
