<svg width="150" height="150" viewBox="0 0 150 150" fill="none" xmlns="http://www.w3.org/2000/svg">
<circle cx="75" cy="75" r="74.5" fill="white" stroke="#CCCCCC"/>
<path d="M74.1206 109.353C95.174 109.353 112.241 107.481 112.241 105.171C112.241 102.861 95.174 100.988 74.1206 100.988C53.0672 100.988 36 102.861 36 105.171C36 107.481 53.0672 109.353 74.1206 109.353Z" fill="#E6E6E6"/>
<path fill-rule="evenodd" clip-rule="evenodd" d="M49.844 102.197C49.6287 101.753 49.3515 101.341 49.0206 100.975C48.7316 100.704 48.4513 100.695 47.8425 100.949C47.0169 101.317 46.214 101.734 45.4381 102.197C44.6332 102.715 43.7898 103.17 42.9154 103.559C42.0123 103.901 41.0912 104.194 40.1562 104.435C39.5391 104.562 38.9556 104.817 38.4437 105.184C38.2963 105.301 38.186 105.459 38.1262 105.638C38.0664 105.816 38.0595 106.009 38.1065 106.191C38.2029 106.502 38.4963 106.734 39.5562 106.94C41.0205 107.193 42.5025 107.331 43.9884 107.352C45.2441 107.392 46.4997 107.269 47.7242 106.988C48.4493 106.839 49.1272 106.516 49.6995 106.047C50.0264 105.743 50.2253 105.327 50.2557 104.882C50.3414 104.386 50.3576 103.88 50.3039 103.38C50.229 102.959 50.0728 102.558 49.844 102.197Z" fill="#3B3B3B"/>
<path fill-rule="evenodd" clip-rule="evenodd" d="M66.8153 85.033C68.4402 88.344 71.5979 94.7164 73.3323 98.4392C75.0666 102.162 75.3732 103.222 75.3469 104.014C75.3206 104.807 74.9483 105.328 73.1571 105.596C70.9343 105.837 68.6937 105.87 66.4649 105.692C64.7525 105.525 64.5204 105.197 64.3452 104.816C64.17 104.435 64.0561 103.94 63.3291 101.632C62.6021 99.3239 61.2663 95.1238 60.5305 91.5587C59.7947 87.9937 59.6546 85.0199 60.4035 83.2374C60.7114 82.5505 61.1802 81.9479 61.7703 81.4806C62.3603 81.0133 63.0542 80.695 63.7934 80.5526C64.8094 80.3118 65.2167 80.4694 65.3131 80.6534C65.4095 80.8373 65.1948 81.0475 65.1379 81.2797C65.081 81.5118 65.1861 81.722 66.8153 85.033Z" fill="#525252"/>
<path fill-rule="evenodd" clip-rule="evenodd" d="M53.8603 83.4434C53.1802 84.0776 52.6065 84.817 52.161 85.6333C51.4621 86.8976 51.0846 88.3144 51.0617 89.7589C51.0617 91.2874 51.6267 92.8247 52.7435 94.6816C53.8649 96.4475 55.0859 98.1481 56.4006 99.7752C56.7417 100.158 57.0563 100.563 57.3422 100.988C57.3422 101.032 57.2721 101.05 56.002 101.032C54.7319 101.015 52.2486 100.953 50.9873 100.953C49.726 100.953 49.6734 101.015 49.6734 101.133C49.6409 101.545 49.6292 101.959 49.6384 102.372C49.6384 103.31 49.5946 105 49.5989 105.845C49.6033 106.691 49.6427 106.721 49.6953 106.721C49.7478 106.721 49.8179 106.721 52.2662 106.805C54.7144 106.888 59.5495 107.024 62.5846 107.028C65.6197 107.032 66.8636 106.897 67.5512 106.638C67.7882 106.586 68.0019 106.459 68.1599 106.274C68.318 106.09 68.4118 105.86 68.4271 105.618C68.4665 105.232 68.4271 104.834 67.4461 101.58C66.465 98.3255 64.5774 92.2159 63.4649 88.8085C62.3525 85.4011 62.0372 84.7092 61.7131 84.1836C61.3664 83.6276 60.8217 83.2238 60.189 83.0536C59.2227 82.7757 58.228 82.6082 57.2239 82.5544C56.5012 82.4804 55.7714 82.5188 55.0604 82.6682C54.5937 82.8049 54.1768 83.0742 53.8603 83.4434Z" fill="#575757"/>
<path fill-rule="evenodd" clip-rule="evenodd" d="M53.86 83.4434C53.7067 83.5923 53.5272 83.7675 53.3345 83.9777C55.0046 84.8652 56.7484 85.6067 58.5463 86.1938C59.9351 86.6108 61.3717 86.8477 62.8208 86.899C62.2033 85.0989 61.9449 84.5865 61.6821 84.1792C61.5369 83.9561 61.3615 83.7542 61.1609 83.5792C60.0441 83.4084 58.774 83.2463 57.4601 82.9967C56.8163 82.8697 56.1462 82.7251 55.5112 82.5587C55.3459 82.5794 55.1821 82.6101 55.0206 82.6507C54.5662 82.799 54.1635 83.074 53.86 83.4434Z" fill="#525252"/>
<path fill-rule="evenodd" clip-rule="evenodd" d="M76.8182 84.0345C76.126 84.1959 75.5087 84.5863 75.0663 85.1426C74.5451 85.8389 74.2473 86.9426 74.0152 87.8842C73.7831 88.8259 73.6166 89.6361 73.5159 89.9733C73.4152 90.3106 73.3757 90.2624 72.8064 89.9733C72.0071 89.5683 71.1712 89.2398 70.31 88.9923C69.4691 88.7821 68.891 88.8609 68.4837 89.2332C68.2617 89.462 68.0965 89.7397 68.0014 90.0439C67.9063 90.3482 67.884 90.6706 67.9362 90.985C68.0523 91.6753 68.3553 92.3205 68.8121 92.8508C68.9254 93.0089 69.0745 93.1378 69.2474 93.2269C69.4203 93.316 69.6119 93.3627 69.8063 93.3632C69.9215 93.348 70.0308 93.3034 70.1237 93.2335C70.2165 93.1637 70.2897 93.0711 70.3363 92.9646C70.3923 92.8237 70.432 92.6767 70.4545 92.5267C70.4545 92.4829 70.5027 92.6099 70.7392 93.0654C70.9757 93.5209 71.4312 94.3136 71.9129 95.0669C72.3448 95.8043 72.8433 96.5006 73.402 97.1472C73.7725 97.6094 74.2801 97.9422 74.8517 98.0976C75.2965 98.1681 75.7513 98.0646 76.1218 97.8085C76.4765 97.5764 76.7481 97.2567 77.1116 96.0786C77.4751 94.9004 77.9306 92.8683 78.2634 91.2478C78.5963 89.6273 78.8109 88.3748 78.9116 87.3762C79.0322 86.6142 78.9919 85.8355 78.7934 85.09C78.6415 84.6553 78.3277 84.296 77.9175 84.0871C77.7477 84.0031 77.5625 83.9551 77.3733 83.946C77.1841 83.937 76.9951 83.9671 76.8182 84.0345Z" fill="#FA632A"/>
<path fill-rule="evenodd" clip-rule="evenodd" d="M89.2607 82.0066C91.2579 83.1366 93.9032 84.7483 96.2332 85.852C98.5631 86.9556 100.582 87.5513 101.962 88.2695C103.068 88.7885 103.986 89.6378 104.59 90.7002C105.005 91.577 105.359 92.4814 105.649 93.4069C105.955 94.2941 106.455 95.102 107.112 95.7719C107.387 96.0162 107.708 96.2035 108.056 96.323C108.404 96.4425 108.773 96.4919 109.14 96.4683C109.745 96.4291 110.318 96.1779 110.756 95.7587C111.094 95.407 111.34 94.9765 111.47 94.5062C111.528 94.1986 111.636 93.9027 111.79 93.6302C111.943 93.4463 112.228 93.3981 112.552 93.7266C113.081 94.3454 113.346 95.1479 113.288 95.9602C113.289 97.408 112.805 98.8145 111.912 99.9545C111.382 100.521 110.731 100.961 110.008 101.243C109.285 101.525 108.508 101.641 107.734 101.584C106.083 101.518 104.327 100.822 103.1 100.331C102.188 99.9109 101.223 99.6162 100.232 99.4552C99.0577 99.3363 97.872 99.4238 96.7281 99.7136C95.3704 100.038 93.8462 100.633 91.871 100.966C89.6847 101.298 87.4694 101.398 85.2621 101.264C83.0723 101.15 81.0664 100.826 79.3189 99.4815C77.5714 98.1369 76.078 95.7237 75.3071 93.3499C74.6083 91.218 74.4429 88.9473 74.8254 86.7367C75.0753 85.1649 75.8121 83.7112 76.932 82.5804C77.9533 81.6141 79.1815 80.8936 80.5233 80.4737C81.8154 80.0026 83.2027 79.8523 84.5657 80.0358C85.9278 80.2285 87.268 80.8767 89.2607 82.0066Z" fill="#FF7E48"/>
<path fill-rule="evenodd" clip-rule="evenodd" d="M112.88 98.1853C112.667 98.8259 112.334 99.4203 111.899 99.9371C111.368 100.503 110.718 100.944 109.995 101.225C109.272 101.507 108.495 101.624 107.721 101.566C106.07 101.501 104.314 100.804 103.087 100.314C102.175 99.8935 101.21 99.5989 100.219 99.4379C99.0446 99.319 97.8588 99.4064 96.7149 99.6962C95.3572 100.02 93.8331 100.616 91.8578 100.949C89.6715 101.28 87.4562 101.38 85.2489 101.247C83.0591 101.133 81.0532 100.809 79.3057 99.4641C77.5582 98.1196 76.0648 95.7064 75.294 93.3326C74.5951 91.2007 74.4297 88.93 74.8122 86.7193C74.8854 86.339 74.9804 85.9632 75.0969 85.5938C75.8193 87.4556 76.6832 89.2595 77.6809 90.9895C78.9661 93.1688 80.9841 94.8204 83.3744 95.6494C86.2124 96.6962 90.2812 97.1385 93.2725 97.1123C95.3771 97.081 97.47 96.7927 99.5047 96.2538C100.314 96.0432 101.141 95.9083 101.975 95.8509C102.139 95.8194 102.309 95.8458 102.456 95.9257C102.603 96.0055 102.718 96.1339 102.781 96.2889C103.15 97.0216 103.726 97.6305 104.436 98.0407C105.914 98.953 107.547 99.5841 109.254 99.9021C110.822 100.134 111.882 99.7269 112.788 98.3605C112.814 98.2948 112.85 98.2553 112.88 98.1853Z" fill="#FA632A"/>
<path fill-rule="evenodd" clip-rule="evenodd" d="M93.9695 84.6782C94.7359 85.1162 95.5024 85.4928 96.2338 85.8388C97.6834 86.5264 99.0105 87.0126 100.136 87.4593C100.135 87.9793 100.031 88.494 99.8283 88.973C99.626 89.4521 99.3301 89.8859 98.9579 90.2491C98.7261 90.5055 98.4154 90.677 98.075 90.7365C97.7346 90.796 97.384 90.7401 97.079 90.5776C96.5973 90.2886 96.3433 89.7017 96.0148 89.3294C95.6863 88.9572 95.279 88.7776 94.9111 88.379C94.4442 87.832 94.1514 87.1579 94.0702 86.4432C93.9877 85.8587 93.954 85.2683 93.9695 84.6782Z" fill="#3B3B3B"/>
<path fill-rule="evenodd" clip-rule="evenodd" d="M64.3234 61.7814C64.9988 61.8906 65.6639 62.0561 66.3117 62.2763C66.8453 62.4398 67.3259 62.7421 67.7045 63.1522C68.0154 63.5201 68.1906 63.9668 68.5804 65.3814C68.9702 66.7961 69.6403 69.1742 70.1571 70.9042C70.6739 72.6342 71.0637 73.7072 71.8126 74.3028C72.5762 74.8193 73.4968 75.0517 74.4141 74.9597C75.1499 74.8984 75.509 74.6663 75.7937 74.9597C75.9845 75.2204 76.113 75.5214 76.1692 75.8396C76.2254 76.1577 76.2078 76.4845 76.1178 76.7948C75.8182 77.7298 75.1977 78.5288 74.3659 79.0504C73.3304 79.7279 72.1892 80.2282 70.9892 80.5307C69.868 80.8197 68.9176 80.8767 68.1118 80.3993C67.3059 79.9219 66.6183 78.8927 66.0095 77.6708C65.2146 76.0046 64.656 74.2357 64.3496 72.4152C63.8491 69.7346 63.4851 67.0303 63.2591 64.3128C63.1146 62.3463 63.2591 62.0179 63.4431 61.8514C63.627 61.685 63.8109 61.6938 64.3234 61.7814Z" fill="#7FA9B7"/>
<path fill-rule="evenodd" clip-rule="evenodd" d="M75.9693 77.2329C75.6095 77.9804 75.0502 78.6139 74.3532 79.0636C73.3176 79.7411 72.1764 80.2414 70.9764 80.5439C69.8552 80.833 68.9049 80.8899 68.099 80.4125C67.2931 79.9352 66.6187 78.8928 66.0099 77.6709C65.6654 76.963 65.3727 76.2312 65.134 75.481C64.9233 74.6293 64.7595 73.7667 64.6435 72.897C64.3981 71.2047 64.3481 69.4897 64.4945 67.786C64.6347 66.4283 64.9325 65.4472 65.3705 65.3071C65.8084 65.1669 66.4041 65.8633 66.8902 66.5334C67.2988 67.0846 67.6579 67.6708 67.9632 68.2853C68.2008 68.8472 68.3713 69.4352 68.4713 70.0371C68.7825 71.5171 69.2326 72.9645 69.8158 74.3598C70.464 75.7657 71.3137 76.7161 72.4436 77.084C73.5736 77.4519 74.9926 77.2373 75.8554 77.1891L75.9693 77.2329Z" fill="#638BA4"/>
<path fill-rule="evenodd" clip-rule="evenodd" d="M51.5565 77.0183C52.0366 76.1561 52.4326 75.2498 52.739 74.3117C52.9149 73.7638 53.0611 73.2067 53.177 72.643C53.2296 72.4109 53.2296 72.5686 53.3128 73.1423C53.396 73.7161 53.558 74.719 53.7026 75.4636C53.8471 76.2081 53.9741 76.703 54.0529 76.9833C54.1318 77.2636 54.1581 77.3337 54.0223 78.2534C53.8865 79.1731 53.5843 80.9425 53.4179 81.9805C53.3095 82.4762 53.2436 82.9802 53.2208 83.4871C53.2208 83.6579 53.2865 83.6929 54.2588 83.9995C55.7075 84.4794 57.1947 84.834 58.7041 85.0594C60.0504 85.212 61.4135 85.1065 62.7203 84.7484C63.6697 84.5049 64.6029 84.2021 65.5145 83.8418C65.8241 83.7264 66.1268 83.5934 66.4211 83.4433C66.5087 83.3951 66.478 83.4039 66.4605 83.382C66.3828 83.0456 66.3388 82.7023 66.3291 82.3571C66.224 81.4199 66.0313 79.5979 65.935 78.6388C65.8411 78.0287 65.8234 77.4094 65.8824 76.795C65.9481 75.9891 66.0751 74.4781 66.1671 73.7029C66.259 72.9277 66.316 72.8883 66.3904 72.827C66.5615 72.6746 66.6987 72.4881 66.7934 72.2795C67.1264 71.711 67.3757 71.0974 67.5335 70.4576C67.6789 69.8043 67.6789 69.127 67.5335 68.4736C67.4282 68.0088 67.2462 67.5647 66.9948 67.1597C66.789 66.8093 66.5569 66.5203 66.4036 66.2838C66.1901 65.9706 66.0193 65.6304 65.8955 65.2721C65.6853 64.7071 65.3831 63.7874 65.186 63.1786C64.9889 62.5698 64.8882 62.2676 64.8138 62.0968C64.7393 61.926 64.678 61.891 64.459 61.8384C64.24 61.7859 63.8634 61.7158 63.2371 61.6238C62.3314 61.4865 61.4192 61.3959 60.5042 61.3523C58.9923 61.2804 57.4776 61.2906 55.9668 61.3829C54.3682 61.4493 52.7804 61.6782 51.2281 62.0662C50.178 62.2916 49.2448 62.8889 48.6003 63.748C48.0397 64.5451 47.6893 65.6093 47.1024 67.8911C46.5155 70.1729 45.679 73.6723 45.2498 75.8183C44.8206 77.9643 44.8119 78.7571 44.8381 79.3877C44.8361 79.8788 44.936 80.365 45.1316 80.8155C45.213 80.963 45.3265 81.0903 45.4637 81.1881C45.6009 81.2859 45.7583 81.3516 45.9243 81.3805C46.447 81.5122 47.0003 81.4385 47.4703 81.1746C48.3065 80.7043 49.0693 80.1141 49.7346 79.4228C50.4469 78.7066 51.0597 77.8978 51.5565 77.0183Z" fill="#7FA9B7"/>
<path fill-rule="evenodd" clip-rule="evenodd" d="M53.2168 72.6078C53.2168 72.6954 53.2562 72.8706 53.2956 73.1421C53.3569 73.5801 53.4752 74.3071 53.5934 74.9553C53.7716 74.5639 53.901 74.152 53.9789 73.729C54.1112 72.9804 54.1684 72.2204 54.1497 71.4604C54.1497 70.5538 54.1102 69.4589 54.0971 68.8326C54.084 68.2063 54.0971 68.0661 54.0665 68.1669C54.0358 68.2676 53.9832 68.6048 53.9307 69.161C53.8886 69.7958 53.8096 70.4275 53.6942 71.053C53.5584 71.6706 53.335 72.1611 53.2562 72.5421C53.245 72.5651 53.2318 72.5871 53.2168 72.6078Z" fill="#638BA4"/>
<path fill-rule="evenodd" clip-rule="evenodd" d="M61.9276 57.3796C59.4838 57.257 57.6823 56.5504 56.5231 55.2599C56.7202 57.3254 56.5931 59.409 56.1465 61.4352C56.532 61.8605 57.0002 62.2027 57.5225 62.4408C58.0447 62.679 58.6101 62.8082 59.184 62.8205C59.7578 62.8328 60.3282 62.728 60.8602 62.5124C61.3922 62.2968 61.8746 61.975 62.278 61.5666C61.8707 61.3257 61.7437 59.933 61.9276 57.3796Z" fill="#FCB796"/>
<path fill-rule="evenodd" clip-rule="evenodd" d="M61.9274 57.3796C59.4836 57.257 57.6821 56.5504 56.5229 55.2599C56.6156 56.2396 56.6361 57.2247 56.5843 58.2074C57.2335 58.7084 57.9373 59.1345 58.6821 59.4775C59.4427 59.7957 60.254 59.9752 61.0778 60.0074C61.3306 60.022 61.5843 60.0132 61.8355 59.9812C61.8142 59.1129 61.8449 58.2442 61.9274 57.3796Z" fill="#F79287"/>
<path fill-rule="evenodd" clip-rule="evenodd" d="M57.53 56.7624C57.4993 57.2266 57.4993 57.9361 57.53 58.4573C57.5607 58.9785 57.5694 59.3026 57.5694 59.469C57.5694 59.6355 57.5694 59.6355 57.3986 59.5084C57.1325 59.2978 56.8849 59.0648 56.6585 58.8121C56.3497 58.4645 56.1037 58.0658 55.9314 57.634C55.7823 57.2149 55.6681 56.7842 55.5898 56.3463C55.5416 56.0879 55.5416 56.1273 55.5329 56.3463C55.5241 56.5653 55.5329 57.0252 55.4935 57.4281C55.454 57.831 55.4497 58.1989 55.4278 58.5449C55.4059 58.8909 55.384 59.2106 55.3752 59.4209C55.381 59.518 55.3721 59.6154 55.3489 59.7099C55.3489 59.7406 55.3008 59.7099 54.8409 59.5479C54.0186 59.2411 53.2544 58.7968 52.581 58.234C51.5625 57.336 50.7409 56.237 50.1678 55.0062C49.572 53.6389 49.2562 52.166 49.2393 50.6747C49.1405 48.9296 49.3541 47.181 49.87 45.5111C50.3828 43.9731 51.3723 42.6384 52.6949 41.7008C54.0229 40.7995 55.5528 40.2399 57.149 40.0715C58.5032 39.9042 59.8776 40.0312 61.1783 40.4438C61.8681 40.6827 62.4963 41.0716 63.0177 41.5825C63.3112 41.8453 63.3462 41.8584 63.6002 41.8059C64.0298 41.7001 64.4753 41.6749 64.9141 41.7314C65.6576 41.8433 66.3536 42.1654 66.92 42.6599C67.5971 43.3115 68.0871 44.1327 68.339 45.0381C68.7061 46.1924 68.8937 47.3962 68.8952 48.6075C68.9124 49.7375 68.6712 50.8565 68.1901 51.8791C67.7738 52.6715 67.1947 53.3671 66.4908 53.92C66.0454 54.2737 65.5414 54.5464 65.0017 54.7259C64.3039 55.0156 63.5812 55.2414 62.8425 55.4003C62.0567 55.5166 61.2632 55.5737 60.4688 55.5711C59.6673 55.5974 58.8527 55.65 58.3884 55.7025C57.9242 55.7551 57.8103 55.8033 57.7183 55.939C57.5881 56.1936 57.5234 56.4766 57.53 56.7624Z" fill="#DE7C3B"/>
<path fill-rule="evenodd" clip-rule="evenodd" d="M57.5306 56.7623C57.4999 57.2266 57.4999 57.9361 57.5306 58.4572C57.5612 58.9784 57.57 59.3025 57.57 59.4689C57.57 59.6354 57.57 59.6354 57.3992 59.5084C57.1331 59.2977 56.8855 59.0648 56.659 58.812C56.5398 58.6725 56.4287 58.5262 56.3262 58.374C56.3262 58.2733 56.3262 58.1682 56.3262 58.0587C56.3612 56.5389 56.6327 54.0469 56.8342 52.4834C56.93 51.6447 57.0763 50.8125 57.2722 49.9914C57.3554 49.7023 57.386 49.7592 58.1481 49.6103C59.253 49.3822 60.3404 49.0763 61.4022 48.695C62.2304 48.4201 62.9811 47.9516 63.592 47.3285C63.9786 46.8926 64.2762 46.3852 64.468 45.8351C64.5607 45.5359 64.6733 45.2432 64.8052 44.9591C64.8884 44.8496 64.9629 44.9591 65.2432 45.2088C65.6105 45.5708 66.0107 45.8978 66.4388 46.1854C66.8036 46.4018 67.1877 46.5836 67.5863 46.7285C67.8184 46.8249 67.8315 46.8643 67.8972 47.4468C68.0282 48.351 68.037 49.2687 67.9235 50.1753C67.7306 51.1296 67.3751 52.0437 66.8724 52.8776C66.591 53.392 66.2704 53.884 65.9132 54.3491C65.6448 54.4855 65.3684 54.6054 65.0855 54.7083C64.3877 54.998 63.665 55.2238 62.9263 55.3827C62.1405 55.499 61.347 55.5561 60.5525 55.5535C59.7511 55.5798 58.9364 55.6324 58.4722 55.6849C58.008 55.7375 57.8941 55.7856 57.8021 55.9214C57.64 56.1733 57.5464 56.4632 57.5306 56.7623Z" fill="#D56C2F"/>
<path fill-rule="evenodd" clip-rule="evenodd" d="M64.831 46.2425C64.6099 46.7625 64.3149 47.2478 63.9551 47.6834C63.4573 48.2901 62.8477 48.7956 62.1594 49.1725C61.4531 49.5342 60.7062 49.8106 59.9345 49.9959C59.2382 50.1842 58.6644 50.3156 58.3535 50.3857C58.2177 50.4016 58.085 50.437 57.9593 50.4908C57.9287 50.4908 57.9243 50.5346 57.8498 51.2616C57.7754 51.9886 57.644 53.412 57.5695 54.4807C57.4951 55.5493 57.4819 56.2632 57.4819 56.6311C57.4819 56.999 57.4819 57.034 57.898 57.3493C58.5489 57.8502 59.2541 58.2763 60.0002 58.6194C60.7608 58.9376 61.5721 59.1171 62.3959 59.1494C62.8949 59.203 63.3991 59.1197 63.8543 58.9085C64.2824 58.6757 64.6326 58.3224 64.8617 57.8924C65.2702 57.1394 65.5514 56.324 65.6938 55.4792C65.9434 54.2967 66.1624 52.65 66.342 51.3623C66.5216 50.0747 66.6661 49.1462 66.7186 48.6776C66.7712 48.209 66.7186 48.209 66.6792 48.1915C66.5485 48.1469 66.4321 48.0683 66.342 47.9637C66.082 47.7123 65.8432 47.4398 65.6281 47.1491C65.4251 46.8747 65.2491 46.5814 65.1025 46.2732C65.0421 46.141 64.9951 46.0031 64.9624 45.8615C64.9668 45.8264 64.9668 45.9184 64.831 46.2425Z" fill="#FCB796"/>
<path fill-rule="evenodd" clip-rule="evenodd" d="M64.831 46.2425C64.6099 46.7625 64.3149 47.2478 63.9551 47.6834C63.4573 48.2901 62.8477 48.7956 62.1594 49.1725C61.4531 49.5342 60.7062 49.8107 59.9345 49.9959C59.2382 50.1842 58.6644 50.3156 58.3535 50.3857C58.2177 50.4016 58.085 50.437 57.9593 50.4908C57.9287 50.4908 57.9243 50.5346 57.8498 51.2616C57.7754 51.9886 57.644 53.412 57.5695 54.4807C57.4951 55.5493 57.4819 56.2632 57.4819 56.6311C57.4819 56.9201 57.4819 57.0033 57.679 57.1741V57.0909C57.8586 55.9084 58.117 53.5872 58.2703 52.4354C58.4236 51.2835 58.4192 51.2791 58.6206 51.266C59.1298 51.2121 59.6244 51.0635 60.0791 50.828C61.1679 50.3625 62.1995 49.7732 63.1536 49.0718C63.7542 48.6046 64.2609 48.028 64.6471 47.3725C64.8529 47.0177 64.8529 46.9695 64.9405 47.0659C65.1453 47.3165 65.3824 47.5389 65.6456 47.7272C66.0022 47.9859 66.3769 48.2186 66.7668 48.4236C66.7668 48.209 66.7668 48.2046 66.7011 48.1915C66.5704 48.1469 66.454 48.0683 66.3639 47.9637C66.1039 47.7123 65.8651 47.4398 65.65 47.1491C65.447 46.8747 65.271 46.5814 65.1244 46.2732C65.064 46.141 65.017 46.0031 64.9843 45.8615C64.9668 45.8264 64.9668 45.9184 64.831 46.2425Z" fill="#F79287"/>
<path fill-rule="evenodd" clip-rule="evenodd" d="M77.9745 68.2678C77.224 68.5663 76.5707 69.0665 76.0868 69.7131C75.5569 70.3963 74.9656 71.4168 74.3612 72.1482C73.8699 72.774 73.2343 73.2714 72.5086 73.5978C71.876 73.866 71.2019 74.0231 70.5159 74.0621C69.9461 74.0517 69.3775 74.118 68.8253 74.2592C68.4443 74.4256 68.3261 74.7891 68.3874 75.4373C68.4635 76.2987 68.7111 77.1361 69.1158 77.9003C69.5205 78.6645 70.0739 79.34 70.7436 79.887C71.0564 80.1524 71.4293 80.3373 71.8298 80.4257C72.0137 80.4695 72.0137 80.4827 72.1758 80.8024C72.4501 81.3937 72.8267 81.9319 73.2882 82.3922C74.065 83.1598 75.0426 83.6926 76.1087 83.9295C77.4515 84.1682 78.8281 84.14 80.1599 83.8462C81.4433 83.6095 82.6625 83.1051 83.7381 82.3659C85.0893 81.4484 86.1367 80.1494 86.7469 78.6345C87.5466 76.6239 87.9152 74.4679 87.8287 72.3058C87.7905 70.8597 87.2323 69.4758 86.2564 68.4079C85.6253 67.7398 84.8044 67.2812 83.9045 67.0941C83.0258 66.9059 82.1152 66.9269 81.2461 67.1554C80.1218 67.4186 79.0261 67.7912 77.9745 68.2678Z" fill="#FF7E48"/>
<path fill-rule="evenodd" clip-rule="evenodd" d="M77.9748 68.2676C77.3999 68.4999 76.8795 68.8489 76.4463 69.2925H76.5514C77.2303 69.2854 77.9073 69.3649 78.566 69.529C79.121 69.7071 79.652 69.9527 80.1471 70.2604C80.4907 70.4741 80.8708 70.6226 81.2683 70.6984C81.3757 70.7175 81.4865 70.6993 81.5821 70.6467C81.6778 70.5941 81.7525 70.5103 81.7939 70.4093C81.8483 70.2279 81.8483 70.0345 81.7939 69.8531C81.7632 69.7085 81.7194 69.656 81.7939 69.6954C81.9938 69.7981 82.1844 69.9183 82.3632 70.0545C82.6146 70.2376 82.8491 70.4428 83.064 70.6677C83.1542 70.8136 83.2778 70.936 83.4247 71.0247C83.5715 71.1134 83.7373 71.1659 83.9085 71.1778C84.0796 71.1898 84.2511 71.1609 84.4089 71.0936C84.5667 71.0262 84.7061 70.9222 84.8158 70.7903C85.0413 70.4238 85.1122 69.9828 85.0129 69.564C84.9428 69.1698 84.7852 68.8983 84.0231 68.5129C82.8591 67.9541 81.6173 67.5746 80.3398 67.3873H80.3091C79.5124 67.6287 78.7325 67.9228 77.9748 68.2676Z" fill="#FA632A"/>
<path fill-rule="evenodd" clip-rule="evenodd" d="M71.9131 80.443C72.027 80.4824 72.0489 80.5306 72.1846 80.8022C72.1846 80.8547 72.2372 80.9117 72.2678 80.9773L72.4474 81.0299C72.8636 81.138 73.2887 81.2084 73.7175 81.2401C74.2591 81.2858 74.804 81.2711 75.3424 81.1963C75.9195 81.1329 76.478 80.9542 76.9847 80.6708C77.3605 80.4304 77.6862 80.1196 77.9439 79.7554C78.1103 79.5277 78.1103 79.4839 78.0446 79.5145C77.888 79.6225 77.7257 79.7219 77.5585 79.8124C77.1467 80.023 76.7155 80.1932 76.2708 80.3204C75.6851 80.4788 75.0851 80.5786 74.4796 80.6182C73.8741 80.6663 73.2655 80.656 72.662 80.5876C72.4098 80.554 72.1597 80.5057 71.9131 80.443Z" fill="#3B3B3B"/>
<path fill-rule="evenodd" clip-rule="evenodd" d="M85.1091 68.0358C85.7047 67.8649 86.2872 68.1715 86.8346 68.7277C87.4797 69.4402 88.0221 70.2391 88.4464 71.1015C89.0072 72.2674 89.6436 73.3954 90.3515 74.4782C91.1267 75.5556 92.1034 76.4447 92.6596 77.3119C93.156 78.0275 93.3755 78.8991 93.2771 79.7645C93.1809 80.53 92.7896 81.2277 92.1866 81.7091C91.7952 82.0331 91.3393 82.2703 90.8493 82.4047C90.3592 82.5391 89.8462 82.5677 89.3442 82.4886C87.9093 82.2253 86.5649 81.6014 85.4375 80.6755C84.4482 79.8458 83.6995 78.7659 83.2696 77.5484C82.7665 76.329 82.5205 75.019 82.5468 73.7002C82.5732 72.3814 82.8714 71.0822 83.4229 69.884C83.909 68.8548 84.5178 68.1934 85.1091 68.0358Z" fill="#3B3B3B"/>
<path fill-rule="evenodd" clip-rule="evenodd" d="M48.7009 76.5103C50.0071 76.2834 51.3445 76.3057 52.6425 76.576C53.9146 76.9141 55.1533 77.367 56.3434 77.9293C57.0923 78.2403 57.0923 78.1571 57.3901 77.8111C57.8678 77.2591 58.4259 76.7822 59.0456 76.3964C59.7316 75.9635 60.4943 75.6661 61.2924 75.5205C61.8179 75.4723 61.9274 75.7176 61.8661 75.9585C61.7533 76.211 61.5785 76.4309 61.3581 76.5979C61.1303 76.8081 60.9201 77.0359 60.78 77.1629C60.6398 77.2899 60.6486 77.3337 60.688 77.3468C60.9266 77.3522 61.1653 77.339 61.4019 77.3074C62.2248 77.2283 63.0534 77.2283 63.8764 77.3074C64.1391 77.3179 64.3927 77.4069 64.6043 77.5631C64.8159 77.7193 64.9758 77.9353 65.0633 78.1833C65.2389 78.6986 65.3147 79.2426 65.2866 79.7863C65.2968 80.0136 65.2542 80.2403 65.1623 80.4484C65.0704 80.6566 64.9315 80.8407 64.7567 80.9863C64.3713 81.2929 63.7099 81.5163 62.4267 81.6477C61.1435 81.779 59.2383 81.8141 57.0923 81.9017C54.9462 81.9893 52.5637 82.125 50.7199 82.1163C49.396 82.1451 48.0733 82.0202 46.7782 81.744C45.9811 81.5338 45.7008 81.271 45.53 80.7892C45.3474 80.1996 45.3099 79.5746 45.4205 78.9673C45.5213 78.339 45.8523 77.7708 46.349 77.3731C47.0479 76.8924 47.8568 76.5956 48.7009 76.5103Z" fill="#FCB796"/>
<path fill-rule="evenodd" clip-rule="evenodd" d="M48.7013 76.5103C49.8768 76.3099 51.0777 76.3099 52.2532 76.5103C51.2584 76.9644 50.3095 77.5129 49.4196 78.1483C48.6504 78.6953 48.1119 79.5085 47.9086 80.4301C47.8143 80.923 47.7572 81.4222 47.7378 81.9236C47.4136 81.8793 47.092 81.8179 46.7743 81.7397C45.9772 81.5294 45.6969 81.2667 45.5261 80.7849C45.3435 80.1952 45.306 79.5702 45.4166 78.9629C45.5174 78.3347 45.8484 77.7664 46.3451 77.3688C47.0457 76.8889 47.8562 76.5936 48.7013 76.5103Z" fill="#F79287"/>
<path fill-rule="evenodd" clip-rule="evenodd" d="M51.7009 76.1422C50.928 75.7301 50.0891 75.4559 49.222 75.332C48.0402 75.1554 46.8326 75.3242 45.7445 75.8181C45.3491 76.0521 45.0142 76.3757 44.767 76.763C44.5197 77.1502 44.367 77.5902 44.3211 78.0474C44.1843 78.8492 44.2414 79.6721 44.4876 80.4474C44.6434 80.9606 44.9654 81.4074 45.4029 81.7175C45.6433 81.8902 45.935 81.9766 46.2307 81.9628C46.2869 81.9628 46.3422 81.9478 46.3907 81.9193C46.4392 81.8908 46.4792 81.8499 46.5066 81.8007C46.5372 81.7394 46.5504 81.6912 46.5066 81.3321C46.4373 80.7621 46.4926 80.1838 46.6686 79.6372C46.9853 78.8535 47.5601 78.2014 48.2979 77.789C49.1492 77.3252 50.0517 76.9622 50.987 76.7072C51.6746 76.5013 51.898 76.4444 52.0074 76.4137C52.1169 76.3831 52.1432 76.3568 51.7009 76.1422Z" fill="#638BA4"/>
<path fill-rule="evenodd" clip-rule="evenodd" d="M78.7193 90.0741C78.3383 91.1909 78.6098 92.2639 79.096 93.3413C79.6092 94.4431 80.274 95.4677 81.0712 96.3852C81.8639 97.3137 82.753 98.137 83.261 98.7677C83.6387 99.2019 83.9074 99.7199 84.045 100.279C84.194 100.838 84.1429 101.431 83.9005 101.956C83.5043 103.052 83.0361 104.12 82.499 105.153C82.0873 105.924 81.9427 105.963 81.6537 105.994C81.3646 106.025 80.9267 106.06 80.5763 106.13C80.2879 106.163 80.0215 106.3 79.8274 106.515C79.7012 106.739 79.6433 106.995 79.6609 107.251C79.6403 107.489 79.6686 107.729 79.7442 107.956C79.823 108.123 79.9675 108.18 80.7602 108.223C81.7811 108.29 82.8052 108.29 83.826 108.223C84.6319 108.136 84.807 107.93 85.5297 106.55C86.2523 105.171 87.5181 102.609 88.359 100.682C88.9761 99.3212 89.4701 97.9082 89.8349 96.4596C90.0704 95.6041 90.1197 94.708 89.9794 93.8318C89.8044 92.6377 89.4376 91.4797 88.8933 90.4026C88.3123 89.2317 87.3389 88.3018 86.1428 87.7748C84.7079 87.1268 83.0944 86.9893 81.5705 87.385C80.9236 87.5899 80.3313 87.9381 79.8376 88.4037C79.344 88.8693 78.9617 89.4403 78.7193 90.0741Z" fill="#FF7E48"/>
<path fill-rule="evenodd" clip-rule="evenodd" d="M93.8116 94.655C93.4516 95.1038 93.1836 95.619 93.0228 96.1713C92.8619 96.7237 92.8115 97.3023 92.8744 97.8741C92.9884 99.0618 93.5338 100.166 94.4072 100.979C95.3664 101.877 96.8204 102.543 97.6219 102.963C98.4234 103.384 98.5811 103.559 98.638 103.682C98.6949 103.804 98.6599 103.87 98.2876 104.063C97.9153 104.255 97.2058 104.575 96.5708 104.851C96.0245 105.05 95.5086 105.324 95.0379 105.666C94.7521 105.927 94.5766 106.287 94.5474 106.673C94.5089 106.925 94.5407 107.182 94.6394 107.417C94.7182 107.571 94.8233 107.597 96.0014 107.593C97.1796 107.588 99.4219 107.549 100.964 107.522C102.505 107.496 103.337 107.474 103.898 107.308C104.459 107.141 104.774 106.835 104.975 105.766C105.27 104.111 105.319 102.421 105.12 100.752C104.888 98.623 104.244 96.1792 102.93 94.5543C102.304 93.7971 101.511 93.1965 100.612 92.8004C99.7131 92.4042 98.7343 92.2235 97.7533 92.2725C96.9673 92.3755 96.2111 92.6405 95.5327 93.0505C94.8542 93.4606 94.2682 94.007 93.8116 94.655Z" fill="#FF7E48"/>
<path fill-rule="evenodd" clip-rule="evenodd" d="M68.2429 73.3306C68.4312 73.151 68.6152 73.1291 68.9393 73.2999C69.3304 73.5266 69.6935 73.7985 70.0211 74.1101C70.2414 74.2806 70.3961 74.522 70.459 74.7934C70.4684 74.8803 70.456 74.9682 70.4232 75.0492C70.3903 75.1302 70.3379 75.2018 70.2707 75.2576C70.1791 75.3211 70.0757 75.3655 69.9666 75.3881C69.8575 75.4107 69.7449 75.411 69.6357 75.389C69.236 75.3547 68.8481 75.2368 68.4969 75.043C68.3333 74.9552 68.1926 74.8301 68.0861 74.678C67.9796 74.5259 67.9103 74.3509 67.8838 74.1671C67.8849 74.0108 67.9173 73.8562 67.979 73.7126C68.0406 73.5689 68.1304 73.4391 68.2429 73.3306Z" fill="#3B3B3B"/>
<path fill-rule="evenodd" clip-rule="evenodd" d="M77.5146 73.8562C77.6758 73.6277 77.8909 73.4427 78.1409 73.3175C78.4406 73.1695 78.7777 73.1145 79.1088 73.1599C79.4044 73.2056 79.6833 73.3262 79.919 73.5102C80.0829 73.6325 80.2138 73.7935 80.3001 73.9788C80.3499 74.0777 80.3623 74.1913 80.3351 74.2986C80.3088 74.3599 80.2563 74.3643 80.0811 74.2986C79.9059 74.2329 79.6169 74.1146 79.3497 74.0489C79.1082 73.9847 78.8555 73.9742 78.6095 74.0183C78.3887 74.0638 78.1751 74.1389 77.9745 74.2416C77.8617 74.3107 77.7392 74.3624 77.611 74.3949C77.5658 74.3988 77.5206 74.387 77.4831 74.3615C77.4456 74.3359 77.4181 74.2982 77.4051 74.2548C77.3914 74.1844 77.3941 74.1118 77.4131 74.0426C77.4321 73.9735 77.4668 73.9097 77.5146 73.8562Z" fill="#3B3B3B"/>
<path fill-rule="evenodd" clip-rule="evenodd" d="M76.5949 69.2136C76.7964 69.2136 77.1117 69.0997 77.5672 69.0735C78.0882 69.0541 78.6086 69.1268 79.1045 69.2881C79.5906 69.4545 79.9804 69.726 80.2913 69.8224C80.4036 69.8783 80.5273 69.9074 80.6527 69.9074C80.7781 69.9074 80.9017 69.8783 81.014 69.8224C81.0857 69.7652 81.1413 69.6903 81.1751 69.605C81.2089 69.5197 81.2198 69.4271 81.2067 69.3362C81.1787 69.1345 81.0793 68.9496 80.9264 68.8151C80.76 68.6486 80.5278 68.4954 80.4403 68.4165C80.3527 68.3377 80.414 68.3377 80.6636 68.364C81.117 68.407 81.5606 68.5224 81.9775 68.7056C82.595 68.9727 83.3834 69.4501 84.0097 69.7479C84.4776 70.0267 85.0225 70.148 85.5645 70.0939C85.8034 70.0523 86.0311 69.9615 86.2332 69.8273C86.4352 69.6932 86.6072 69.5185 86.7382 69.3143C86.9718 68.8389 87.0156 68.2924 86.8608 67.7858C86.724 67.1953 86.4459 66.6468 86.0506 66.1873C85.6153 65.7331 85.0486 65.4267 84.4301 65.3113C83.531 65.091 82.6013 65.0229 81.6797 65.1099C80.701 65.2276 79.7523 65.5246 78.8811 65.9858C78.1693 66.3464 77.5354 66.8435 77.0154 67.4486C76.6842 67.8221 76.4549 68.2746 76.3496 68.7625C76.2927 69.0472 76.3891 69.2005 76.5949 69.2136Z" fill="#FCB796"/>
</svg>
