<svg width="300" height="34" viewBox="0 0 300 34" fill="none" xmlns="http://www.w3.org/2000/svg">
<path d="M10.4582 4.69934C6.28322 9.15128 4.76359 14.6391 4.4426 20.7718L4.44043 20.8133L4.44512 20.8545C4.47354 21.1043 4.49995 21.3833 4.52823 21.682C4.59973 22.4373 4.68314 23.3184 4.84106 24.1709C5.56838 28.0863 7.73938 30.9027 11.6109 32.2203C14.5287 33.2115 17.5093 33.2688 20.475 32.7042C22.7765 32.2663 24.7229 31.3669 26.1943 29.964C27.6688 28.5582 28.6358 26.6755 29.022 24.3273C30.2476 16.9215 28.4403 10.1708 23.3305 4.58497C21.4276 2.50709 19.1914 1.46552 16.9081 1.50087C14.629 1.53616 12.3856 2.64301 10.4582 4.69934ZM10.4582 4.69934L10.8229 5.04136" stroke="#003072"/>
<path d="M29.6665 20.6563L29.6869 21.1455L30.1765 21.1353C31.1432 21.1152 31.9668 20.8465 32.58 20.2908C33.1934 19.735 33.5382 18.9447 33.6494 17.9947V17.9946C33.891 15.9283 33.3297 14.0189 32.5655 12.2404C31.1768 8.9954 29.2854 6.05217 26.3067 3.92233C25.3529 3.23911 24.2635 2.68497 22.8552 2.63864L21.5352 2.59521L22.4955 3.50194C27.4764 8.20474 29.3911 14.0694 29.6665 20.6563Z" fill="white" stroke="#003072"/>
<path d="M4.0574 21.125L4.5316 21.1224L4.55406 20.6487C4.86577 14.0764 6.74375 8.19378 11.7415 3.50296L12.7469 2.55933L11.3704 2.63923C9.7282 2.73454 8.52019 3.41092 7.47157 4.25324C4.29406 6.80369 2.28687 10.1412 1.0597 13.9353C0.600404 15.3534 0.298273 16.8813 0.660341 18.4846C0.843018 19.2963 1.22933 19.9705 1.82607 20.4376C2.42209 20.9042 3.1841 21.1299 4.0574 21.125Z" stroke="#003072"/>
<path d="M45.447 12.4581L46.015 11.7902L45.151 11.6414C44.9336 11.6039 44.6938 11.5602 44.4381 11.5135C43.7757 11.3925 43.0061 11.252 42.2406 11.1513L42.2392 11.1512C41.7748 11.0914 41.3053 11.1478 40.9067 11.3866C40.499 11.631 40.2234 12.0318 40.097 12.5453L40.0969 12.5457C39.6535 14.3531 40.1078 16.0358 40.6593 17.637L40.995 18.6116L41.5526 17.7447C41.7609 17.4208 41.9556 17.1093 42.1441 16.8076C42.5578 16.1456 42.9419 15.5308 43.3764 14.9358C43.8269 14.319 44.3252 13.7485 44.8356 13.1643C45.0383 12.9323 45.2428 12.6981 45.447 12.4581Z" fill="white" stroke="#003072"/>
<path d="M61.7463 17.7884L62.2106 18.8698L62.6667 17.7849C63.3949 16.0527 63.6653 14.1887 63.4009 12.8655C63.3178 12.4486 63.1658 12.0019 62.8629 11.6648C62.5365 11.3016 62.0773 11.1129 61.5061 11.161L61.5054 11.1611C60.6697 11.2326 59.828 11.3721 59.0099 11.5077C58.6702 11.5639 58.3345 11.6196 58.0051 11.6694L56.9189 11.8335L57.756 12.5448C59.5132 14.0378 60.8351 15.666 61.7463 17.7884Z" fill="white" stroke="#003072"/>
<path d="M47.3591 31.618C48.6323 32.1559 49.9989 32.4376 51.3808 32.447C57.2531 32.4557 61.9792 27.7982 61.9914 21.9955C61.9914 16.1387 57.3089 11.387 51.5239 11.387C50.1419 11.3776 48.7716 11.6406 47.4913 12.1611C46.2109 12.6816 45.0456 13.4494 44.0618 14.4205C43.0779 15.3917 42.2949 16.5472 41.7574 17.8212C41.2199 19.0951 40.9384 20.4626 40.929 21.8454C40.9196 23.2282 41.1825 24.5993 41.7026 25.8805C42.2228 27.1617 42.9901 28.3278 43.9606 29.3122C44.9312 30.2966 46.086 31.0802 47.3591 31.618Z" fill="white"/>
<path d="M49.2734 24.847C49.0987 25.1872 49.0003 25.4699 48.8299 25.6905C48.4946 26.1258 48.5907 26.4942 48.8867 26.8849C49.4329 27.6005 50.0665 28.1344 51.0059 28.2728C51.2036 26.5505 51.3904 24.861 51.0693 23.1798C50.9873 22.748 50.6389 22.3398 50.3352 22.0007C49.6689 21.2545 49.5542 20.1869 50.1167 19.3844C50.3809 18.9836 50.7756 18.7041 51.2227 18.6014C51.6697 18.4987 52.1364 18.5802 52.5301 18.8298C52.9238 19.0794 53.2157 19.4788 53.348 19.9489C53.4803 20.4189 53.4432 20.9251 53.2441 21.3672C53.1277 21.6313 52.961 21.8663 52.7548 22.057C52.3341 22.4398 52.0647 22.98 52.001 23.5681C51.8525 24.624 51.9639 27.2497 52.2129 28.227C53.113 28.1754 54.26 27.3096 54.5244 26.4449C54.5581 26.2604 54.5319 26.0691 54.4501 25.9029C54.2982 25.5568 54.1049 25.233 53.8886 24.8235H55.5271C55.5053 26.2748 54.958 27.414 53.8886 28.2259C52.5133 29.2689 51.0354 29.351 49.576 28.4371C48.3253 27.6545 47.6884 26.4426 47.6436 24.8517L49.2734 24.847Z" fill="#003072"/>
<path d="M49.6144 16.2757C49.6125 16.4048 49.5852 16.5322 49.534 16.6507C49.4828 16.7692 49.4088 16.8765 49.3161 16.9665C49.2234 17.0564 49.1138 17.1272 48.9937 17.1749C48.8736 17.2225 48.7453 17.2461 48.616 17.2442C48.3555 17.2342 48.1089 17.1241 47.9278 16.9369C47.7466 16.7497 47.6448 16.4999 47.6436 16.2395C47.6485 15.9785 47.7569 15.7302 47.9451 15.549C48.1333 15.3679 48.3858 15.2688 48.6471 15.2736C48.9085 15.2784 49.1572 15.3867 49.3386 15.5746C49.52 15.7625 49.6192 16.0147 49.6144 16.2757Z" fill="#003072"/>
<path d="M13.4574 23.2126C13.1783 23.7189 13.0213 24.1396 12.7491 24.4678C12.2135 25.1154 12.367 25.6636 12.8398 26.2449C13.7121 27.3098 14.724 28.104 16.2243 28.31C16.5401 25.7474 16.8384 23.2336 16.3255 20.732C16.1947 20.0896 15.6382 19.4821 15.1532 18.9776C14.089 17.8673 13.9058 16.2787 14.8042 15.0847C15.2261 14.4884 15.8566 14.0725 16.5705 13.9197C17.2845 13.7668 18.0298 13.8881 18.6586 14.2595C19.2874 14.6309 19.7536 15.2252 19.9649 15.9246C20.1761 16.6239 20.1169 17.3772 19.799 18.0349C19.6131 18.428 19.3468 18.7777 19.0174 19.0614C18.3456 19.6309 17.9153 20.4347 17.8137 21.3098C17.5764 22.8809 17.7543 26.7878 18.1521 28.242C19.5897 28.1651 21.4215 26.8768 21.8437 25.5902C21.8975 25.3158 21.8557 25.0311 21.725 24.7837C21.4825 24.2688 21.1737 23.787 20.8283 23.1777H23.4452C23.4103 25.3371 22.5363 27.0322 20.8283 28.2402C18.6319 29.7921 16.2714 29.9143 13.9407 28.5544C11.9431 27.3901 10.926 25.5868 10.8545 23.2196L13.4574 23.2126ZM19.0401 16.9072C19.1099 16.1234 18.7488 15.5386 18.0736 15.1615C17.3984 14.7844 16.6622 14.7984 16.0342 15.3029C15.5108 15.7253 15.1043 16.2421 15.3084 16.9107L19.0401 16.9072Z" fill="#003072"/>
<path d="M14.166 10.5709C14.1635 10.7451 14.1267 10.9172 14.0578 11.0772C13.9888 11.2372 13.889 11.382 13.7641 11.5035C13.6392 11.6249 13.4916 11.7205 13.3298 11.7848C13.168 11.8492 12.995 11.881 12.8209 11.8784C12.4699 11.8649 12.1377 11.7163 11.8935 11.4636C11.6494 11.2108 11.5123 10.8735 11.5107 10.522C11.5172 10.1697 11.6633 9.83437 11.9169 9.58982C12.1704 9.34527 12.5107 9.21152 12.8628 9.218C13.2149 9.22448 13.55 9.37066 13.7944 9.62438C14.0388 9.8781 14.1725 10.2186 14.166 10.5709Z" fill="#003072"/>
<path d="M21.4412 11.8837C21.2671 11.8888 21.0937 11.8594 20.9309 11.7973C20.7682 11.7351 20.6193 11.6415 20.4929 11.5216C20.3665 11.4017 20.2649 11.258 20.1941 11.0988C20.1234 10.9395 20.0847 10.7678 20.0804 10.5936C20.0726 10.4194 20.0994 10.2454 20.1592 10.0816C20.219 9.91779 20.3107 9.76748 20.4289 9.63936C20.5472 9.51123 20.6896 9.40781 20.848 9.33508C21.0064 9.26236 21.1776 9.22177 21.3518 9.21565C21.5259 9.20954 21.6996 9.23803 21.8627 9.29947C22.0258 9.36091 22.1751 9.45409 22.302 9.57361C22.4289 9.69314 22.5309 9.83665 22.602 9.99584C22.6732 10.155 22.7121 10.3268 22.7165 10.5011C22.727 10.8527 22.5993 11.1944 22.3609 11.4529C22.1225 11.7113 21.7923 11.866 21.4412 11.8837Z" fill="#003072"/>
<path d="M54.5743 17.2439C54.4442 17.2477 54.3147 17.226 54.1931 17.1801C54.0715 17.1342 53.9603 17.0651 53.8658 16.9766C53.7713 16.888 53.6955 16.782 53.6426 16.6644C53.5897 16.5468 53.5608 16.4201 53.5576 16.2914C53.5518 16.1628 53.5718 16.0343 53.6165 15.9134C53.6612 15.7924 53.7297 15.6815 53.818 15.5869C53.9063 15.4923 54.0127 15.4159 54.1311 15.3622C54.2494 15.3085 54.3773 15.2785 54.5075 15.274C54.6376 15.2695 54.7673 15.2906 54.8892 15.3359C55.011 15.3813 55.1226 15.4501 55.2174 15.5383C55.3122 15.6266 55.3884 15.7325 55.4415 15.8501C55.4947 15.9676 55.5238 16.0944 55.5271 16.2231C55.5349 16.4827 55.4395 16.735 55.2614 16.9258C55.0833 17.1167 54.8366 17.2309 54.5743 17.2439Z" fill="#003072"/>
<path d="M19.0056 16.9068H15.2739C15.0698 16.2382 15.471 15.7215 15.9996 15.2991C16.6277 14.7946 17.3465 14.7753 18.0391 15.1577C18.7317 15.54 19.0736 16.123 19.0056 16.9068Z" fill="white"/>
<path d="M51.5855 32.8541C57.6669 32.8541 62.5968 27.9242 62.5968 21.8428C62.5968 15.7615 57.6669 10.8315 51.5855 10.8315C45.5041 10.8315 40.5742 15.7615 40.5742 21.8428C40.5742 27.9242 45.5041 32.8541 51.5855 32.8541Z" stroke="#003072"/>
<path d="M76 18.3791V0.704834H79.8006V15.2463H84.9118V0.704834H88.7124V15.2463H93.8235V0.704834H97.6242V15.2463H99.721V23H95.9204V18.3791H76Z" fill="#003072"/>
<path d="M105.959 8.9284C105.4 9.57237 105.121 10.5209 105.121 11.774C105.121 13.0271 105.4 14.0105 105.959 14.7241C106.536 15.4203 107.261 15.7683 108.135 15.7683C108.956 15.7683 109.638 15.4377 110.179 14.7763C110.721 14.1149 111.009 13.1838 111.044 11.9829V11.5913C111.009 10.3904 110.721 9.48534 110.179 8.87619C109.655 8.24963 108.974 7.93635 108.135 7.93635C107.261 7.93635 106.536 8.26703 105.959 8.9284ZM102.971 16.7865C101.853 15.4638 101.294 13.7929 101.294 11.774C101.294 9.75511 101.853 8.11039 102.971 6.83986C104.09 5.56934 105.54 4.93408 107.322 4.93408C109.052 4.93408 110.398 5.70857 111.359 7.25757L112.093 5.32568H114.845V18.379H112.093L111.28 16.4732C110.337 18.0048 109.017 18.7706 107.322 18.7706C105.557 18.7706 104.107 18.1092 102.971 16.7865Z" fill="#003072"/>
<path d="M117.728 11.774C117.728 9.77252 118.366 8.1365 119.641 6.86597C120.917 5.57804 122.551 4.93408 124.543 4.93408C126.605 4.93408 128.204 5.58674 129.34 6.89208C130.039 7.69268 130.388 8.76306 130.388 10.1032H126.587C126.587 9.45924 126.448 8.96321 126.168 8.61512C125.819 8.1626 125.233 7.93635 124.412 7.93635C123.573 7.93635 122.883 8.28444 122.341 8.98061C121.817 9.65939 121.555 10.5905 121.555 11.774C121.555 12.9575 121.817 13.9235 122.341 14.6719C122.883 15.4029 123.573 15.7683 124.412 15.7683C125.216 15.7683 125.81 15.5334 126.194 15.0635C126.491 14.698 126.64 14.1932 126.64 13.5493H130.44C130.44 14.872 130.1 15.9337 129.418 16.7343C128.247 18.0918 126.622 18.7706 124.543 18.7706C122.551 18.7706 120.917 18.1092 119.641 16.7865C118.366 15.4638 117.728 13.7929 117.728 11.774Z" fill="#003072"/>
<path d="M132.013 18.379V14.959H132.747C133.446 14.959 133.935 14.4195 134.215 13.3404C134.494 12.2613 134.634 10.5557 134.634 8.22352V5.32568H144.857V18.379H141.187V8.32795H138.304V8.9284C138.304 12.3397 137.858 14.7676 136.967 16.2122C136.093 17.6567 134.713 18.379 132.826 18.379H132.013Z" fill="#003072"/>
<path d="M148.526 18.379V5.32568H152.196V13.0271L157.176 5.32568H161.107V18.379H157.438V10.6775L152.458 18.379H148.526Z" fill="#003072"/>
<path d="M168.184 10.6775H170.543C171.33 10.6775 171.889 10.5818 172.221 10.3904C172.57 10.1815 172.745 9.84213 172.745 9.37221C172.745 8.50199 172.011 8.06688 170.543 8.06688H168.184V10.6775ZM168.184 15.6378H170.806C172.273 15.6378 173.007 15.1592 173.007 14.2019C173.007 13.3317 172.273 12.8966 170.806 12.8966H168.184V15.6378ZM164.777 18.379V5.32568H170.806C174.65 5.32568 176.572 6.50048 176.572 8.85008C176.572 10.3643 175.454 11.3128 173.217 11.6957C175.628 11.9742 176.834 12.9401 176.834 14.5935C176.834 15.7422 176.362 16.6647 175.419 17.3609C174.493 18.0396 173.042 18.379 171.068 18.379H164.777Z" fill="#003072"/>
<path d="M179.717 18.3791V5.32577H183.125V18.3791H179.717ZM179.193 1.9319C179.193 1.35755 179.403 0.89633 179.822 0.548241C180.259 0.182747 180.801 0 181.447 0C182.094 0 182.627 0.182747 183.046 0.548241C183.465 0.89633 183.675 1.35755 183.675 1.9319C183.675 2.52365 183.465 2.99357 183.046 3.34166C182.627 3.68975 182.094 3.86379 181.447 3.86379C180.801 3.86379 180.259 3.68975 179.822 3.34166C179.403 2.99357 179.193 2.52365 179.193 1.9319Z" fill="#003072"/>
<path d="M193.085 8.32795V5.32568H205.142V8.32795H200.948V18.379H197.279V8.32795H193.085Z" fill="#003072"/>
<path d="M210.908 10.6775H213.267C214.054 10.6775 214.613 10.5818 214.945 10.3904C215.294 10.1815 215.469 9.84213 215.469 9.37221C215.469 8.50199 214.735 8.06688 213.267 8.06688H210.908V10.6775ZM210.908 15.6378H213.53C214.997 15.6378 215.731 15.1592 215.731 14.2019C215.731 13.3317 214.997 12.8966 213.53 12.8966H210.908V15.6378ZM207.501 18.379V5.32568H213.53C217.374 5.32568 219.296 6.50048 219.296 8.85008C219.296 10.3643 218.178 11.3128 215.941 11.6957C218.352 11.9742 219.558 12.9401 219.558 14.5935C219.558 15.7422 219.086 16.6647 218.143 17.3609C217.217 18.0396 215.766 18.379 213.792 18.379H207.501Z" fill="#003072"/>
<path d="M226.321 8.9284C225.761 9.57237 225.482 10.5209 225.482 11.774C225.482 13.0271 225.761 14.0105 226.321 14.7241C226.897 15.4203 227.622 15.7683 228.496 15.7683C229.317 15.7683 229.999 15.4377 230.541 14.7763C231.082 14.1149 231.371 13.1838 231.406 11.9829V11.5913C231.371 10.3904 231.082 9.48534 230.541 8.87619C230.016 8.24963 229.335 7.93635 228.496 7.93635C227.622 7.93635 226.897 8.26703 226.321 8.9284ZM223.333 16.7865C222.214 15.4638 221.655 13.7929 221.655 11.774C221.655 9.75511 222.214 8.11039 223.333 6.83986C224.451 5.56934 225.901 4.93408 227.684 4.93408C229.414 4.93408 230.759 5.70857 231.72 7.25757L232.454 5.32568H235.206V18.379H232.454L231.641 16.4732C230.698 18.0048 229.379 18.7706 227.684 18.7706C225.919 18.7706 224.468 18.1092 223.333 16.7865Z" fill="#003072"/>
<path d="M242.545 11.774C242.545 12.9749 242.799 13.9409 243.305 14.6719C243.812 15.4029 244.529 15.7683 245.455 15.7683C246.398 15.7683 247.132 15.4029 247.656 14.6719C248.198 13.9235 248.469 12.9575 248.469 11.774C248.469 10.5905 248.207 9.65939 247.683 8.98061C247.158 8.28444 246.416 7.93635 245.455 7.93635C244.581 7.93635 243.882 8.29314 243.358 9.00672C242.851 9.7203 242.58 10.5905 242.545 11.6174V11.774ZM238.876 22.9999V5.32568H241.497L242.205 7.33589C243.166 5.73468 244.52 4.93408 246.267 4.93408C248.154 4.93408 249.631 5.56064 250.697 6.81376C251.763 8.06688 252.296 9.7203 252.296 11.774C252.296 13.8103 251.745 15.4899 250.645 16.8126C249.544 18.1179 248.085 18.7706 246.267 18.7706C244.712 18.7706 243.471 18.1354 242.545 16.8648V22.9999H238.876Z" fill="#003072"/>
<path d="M255.179 18.379V5.32568H258.849V13.0271L263.829 5.32568H267.76V18.379H264.091V10.6775L259.111 18.379H255.179Z" fill="#003072"/>
<path d="M271.43 18.379V5.32568H275.099V10.0249H280.08V5.32568H283.749V18.379H280.08V13.0271H275.099V18.379H271.43Z" fill="#003072"/>
<path d="M287.419 18.379V5.32568H291.088V13.0271L296.068 5.32568H300V18.379H296.33V10.6775L291.35 18.379H287.419Z" fill="#003072"/>
<path d="M76 31.9748V24.2288H77.5224L79.6956 28.1876L81.8799 24.2288H83.4023V31.9748H82.0675V26.254L80.1479 29.8009H79.2323L77.3348 26.3341V31.9748H76Z" fill="#003072"/>
<path d="M86.3478 27.7071C86.0904 28.0351 85.9617 28.4928 85.9617 29.0801C85.9617 29.6674 86.0904 30.1365 86.3478 30.4874C86.6126 30.8383 86.9509 31.0137 87.3627 31.0137C87.7672 31.0137 88.0945 30.8421 88.3445 30.4989C88.5946 30.148 88.7196 29.6751 88.7196 29.0801V28.9886C88.7049 28.4241 88.5725 27.9893 88.3225 27.6842C88.0798 27.3715 87.7599 27.2151 87.3627 27.2151C86.9509 27.2151 86.6126 27.3791 86.3478 27.7071ZM84.6158 29.0801C84.6158 28.2029 84.8475 27.4897 85.3108 26.9405C85.7741 26.3837 86.3735 26.1053 87.109 26.1053C87.8371 26.1053 88.4034 26.4447 88.8079 27.1236L89.0285 26.254H90.0324V31.9748H89.0285L88.7748 31.0938C88.3776 31.7803 87.8224 32.1236 87.109 32.1236C86.3809 32.1236 85.7815 31.8375 85.3108 31.2654C84.8475 30.6934 84.6158 29.9649 84.6158 29.0801Z" fill="#003072"/>
<path d="M92.8565 29.0801C92.8565 29.6522 92.9742 30.1175 93.2096 30.476C93.4449 30.8345 93.7795 31.0137 94.2134 31.0137C94.64 31.0137 94.9783 30.8345 95.2284 30.476C95.4858 30.1175 95.6145 29.6522 95.6145 29.0801C95.6145 28.508 95.4895 28.0542 95.2394 27.7185C94.9893 27.3829 94.6474 27.2151 94.2134 27.2151C93.7869 27.2151 93.4523 27.3982 93.2096 27.7643C92.9742 28.1304 92.8565 28.569 92.8565 29.0801ZM91.5769 34V26.254H92.5476L92.7573 27.1465C93.1544 26.4523 93.7244 26.1053 94.4672 26.1053C95.2247 26.1053 95.8278 26.3799 96.2764 26.9291C96.7324 27.4706 96.9604 28.1876 96.9604 29.0801C96.9604 29.9649 96.7287 30.6934 96.2654 31.2654C95.802 31.8375 95.2026 32.1236 94.4672 32.1236C93.7906 32.1236 93.2537 31.8299 92.8565 31.2426V34H91.5769Z" fill="#003072"/>
<path d="M98.1738 31.9748V26.254H99.3873V31.9748H98.1738ZM97.9753 24.7666C97.9753 24.5378 98.0525 24.3547 98.2069 24.2174C98.3614 24.0725 98.5563 24 98.7916 24C99.027 24 99.2219 24.0725 99.3763 24.2174C99.5308 24.3547 99.608 24.5378 99.608 24.7666C99.608 25.0031 99.5308 25.1899 99.3763 25.3272C99.2219 25.4645 99.027 25.5332 98.7916 25.5332C98.5563 25.5332 98.3614 25.4645 98.2069 25.3272C98.0525 25.1899 97.9753 25.0031 97.9753 24.7666Z" fill="#003072"/>
<path d="M100.38 26.254H101.77L103.326 30.4073L104.738 26.254H106.073L104.01 31.9176C103.73 32.627 103.407 33.1495 103.039 33.4851C102.671 33.8284 102.197 34 101.616 34H101.075V32.7986H101.583C102.039 32.7986 102.395 32.4783 102.653 31.8375L100.38 26.254Z" fill="#003072"/>
<path d="M107.065 31.9748V26.254H111.964V31.9748H110.684V27.3867H108.345V31.9748H107.065Z" fill="#003072"/>
<path d="M114.898 27.7185C114.641 28.0542 114.512 28.508 114.512 29.0801C114.512 29.6522 114.641 30.1175 114.898 30.476C115.155 30.8345 115.508 31.0137 115.957 31.0137C116.406 31.0137 116.759 30.8345 117.016 30.476C117.274 30.1175 117.402 29.6522 117.402 29.0801C117.402 28.508 117.274 28.0542 117.016 27.7185C116.759 27.3829 116.406 27.2151 115.957 27.2151C115.508 27.2151 115.155 27.3829 114.898 27.7185ZM113.177 29.0801C113.177 28.2029 113.434 27.4897 113.949 26.9405C114.464 26.3837 115.133 26.1053 115.957 26.1053C116.781 26.1053 117.45 26.3837 117.965 26.9405C118.48 27.4897 118.737 28.2029 118.737 29.0801C118.737 29.9649 118.476 30.6934 117.954 31.2654C117.439 31.8375 116.773 32.1236 115.957 32.1236C115.141 32.1236 114.471 31.8375 113.949 31.2654C113.434 30.6934 113.177 29.9649 113.177 29.0801Z" fill="#003072"/>
<path d="M119.399 31.9748V30.7048H119.708C120.039 30.7048 120.274 30.4531 120.414 29.9497C120.561 29.4462 120.635 28.6377 120.635 27.524V26.254H124.716V31.9748H123.437V27.3867H121.914V27.833C121.914 29.3204 121.734 30.3844 121.374 31.0252C121.021 31.6583 120.476 31.9748 119.741 31.9748H119.399Z" fill="#003072"/>
<path d="M127.54 30.8421H128.71C129.026 30.8421 129.272 30.7658 129.449 30.6133C129.633 30.4531 129.725 30.251 129.725 30.0069C129.725 29.5263 129.375 29.286 128.677 29.286H127.54V30.8421ZM126.261 31.9748V26.254H127.54V28.1533H128.688C129.408 28.1533 129.986 28.3135 130.42 28.6339C130.854 28.9466 131.071 29.4043 131.071 30.0069C131.071 30.5942 130.868 31.0709 130.464 31.4371C130.059 31.7956 129.511 31.9748 128.82 31.9748H126.261Z" fill="#003072"/>
<path d="M131.843 29.0801C131.843 28.1876 132.097 27.4706 132.604 26.9291C133.119 26.3799 133.784 26.1053 134.601 26.1053C135.424 26.1053 136.061 26.3837 136.509 26.9405C136.789 27.2914 136.928 27.7376 136.928 28.2792H135.594C135.594 27.9741 135.524 27.7338 135.384 27.5584C135.207 27.3295 134.928 27.2151 134.546 27.2151C134.156 27.2151 133.832 27.3829 133.575 27.7185C133.317 28.0465 133.189 28.5004 133.189 29.0801C133.189 29.6598 133.317 30.1289 133.575 30.4874C133.832 30.8383 134.156 31.0137 134.546 31.0137C134.921 31.0137 135.204 30.8955 135.395 30.659C135.542 30.476 135.616 30.2319 135.616 29.9268H136.951C136.951 30.4683 136.814 30.9146 136.542 31.2654C136.086 31.8375 135.439 32.1236 134.601 32.1236C133.792 32.1236 133.13 31.8413 132.615 31.2769C132.1 30.7124 131.843 29.9802 131.843 29.0801Z" fill="#003072"/>
<path d="M139.444 30.8421H140.613C140.929 30.8421 141.176 30.7658 141.352 30.6133C141.536 30.4531 141.628 30.251 141.628 30.0069C141.628 29.5263 141.279 29.286 140.58 29.286H139.444V30.8421ZM138.164 31.9748V26.254H139.444V28.1533H140.591C141.312 28.1533 141.889 28.3135 142.323 28.6339C142.757 28.9466 142.974 29.4043 142.974 30.0069C142.974 30.5942 142.772 31.0709 142.367 31.4371C141.963 31.7956 141.415 31.9748 140.723 31.9748H138.164Z" fill="#003072"/>
<path d="M144.187 31.9748V26.254H145.467V28.405H145.93L147.64 26.254H149.074L146.89 29L149.163 31.9748H147.618L145.754 29.5378H145.467V31.9748H144.187Z" fill="#003072"/>
<path d="M150.762 28.4279H153.432C153.425 28.0618 153.311 27.7567 153.09 27.5126C152.869 27.2685 152.549 27.1465 152.13 27.1465C151.711 27.1465 151.38 27.2723 151.137 27.524C150.895 27.7681 150.77 28.0694 150.762 28.4279ZM150.167 31.2883C149.644 30.7239 149.383 29.9878 149.383 29.0801C149.383 28.1724 149.633 27.4516 150.133 26.9176C150.641 26.376 151.307 26.1053 152.13 26.1053C152.932 26.1053 153.568 26.3684 154.039 26.8947C154.517 27.4134 154.756 28.077 154.756 28.8856V29.3089H150.74C150.755 29.8276 150.891 30.2433 151.148 30.5561C151.406 30.8612 151.751 31.0137 152.185 31.0137C152.641 31.0137 152.972 30.8802 153.178 30.6133C153.296 30.4455 153.355 30.2853 153.355 30.1327H154.69C154.69 30.4836 154.565 30.8307 154.315 31.1739C153.836 31.807 153.127 32.1236 152.185 32.1236C151.362 32.1236 150.689 31.8452 150.167 31.2883Z" fill="#003072"/>
<path d="M159.036 31.9748V24.2288H160.371V27.2838H160.923L163.416 24.2288H164.949L161.904 27.9245L165.137 31.9748H163.482L160.735 28.4737H160.371V31.9748H159.036Z" fill="#003072"/>
<path d="M167.078 27.7185C166.821 28.0542 166.692 28.508 166.692 29.0801C166.692 29.6522 166.821 30.1175 167.078 30.476C167.336 30.8345 167.689 31.0137 168.137 31.0137C168.586 31.0137 168.939 30.8345 169.196 30.476C169.454 30.1175 169.582 29.6522 169.582 29.0801C169.582 28.508 169.454 28.0542 169.196 27.7185C168.939 27.3829 168.586 27.2151 168.137 27.2151C167.689 27.2151 167.336 27.3829 167.078 27.7185ZM165.357 29.0801C165.357 28.2029 165.615 27.4897 166.13 26.9405C166.644 26.3837 167.314 26.1053 168.137 26.1053C168.961 26.1053 169.63 26.3837 170.145 26.9405C170.66 27.4897 170.917 28.2029 170.917 29.0801C170.917 29.9649 170.656 30.6934 170.134 31.2654C169.619 31.8375 168.954 32.1236 168.137 32.1236C167.321 32.1236 166.652 31.8375 166.13 31.2654C165.615 30.6934 165.357 29.9649 165.357 29.0801Z" fill="#003072"/>
<path d="M172.131 31.9748V26.254H173.587L175.165 28.9771L176.742 26.254H178.198V31.9748H176.919V28.1533L175.551 30.5217H174.778L173.41 28.1533V31.9748H172.131Z" fill="#003072"/>
<path d="M179.191 26.254H180.581L182.137 30.4073L183.549 26.254H184.884L182.821 31.9176C182.541 32.627 182.218 33.1495 181.85 33.4851C181.482 33.8284 181.008 34 180.427 34H179.886V32.7986H180.394C180.85 32.7986 181.206 32.4783 181.464 31.8375L179.191 26.254Z" fill="#003072"/>
<path d="M185.876 31.9748V26.254H187.156V28.405H189.605V26.254H190.885V31.9748H189.605V29.5378H187.156V31.9748H185.876Z" fill="#003072"/>
<path d="M193.83 27.7071C193.573 28.0351 193.444 28.4928 193.444 29.0801C193.444 29.6674 193.573 30.1365 193.83 30.4874C194.095 30.8383 194.433 31.0137 194.845 31.0137C195.25 31.0137 195.577 30.8421 195.827 30.4989C196.077 30.148 196.202 29.6751 196.202 29.0801V28.9886C196.187 28.4241 196.055 27.9893 195.805 27.6842C195.562 27.3715 195.242 27.2151 194.845 27.2151C194.433 27.2151 194.095 27.3791 193.83 27.7071ZM192.098 29.0801C192.098 28.2029 192.33 27.4897 192.793 26.9405C193.257 26.3837 193.856 26.1053 194.591 26.1053C195.32 26.1053 195.886 26.4447 196.29 27.1236L196.511 26.254H197.515V31.9748H196.511L196.257 31.0938C195.86 31.7803 195.305 32.1236 194.591 32.1236C193.863 32.1236 193.264 31.8375 192.793 31.2654C192.33 30.6934 192.098 29.9649 192.098 29.0801Z" fill="#003072"/>
<path d="M198.508 31.9748V30.7048H198.817C199.148 30.7048 199.383 30.4531 199.523 29.9497C199.67 29.4462 199.743 28.6377 199.743 27.524V26.254H203.825V31.9748H202.545V27.3867H201.023V27.833C201.023 29.3204 200.843 30.3844 200.482 31.0252C200.129 31.6583 199.585 31.9748 198.85 31.9748H198.508Z" fill="#003072"/>
<path d="M206.649 30.8421H207.819C208.135 30.8421 208.381 30.7658 208.558 30.6133C208.742 30.4531 208.833 30.251 208.833 30.0069C208.833 29.5263 208.484 29.286 207.785 29.286H206.649V30.8421ZM205.37 31.9748V26.254H206.649V28.1533H207.797C208.517 28.1533 209.095 28.3135 209.528 28.6339C209.962 28.9466 210.179 29.4043 210.179 30.0069C210.179 30.5942 209.977 31.0709 209.573 31.4371C209.168 31.7956 208.62 31.9748 207.929 31.9748H205.37Z" fill="#003072"/>
<path d="M211.393 31.9748V26.254H212.673V28.405H215.122V26.254H216.401V31.9748H215.122V29.5378H212.673V31.9748H211.393Z" fill="#003072"/>
<path d="M218.994 28.4279H221.663C221.656 28.0618 221.542 27.7567 221.321 27.5126C221.101 27.2685 220.781 27.1465 220.362 27.1465C219.942 27.1465 219.612 27.2723 219.369 27.524C219.126 27.7681 219.001 28.0694 218.994 28.4279ZM218.398 31.2883C217.876 30.7239 217.615 29.9878 217.615 29.0801C217.615 28.1724 217.865 27.4516 218.365 26.9176C218.872 26.376 219.538 26.1053 220.362 26.1053C221.163 26.1053 221.799 26.3684 222.27 26.8947C222.748 27.4134 222.987 28.077 222.987 28.8856V29.3089H218.972C218.986 29.8276 219.122 30.2433 219.38 30.5561C219.637 30.8612 219.983 31.0137 220.417 31.0137C220.873 31.0137 221.204 30.8802 221.41 30.6133C221.527 30.4455 221.586 30.2853 221.586 30.1327H222.921C222.921 30.4836 222.796 30.8307 222.546 31.1739C222.068 31.807 221.358 32.1236 220.417 32.1236C219.593 32.1236 218.92 31.8452 218.398 31.2883Z" fill="#003072"/>
<path d="M227.268 31.9748V24.2288H233.346V31.9748H232.011V25.4188H228.602V31.9748H227.268Z" fill="#003072"/>
<path d="M234.891 31.9748V26.254H236.104V31.9748H234.891ZM234.692 24.7666C234.692 24.5378 234.769 24.3547 234.924 24.2174C235.078 24.0725 235.273 24 235.508 24C235.744 24 235.939 24.0725 236.093 24.2174C236.247 24.3547 236.325 24.5378 236.325 24.7666C236.325 25.0031 236.247 25.1899 236.093 25.3272C235.939 25.4645 235.744 25.5332 235.508 25.5332C235.273 25.5332 235.078 25.4645 234.924 25.3272C234.769 25.1899 234.692 25.0031 234.692 24.7666Z" fill="#003072"/>
<path d="M239.049 30.8421H241.135V27.3867H239.436V27.833C239.436 28.8322 239.307 29.8352 239.049 30.8421ZM237.053 30.8421H237.77C238.013 29.7361 238.141 28.6796 238.156 27.6728V26.254H242.414V30.8421H243.297V34H242.017V31.9748H238.332V34H237.053V30.8421Z" fill="#003072"/>
<path d="M244.29 31.9748V26.254H249.188V31.9748H247.908V27.3867H245.569V31.9748H244.29Z" fill="#003072"/>
<path d="M252.012 29.0801C252.012 29.6522 252.129 30.1175 252.365 30.476C252.6 30.8345 252.935 31.0137 253.369 31.0137C253.795 31.0137 254.134 30.8345 254.384 30.476C254.641 30.1175 254.77 29.6522 254.77 29.0801C254.77 28.508 254.645 28.0542 254.395 27.7185C254.145 27.3829 253.803 27.2151 253.369 27.2151C252.942 27.2151 252.608 27.3982 252.365 27.7643C252.129 28.1304 252.012 28.569 252.012 29.0801ZM250.732 34V26.254H251.703L251.913 27.1465C252.31 26.4523 252.88 26.1053 253.622 26.1053C254.38 26.1053 254.983 26.3799 255.432 26.9291C255.888 27.4706 256.116 28.1876 256.116 29.0801C256.116 29.9649 255.884 30.6934 255.421 31.2654C254.957 31.8375 254.358 32.1236 253.622 32.1236C252.946 32.1236 252.409 31.8299 252.012 31.2426V34H250.732Z" fill="#003072"/>
<path d="M257.329 31.9748V26.254H258.609V30.0755L261.036 26.254H262.404V31.9748H261.124V28.1648L258.697 31.9748H257.329Z" fill="#003072"/>
<path d="M264.356 31.2998C263.864 30.7429 263.617 30.0145 263.617 29.1144C263.617 28.2143 263.864 27.4897 264.356 26.9405C264.849 26.3837 265.493 26.1053 266.287 26.1053C267.169 26.1053 267.835 26.3837 268.284 26.9405C268.563 27.2761 268.703 27.6995 268.703 28.2105H267.368C267.368 27.9436 267.298 27.7262 267.158 27.5584C266.982 27.3295 266.68 27.2151 266.254 27.2151C265.886 27.2151 265.574 27.3371 265.316 27.5812C265.059 27.8177 264.926 28.1304 264.919 28.5195H266.772V29.6522H264.919C264.926 30.0488 265.059 30.3768 265.316 30.6362C265.581 30.8879 265.893 31.0137 266.254 31.0137C266.673 31.0137 266.978 30.8955 267.169 30.659C267.317 30.4836 267.39 30.2624 267.39 29.9954H268.725C268.725 30.5141 268.589 30.9375 268.317 31.2654C267.861 31.8375 267.184 32.1236 266.287 32.1236C265.493 32.1236 264.849 31.849 264.356 31.2998Z" fill="#003072"/>
<path d="M269.938 31.9748V26.254H271.395L272.972 28.9771L274.55 26.254H276.006V31.9748H274.726V28.1533L273.358 30.5217H272.586L271.218 28.1533V31.9748H269.938Z" fill="#003072"/>
<path d="M277.219 29.0801C277.219 28.1876 277.473 27.4706 277.981 26.9291C278.495 26.3799 279.161 26.1053 279.977 26.1053C280.801 26.1053 281.437 26.3837 281.886 26.9405C282.165 27.2914 282.305 27.7376 282.305 28.2792H280.97C280.97 27.9741 280.9 27.7338 280.761 27.5584C280.584 27.3295 280.305 27.2151 279.922 27.2151C279.532 27.2151 279.209 27.3829 278.951 27.7185C278.694 28.0465 278.565 28.5004 278.565 29.0801C278.565 29.6598 278.694 30.1289 278.951 30.4874C279.209 30.8383 279.532 31.0137 279.922 31.0137C280.297 31.0137 280.58 30.8955 280.772 30.659C280.919 30.476 280.992 30.2319 280.992 29.9268H282.327C282.327 30.4683 282.191 30.9146 281.919 31.2654C281.463 31.8375 280.816 32.1236 279.977 32.1236C279.168 32.1236 278.506 31.8413 277.992 31.2769C277.477 30.7124 277.219 29.9802 277.219 29.0801Z" fill="#003072"/>
<path d="M282.768 27.3867V26.254H287.755V27.3867H285.901V31.9748H284.622V27.3867H282.768Z" fill="#003072"/>
<path d="M289.961 28.6453H291.13C291.476 28.6453 291.723 28.5919 291.87 28.4851C292.024 28.3707 292.101 28.1953 292.101 27.9588C292.101 27.5317 291.763 27.3181 291.086 27.3181H289.961V28.6453ZM289.961 30.9108H291.197C291.873 30.9108 292.212 30.6705 292.212 30.1899C292.212 29.7475 291.873 29.5263 291.197 29.5263H289.961V30.9108ZM288.748 31.9748V26.254H291.197C291.947 26.254 292.509 26.3913 292.885 26.6659C293.26 26.9405 293.447 27.3181 293.447 27.7986C293.447 28.447 293.035 28.8627 292.212 29.0458C293.109 29.1983 293.557 29.6369 293.557 30.3616C293.557 30.8497 293.366 31.2426 292.984 31.54C292.609 31.8299 292.05 31.9748 291.307 31.9748H288.748Z" fill="#003072"/>
<path d="M296.161 27.7185C295.904 28.0542 295.775 28.508 295.775 29.0801C295.775 29.6522 295.904 30.1175 296.161 30.476C296.418 30.8345 296.771 31.0137 297.22 31.0137C297.669 31.0137 298.022 30.8345 298.279 30.476C298.536 30.1175 298.665 29.6522 298.665 29.0801C298.665 28.508 298.536 28.0542 298.279 27.7185C298.022 27.3829 297.669 27.2151 297.22 27.2151C296.771 27.2151 296.418 27.3829 296.161 27.7185ZM294.44 29.0801C294.44 28.2029 294.697 27.4897 295.212 26.9405C295.727 26.3837 296.396 26.1053 297.22 26.1053C298.044 26.1053 298.713 26.3837 299.228 26.9405C299.743 27.4897 300 28.2029 300 29.0801C300 29.9649 299.739 30.6934 299.217 31.2654C298.702 31.8375 298.036 32.1236 297.22 32.1236C296.404 32.1236 295.734 31.8375 295.212 31.2654C294.697 30.6934 294.44 29.9649 294.44 29.0801Z" fill="#003072"/>
</svg>
