<svg width="174" height="89" viewBox="0 0 174 89" fill="none" xmlns="http://www.w3.org/2000/svg">
<path d="M56.042 86.7619C62.3506 85.5616 67.6421 83.1048 71.6257 79.3068C75.614 75.5042 78.2457 70.4003 79.2999 63.9897C82.6781 43.5753 77.7012 25.0027 63.6311 9.62194L63.6308 9.62164C58.4375 3.95087 52.3851 1.15738 46.252 1.25234C40.1251 1.3472 34.0416 4.32256 28.7714 9.94526C17.3015 22.1761 13.1022 37.2691 12.2139 54.2396L12.2107 54.3017L12.2177 54.3636C12.2992 55.0797 12.3739 55.8694 12.4534 56.7088C12.6514 58.8007 12.8786 61.2014 13.3122 63.5426L13.3123 63.543C15.2973 74.2288 21.191 81.8567 31.7163 85.4389L31.7166 85.439C39.7073 88.1537 47.8813 88.3154 56.042 86.7619ZM56.042 86.7619L55.9018 86.0251M56.042 86.7619C56.042 86.7619 56.042 86.7619 56.0421 86.7619L55.9018 86.0251M55.9018 86.0251C47.8429 87.5593 39.8034 87.3942 31.9579 84.7289M55.9018 86.0251C68.3032 83.6656 76.4979 76.4075 78.56 63.8673C81.9029 43.6659 76.9831 25.3289 63.0777 10.1282L31.9579 84.7289M31.9579 84.7289C21.7156 81.243 15.9904 73.8538 14.0497 63.406C13.6225 61.0995 13.4007 58.7563 13.2039 56.6754C13.1235 55.826 13.0473 55.0204 12.9629 54.2788L31.9579 84.7289Z" fill="#003072" stroke="white" stroke-width="1.5"/>
<path d="M82.3643 53.8582L82.395 54.592L83.1293 54.5767C85.708 54.523 87.8352 53.8092 89.397 52.3939C90.9592 50.9784 91.8685 48.9404 92.165 46.4084L92.165 46.4083C92.818 40.8242 91.3056 35.6366 89.1982 30.7326C85.363 21.7701 80.1635 13.6987 72.0076 7.86717C69.4125 6.00817 66.5045 4.53959 62.7605 4.41642L60.7805 4.35128L62.221 5.71135C76.2274 18.9357 81.5937 35.4237 82.3643 53.8582Z" fill="#003072" stroke="white" stroke-width="1.5"/>
<path d="M11.2107 54.5438L10.4994 54.5477C8.18368 54.5606 6.21372 53.9632 4.69223 52.7722C3.16979 51.5805 2.16237 49.846 1.68045 47.705L11.2107 54.5438ZM11.2107 54.5438L11.2444 53.8333M11.2107 54.5438L11.2444 53.8333M11.2444 53.8333C12.1164 35.4452 17.3785 18.9059 31.4348 5.71287L32.9428 4.29743M11.2444 53.8333L32.9428 4.29743M32.9428 4.29743L30.878 4.41728M32.9428 4.29743L30.878 4.41728M30.878 4.41728C26.4882 4.67207 23.2525 6.47385 20.399 8.76606M30.878 4.41728L20.399 8.76606M20.399 8.76606C11.6791 15.7652 6.1585 24.9308 2.77562 35.3898L20.399 8.76606ZM2.77552 35.3901C1.51216 39.2909 0.710295 43.4099 1.68038 47.7047L2.77552 35.3901Z" fill="#003072" stroke="white" stroke-width="1.5"/>
<path d="M128.122 30.6698L128.974 29.668L127.678 29.4448C127.062 29.3388 126.388 29.2157 125.672 29.085C123.834 28.7495 121.721 28.3636 119.609 28.0858L119.606 28.0855C118.415 27.9321 117.264 28.0838 116.312 28.6546C115.346 29.2335 114.67 30.1925 114.353 31.4806L114.353 31.4811C113.167 36.3146 114.371 40.8403 115.9 45.2794L116.404 46.7412L117.24 45.4409C117.809 44.5569 118.345 43.6994 118.866 42.8645C120.023 41.0127 121.111 39.2718 122.334 37.5979C123.604 35.8584 125.018 34.2396 126.445 32.6066C127.004 31.9659 127.566 31.323 128.122 30.6698Z" fill="#003072" stroke="white" stroke-width="1.5"/>
<path d="M169.529 45.6563L170.225 47.2785L170.909 45.6511C172.902 40.9104 173.616 35.8602 172.913 32.3434C172.692 31.2305 172.299 30.12 171.569 29.3071C170.803 28.455 169.727 27.9981 168.326 28.1161L168.325 28.1162C166.027 28.313 163.727 28.6941 161.462 29.0694C160.511 29.227 159.567 29.3835 158.631 29.5249L157.002 29.7712L158.258 30.8381C163.204 35.0411 166.948 39.646 169.529 45.6563Z" fill="#003072" stroke="white" stroke-width="1.5"/>
<path d="M142.107 87.4259L142.111 87.4259C158.848 87.4508 172.336 74.1709 172.371 57.6111V57.6095C172.371 40.9177 159.024 27.3575 142.512 27.3561C138.571 27.3297 134.664 28.08 131.013 29.5644C127.361 31.049 124.037 33.2389 121.23 36.009C118.424 38.779 116.191 42.075 114.658 45.7087C113.124 49.3424 112.321 53.2427 112.295 57.1869C112.268 61.131 113.018 65.0419 114.501 68.6961C115.985 72.3503 118.173 75.6764 120.942 78.4843C123.71 81.2923 127.004 83.5272 130.636 85.0614C134.267 86.5956 138.165 87.3991 142.107 87.4259Z" fill="#003072" stroke="white" stroke-width="1.5"/>
<path d="M136.254 65.5392C135.768 66.4854 135.494 67.2717 135.02 67.8852C134.088 69.0957 134.355 70.1202 135.178 71.2068C136.697 73.1971 138.459 74.6817 141.072 75.0667C141.622 70.2768 142.141 65.5783 141.248 60.9026C141.02 59.7019 140.051 58.5664 139.207 57.6235C137.353 55.5483 137.035 52.5791 138.599 50.3473C139.334 49.2327 140.431 48.4555 141.675 48.1698C142.918 47.8841 144.216 48.1108 145.311 48.805C146.406 49.4991 147.218 50.61 147.585 51.9171C147.953 53.2243 147.85 54.6322 147.297 55.8615C146.973 56.5962 146.509 57.2498 145.936 57.7801C144.766 58.8446 144.016 60.3469 143.839 61.9827C143.426 64.9192 143.736 72.2215 144.429 74.9395C146.932 74.7959 150.122 72.3879 150.857 69.9832C150.951 69.4701 150.878 68.938 150.65 68.4757C150.228 67.5132 149.691 66.6126 149.089 65.4739H153.646C153.585 69.5101 152.063 72.6783 149.089 74.9362C145.264 77.8369 141.154 78.0653 137.095 75.5235C133.617 73.3472 131.846 69.9767 131.721 65.5522L136.254 65.5392Z" fill="white"/>
<path d="M137.202 41.7015C137.197 42.0604 137.121 42.4148 136.978 42.7444C136.836 43.074 136.63 43.3724 136.372 43.6225C136.115 43.8726 135.81 44.0696 135.476 44.2021C135.142 44.3347 134.785 44.4002 134.426 44.3949C133.701 44.3671 133.015 44.061 132.511 43.5403C132.007 43.0197 131.724 42.3249 131.721 41.6008C131.735 40.875 132.036 40.1842 132.559 39.6805C133.083 39.1767 133.785 38.9012 134.512 38.9145C135.239 38.9279 135.93 39.229 136.435 39.7517C136.939 40.2743 137.215 40.9757 137.202 41.7015Z" fill="white"/>
<path d="M36.6452 60.9937C35.8689 62.4016 35.4323 63.5717 34.6754 64.4844C33.1858 66.2856 33.6128 67.81 34.9277 69.4267C37.3536 72.3882 40.1677 74.5972 44.3403 75.1701C45.2185 68.0431 46.0481 61.052 44.6217 54.0949C44.2578 52.3083 42.71 50.6187 41.3612 49.2157C38.4016 46.1279 37.8921 41.71 40.3908 38.3892C41.5641 36.7308 43.3174 35.5743 45.3031 35.1492C47.2887 34.7241 49.3615 35.0615 51.1102 36.0943C52.8588 37.1272 54.1555 38.7801 54.743 40.725C55.3305 42.67 55.1659 44.7649 54.2817 46.594C53.7647 47.6872 53.0242 48.6597 52.1081 49.4487C50.2397 51.0326 49.043 53.2679 48.7603 55.7018C48.1005 60.0713 48.5953 70.9366 49.7016 74.9807C53.6995 74.7671 58.7939 71.1842 59.9681 67.6061C60.1179 66.8427 60.0015 66.051 59.6382 65.3631C58.9638 63.9309 58.105 62.591 57.1443 60.8966H64.4221C64.3251 66.9021 61.8943 71.6163 57.1443 74.9759C51.0358 79.2919 44.4713 79.6317 37.9892 75.8498C32.4338 72.6115 29.6052 67.5964 29.4062 61.0131L36.6452 60.9937Z" fill="white"/>
<path d="M38.6169 25.8363C38.61 26.3209 38.5077 26.7993 38.3159 27.2443C38.1242 27.6893 37.8467 28.0922 37.4993 28.4298C37.1519 28.7675 36.7415 29.0334 36.2914 29.2123C35.8413 29.3913 35.3604 29.4797 34.8762 29.4727C33.9 29.4351 32.976 29.0218 32.2971 28.3189C31.6181 27.616 31.2367 26.6779 31.2324 25.7004C31.2504 24.7205 31.6567 23.7879 32.3619 23.1078C33.0671 22.4277 34.0134 22.0557 34.9926 22.0737C35.9718 22.0918 36.9038 22.4983 37.5835 23.2039C38.2632 23.9095 38.6349 24.8564 38.6169 25.8363V25.8363Z" fill="white"/>
<path d="M58.8501 29.4872C58.3659 29.5014 57.8837 29.4198 57.4311 29.2469C56.9785 29.0741 56.5645 28.8136 56.2129 28.4802C55.8612 28.1468 55.5788 27.7472 55.382 27.3043C55.1851 26.8614 55.0776 26.384 55.0657 25.8994C55.044 25.4149 55.1185 24.9309 55.2849 24.4754C55.4512 24.0199 55.7062 23.6019 56.035 23.2455C56.3637 22.8892 56.7598 22.6016 57.2003 22.3993C57.6409 22.1971 58.1171 22.0842 58.6014 22.0672C59.0858 22.0502 59.5688 22.1294 60.0224 22.3003C60.476 22.4712 60.8912 22.7303 61.2441 23.0627C61.597 23.3951 61.8806 23.7942 62.0785 24.237C62.2763 24.6797 62.3845 25.1573 62.3968 25.6421C62.426 26.6199 62.071 27.5702 61.4079 28.2891C60.7448 29.0079 59.8265 29.4381 58.8501 29.4872V29.4872Z" fill="white"/>
<path d="M150.995 44.3941C150.633 44.4046 150.273 44.3443 149.935 44.2167C149.596 44.0891 149.287 43.8967 149.024 43.6506C148.762 43.4044 148.551 43.1094 148.404 42.7824C148.257 42.4554 148.176 42.1029 148.167 41.7451C148.151 41.3874 148.207 41.0301 148.331 40.6938C148.455 40.3574 148.646 40.0488 148.891 39.7857C149.137 39.5226 149.433 39.3103 149.762 39.161C150.091 39.0116 150.447 38.9283 150.809 38.9157C151.171 38.9032 151.532 38.9617 151.87 39.0878C152.209 39.214 152.52 39.4053 152.783 39.6507C153.047 39.8962 153.259 40.1908 153.407 40.5177C153.554 40.8446 153.635 41.1972 153.644 41.5552C153.666 42.2771 153.401 42.9787 152.906 43.5095C152.41 44.0402 151.724 44.3578 150.995 44.3941V44.3941Z" fill="white"/>
</svg>
