<svg width="150" height="150" viewBox="0 0 150 150" fill="none" xmlns="http://www.w3.org/2000/svg">
<circle cx="75" cy="75" r="74.5" fill="white" stroke="#CCCCCC"/>
<path d="M101.093 96.8162C101.093 96.8162 101.093 96.9703 101.022 97.2193C100.694 99.0264 100.204 100.8 99.5596 102.519C98.6751 104.547 94.4648 112.004 94.4648 112.004L95.5498 116.036H99.8426C99.8426 116.036 100.385 114.471 97.7788 113.961C95.88 113.593 101.317 106.728 101.317 106.728L106.305 102.163L101.093 96.8162Z" fill="#D87759"/>
<path d="M101.482 85.8727C93.9223 85.8727 77.2229 84.8174 63.1299 76.3874L63.9082 75.0476C82.2705 85.9912 105.185 84.2009 105.444 84.189L105.574 85.7304C105.515 85.7541 104.006 85.8727 101.482 85.8727Z" fill="#442332"/>
<path d="M37.5266 115.976H39.2013C39.3607 115.972 39.5165 115.928 39.6547 115.848C39.7928 115.768 39.9088 115.655 39.992 115.518C40.0753 115.381 40.1231 115.226 40.1313 115.065C40.1394 114.905 40.1075 114.746 40.0386 114.601C39.826 114.17 39.5194 113.793 39.1416 113.497C38.7639 113.201 38.3247 112.995 37.8568 112.894L37.5266 112.823L36.3473 109.112L31.9012 106.207L29 111.044L33.0687 114.601C34.1052 115.489 35.4221 115.976 36.7836 115.976H37.5266Z" fill="#442332"/>
<path d="M53.4713 109.977L52.4688 114.044C52.4136 114.274 52.4109 114.513 52.4609 114.744C52.5109 114.975 52.6124 115.192 52.7577 115.378C52.903 115.564 53.0883 115.714 53.2997 115.818C53.5111 115.922 53.7432 115.976 53.9784 115.976H63.873C64.0847 115.975 64.2935 115.926 64.4835 115.832C64.6736 115.738 64.8401 115.603 64.9706 115.435C65.1011 115.267 65.1921 115.072 65.2369 114.864C65.2817 114.656 65.2791 114.44 65.2292 114.234C65.1696 113.984 65.0438 113.755 64.8653 113.571C64.6867 113.387 64.462 113.256 64.215 113.19L60.8421 112.301L59.0259 109.93L53.4713 109.977Z" fill="#442332"/>
<path d="M46.5013 47.7181H40.3452V56.4564H46.5013V47.7181Z" fill="#E8A87E"/>
<path d="M50.4283 75.4744H39.6138L38.6113 57.4762C38.6113 56.8648 38.7313 56.2595 38.9644 55.6948C39.1974 55.1301 39.539 54.6172 39.9695 54.1855C40.4001 53.7537 40.9111 53.4116 41.4734 53.1788C42.0356 52.9459 42.638 52.8268 43.2461 52.8284H43.3758C47.7984 52.8284 51.3953 58.3891 51.3953 62.8472L50.4283 75.4744Z" fill="#FDBC16"/>
<path d="M60.7713 109.977H52.8579L48.1406 96.6976L41.666 86.6551C39.7215 83.6216 38.9418 79.9802 39.4725 76.411L39.614 75.4744H50.4521L56.0421 93.9943L60.7713 109.977Z" fill="#2C394F"/>
<path d="M37.515 111.091L31.9014 106.207L38.6118 94.101L39.5906 75.4862H50.4287L45.8765 97.6343L37.515 111.091Z" fill="#414E68"/>
<path d="M62.4696 73.0083L58.9316 76.5653L59.9813 77.6087C60.211 77.8467 60.486 78.036 60.7898 78.1653C61.0937 78.2945 61.4203 78.3611 61.7503 78.3611C62.0802 78.3611 62.4068 78.2945 62.7107 78.1653C63.0145 78.036 63.2895 77.8467 63.5193 77.6087C63.7561 77.3777 63.9443 77.1012 64.0729 76.7957C64.2015 76.4902 64.2677 76.1619 64.2677 75.8302C64.2677 75.4984 64.2015 75.1701 64.0729 74.8646C63.9443 74.5591 63.7561 74.2827 63.5193 74.0517L62.4696 73.0083Z" fill="#EAB68F"/>
<path d="M45.9586 56.4091C45.7288 56.171 45.4539 55.9817 45.15 55.8525C44.8461 55.7232 44.5195 55.6566 44.1896 55.6566C43.8596 55.6566 43.5331 55.7232 43.2292 55.8525C42.9253 55.9817 42.6503 56.171 42.4206 56.4091C42.1852 56.6409 41.9983 56.9176 41.8706 57.223C41.743 57.5284 41.6772 57.8563 41.6772 58.1876C41.6772 58.5188 41.743 58.8467 41.8706 59.1521C41.9983 59.4575 42.1852 59.7342 42.4206 59.966L58.9313 76.5652L62.4693 73.0083L45.9586 56.4091Z" fill="#FCDB1A"/>
<path d="M41.3006 44.7896C40.8053 43.604 41.4185 40.8177 42.7512 41.7069C43.6625 42.5016 44.2676 43.5925 44.4612 44.7896L45.5108 42.276L46.4543 37.9365L47.7515 37.8535C49.2493 37.7468 50.4994 36.5019 50.1102 35.1858C49.9097 34.4626 48.7658 34.0001 44.3904 34.0001C38.0102 33.9764 36.5479 36.7983 36.5479 40.2723C36.7608 42.9808 37.9274 45.5241 39.8382 47.4455C40.5458 46.8052 41.6308 45.6314 41.3006 44.7896Z" fill="#773417"/>
<path d="M46.5011 37.9483L45.5105 42.276L44.4137 44.7777C44.2201 43.5806 43.615 42.4897 42.7037 41.695C41.4182 40.8176 40.7932 43.5802 41.3003 44.7896C41.6305 45.6314 40.5455 46.8052 39.8379 47.4454C40.5655 48.1392 41.4348 48.6652 42.3853 48.9868C51.4072 52.0814 51.4072 44.6473 51.4072 41.1496C51.3285 39.5125 50.8593 37.9184 50.0391 36.5018L46.5011 37.9483Z" fill="#EAB68F"/>
<path d="M74.6758 98.8792C74.6758 98.8792 79.0747 104.499 77.8836 106.906C77.2796 108.22 76.4077 109.391 75.3244 110.345L79.8531 115.976H84.5704C84.5704 115.976 84.936 114.34 83.6505 113.807C83.0954 113.493 82.4517 113.376 81.8226 113.475L79.4639 110.214C79.4639 110.214 87.6013 99.7448 85.3606 93.6149C83.1198 87.4851 74.6758 98.8792 74.6758 98.8792Z" fill="#CC6444"/>
<path d="M78.6385 102.033C82.1166 102.033 84.9361 99.1984 84.9361 95.7016C84.9361 92.2049 82.1166 89.3702 78.6385 89.3702C75.1604 89.3702 72.3408 92.2049 72.3408 95.7016C72.3408 99.1984 75.1604 102.033 78.6385 102.033Z" fill="#EC9738"/>
<path d="M115.681 88.3151L114.749 88.0779L115.481 88.5403L117.698 89.5718C117.698 89.5718 117.049 90.5915 114.16 89.8445L113.782 89.5837C113.305 89.7547 112.803 89.8429 112.296 89.8445C112.139 89.8563 111.982 89.8563 111.825 89.8445C111.424 89.8012 111.029 89.7178 110.645 89.5956C110.645 90.9709 110.645 92.4056 110.645 93.8165C110.645 100.1 107.532 101.5 107.532 101.5L100.715 88.9672L108.228 82.7188C108.768 81.8037 109.599 81.098 110.586 80.715C111.091 80.52 111.626 80.4195 112.167 80.4186C113.179 80.4288 114.162 80.7663 114.969 81.3812C115.776 81.9962 116.365 82.8559 116.648 83.8333C118.311 84.3787 120.929 85.3391 120.929 85.9556C120.929 86.8567 118.134 88.9672 118.134 88.9672L115.681 88.3151Z" fill="#EC9738"/>
<path d="M78.1548 94.9666V89.3703L100.715 88.9672V104.63C100.715 104.63 90.8091 104.784 78.1548 94.9666Z" fill="#EC9738"/>
<path d="M72.9422 96.745C72.9422 96.745 73.5201 103.859 71.2086 105.222C68.8971 106.586 69.0975 107.084 69.0975 107.084L67.3403 113.605L69.6282 115.976H71.9869C72.1315 115.882 72.2539 115.758 72.3454 115.611C72.4369 115.465 72.4954 115.3 72.5168 115.128C72.5381 114.956 72.5218 114.782 72.469 114.617C72.4162 114.452 72.3281 114.301 72.211 114.174C71.9494 113.833 71.6005 113.57 71.2016 113.414C70.8026 113.257 70.3688 113.213 69.9467 113.285L71.3147 109.728C71.3147 109.728 83.2496 104.642 84.8063 98.2508C86.363 91.8601 72.9422 96.745 72.9422 96.745Z" fill="#EC9738"/>
<path d="M101.258 99.2823C101.258 99.2823 101.329 99.4128 101.47 99.6262C102.001 100.492 102.803 105.875 103.392 107.535C104.112 109.621 110.563 115.976 110.563 115.976H113.275C113.275 115.976 114.702 114.791 113.959 114.269C113.173 113.685 112.235 113.343 111.259 113.285C109.336 113.107 108.086 106.373 108.086 106.373L108.64 99.6143L101.258 99.2823Z" fill="#EC9738"/>
<path d="M75.808 90.0461C74.1006 90.3213 72.5526 91.2155 71.4562 92.5597C69.5103 94.8481 66.9983 101.855 64.1561 102.045C62.8616 102.163 61.5589 102.163 60.2643 102.045C60.2643 102.045 58.7194 105.021 62.2928 105.495C65.8662 105.97 66.0313 106.29 67.8475 104.653C69.6636 103.017 73.8857 94.1248 73.8857 94.1248L75.808 90.0461Z" fill="#EC9738"/>
<path d="M105.815 83.3498L104.181 84.9933L110.803 91.6489L112.437 90.0054L105.815 83.3498Z" fill="#442332"/>
<path d="M113.676 79.7902H109.796L109.065 84.9596C109.708 85.3325 110.309 85.7737 110.858 86.2757C110.928 86.5128 113.216 85.0071 113.216 85.0071L113.145 80.7031L113.676 79.7902Z" fill="#FDBC16"/>
<path d="M113.676 79.7902L113.11 80.6794L113.181 84.9597L114.172 81.8177L113.688 79.7665L113.676 79.7902Z" fill="#D87759"/>
<path d="M109.065 96.8162C109.065 98.3668 108.607 99.8825 107.75 101.172C106.893 102.461 105.675 103.465 104.25 104.058C102.825 104.651 101.257 104.805 99.7444 104.502C98.2319 104.199 96.8429 103.451 95.7532 102.354C94.6634 101.256 93.9219 99.8589 93.6225 98.3379C93.323 96.8168 93.4791 95.2407 94.0709 93.8088C94.6627 92.377 95.6637 91.1538 96.9472 90.2941C98.2307 89.4343 99.739 88.9767 101.281 88.979C102.305 88.9774 103.319 89.1792 104.265 89.5726C105.21 89.9661 106.07 90.5435 106.793 91.2717C107.516 91.9999 108.089 92.8646 108.479 93.8161C108.869 94.7676 109.068 95.7871 109.065 96.8162Z" fill="#EC9738"/>
</svg>
