<svg width="150" height="150" viewBox="0 0 150 150" fill="none" xmlns="http://www.w3.org/2000/svg">
<circle cx="75" cy="75" r="74.5" fill="white" stroke="#CCCCCC"/>
<g clip-path="url(#clip0)">
<path d="M99.0001 79.5224V107.197C99.0023 107.554 98.8723 107.9 98.6353 108.167C98.3983 108.434 98.071 108.604 97.7166 108.643H97.569L64.0053 116C64.1962 116 64.3853 115.962 64.5617 115.889C64.7381 115.816 64.8983 115.708 65.0333 115.573C65.1683 115.438 65.2754 115.277 65.3485 115.1C65.4216 114.923 65.4592 114.734 65.4592 114.542V86.868C65.4569 82.2049 64.9156 77.5577 63.8463 73.0195L60.8818 60.492C59.8171 55.9378 59.2797 51.2757 59.2803 46.598V40.3456L92.8212 33V39.2523C92.8175 43.9158 93.3588 48.5637 94.4341 53.1009L97.3872 65.6283C97.6371 66.6874 97.8643 67.7466 98.0574 68.8171C98.6861 72.3506 99.0015 75.933 99.0001 79.5224Z" fill="#FF8383"/>
<path d="M65.4591 86.8681V114.542C65.4591 114.734 65.4215 114.923 65.3484 115.1C65.2753 115.277 65.1682 115.438 65.0332 115.573C64.8982 115.708 64.738 115.816 64.5616 115.889C64.3852 115.962 64.1961 116 64.0052 116H63.903C63.6906 115.989 63.484 115.926 63.301 115.818L51.7496 109.372C51.5233 109.245 51.3346 109.06 51.2029 108.836C51.0712 108.612 51.0011 108.357 51 108.096V81.2307C51.0012 74.9718 51.9745 68.7512 53.885 62.7926V62.6104C55.8194 56.6521 56.812 50.4269 56.8268 44.1609V40.3457H59.2802V46.598C59.284 51.2567 59.8213 55.8995 60.8817 60.4352L63.8462 73.0196C64.9155 77.5578 65.4568 82.2049 65.4591 86.8681Z" fill="#F76262"/>
<path d="M92.821 33H90.3676L56.8267 40.3456H59.28L92.821 33Z" fill="#FFE357"/>
<path d="M96.1263 95.4777L95.8765 94.6577C96.0453 94.8971 96.1329 95.1846 96.1263 95.4777Z" fill="#664A4A"/>
<path d="M84.7228 101.104H84.6433C83.2834 101.455 81.9876 102.02 80.8042 102.778C79.5321 103.564 77.8625 104.213 77.3968 102.584L77.1242 101.867C77.0022 101.316 77.0449 100.741 77.2469 100.215C77.449 99.688 77.8013 99.2327 78.26 98.9058L79.6911 97.915C80.552 97.2604 81.152 96.3196 81.3835 95.2614L81.4744 94.8742C81.6487 94.0506 82.0398 93.2887 82.607 92.6679C83.1743 92.047 83.897 91.5898 84.7001 91.3438L84.7228 101.104Z" fill="#CC6444"/>
<path d="M80.8154 92.3004C80.8154 92.3004 83.689 91.3324 83.7685 90.0227C83.848 88.713 83.7685 85.2964 83.7685 85.2964C83.6928 85.0588 83.5576 84.8446 83.3757 84.6744C83.1939 84.5042 82.9715 84.3836 82.7299 84.3242C82.4883 84.2648 82.2355 84.2685 81.9958 84.335C81.756 84.4016 81.5373 84.5287 81.3606 84.7042C79.8604 85.9832 78.882 87.7708 78.6119 89.7266C78.6005 92.3915 80.8154 92.3004 80.8154 92.3004Z" fill="#CC6444"/>
<path d="M76.9309 98.3819C76.9309 98.3819 79.5547 96.6167 79.2026 95.5006C78.8505 94.3845 77.5329 91.5715 77.5329 91.5715C77.343 91.4012 77.1192 91.2731 76.8763 91.1957C76.6335 91.1183 76.377 91.0933 76.1238 91.1223C75.8707 91.1514 75.6265 91.2338 75.4073 91.3642C75.1882 91.4947 74.9991 91.6701 74.8524 91.879C74.3051 92.5825 73.9195 93.3984 73.7232 94.2686C73.5268 95.1387 73.5246 96.0416 73.7165 96.9128C73.9606 97.5255 74.4311 98.0202 75.0298 98.2939C75.6286 98.5675 76.3096 98.5991 76.9309 98.3819Z" fill="#CC6444"/>
<path d="M84.7227 101.104H84.8135C86.0861 100.879 87.3904 100.906 88.6526 101.183C89.9134 101.457 91.5944 101.434 92.0601 99.4979L92.2645 98.621C92.4463 98.1216 92.4298 97.5713 92.2184 97.0838C92.007 96.5963 91.6169 96.2089 91.1287 96.0016L89.743 95.5688C89.3168 95.4225 88.9363 95.1667 88.6394 94.827C88.3424 94.4874 88.1394 94.0756 88.0506 93.6328L87.9598 93.2683C87.8949 92.9181 87.7573 92.5854 87.5559 92.2919C87.3544 91.9984 87.0936 91.7508 86.7905 91.5649C86.4873 91.3791 86.1486 91.2593 85.7962 91.2134C85.4439 91.1674 85.0859 91.1963 84.7454 91.2981L84.7227 101.104Z" fill="#BC5539"/>
<path d="M88.6411 90.3187C88.6411 90.3187 85.7675 90.7971 85.6766 89.5329C85.5857 88.2688 85.6766 84.7611 85.6766 84.7611C85.6766 84.7611 86.4263 82.4834 88.0959 82.7795C88.8604 83.058 89.5268 83.5547 90.0132 84.2083C90.4996 84.8619 90.7847 85.6439 90.8333 86.458C90.8575 87.2415 90.6657 88.0165 90.279 88.6976C89.8922 89.3788 89.3254 89.9398 88.6411 90.3187Z" fill="#BC5539"/>
<path d="M92.5142 94.7602C92.5142 94.7602 89.9018 94.168 90.2426 92.8127C90.5833 91.4575 91.8895 87.8132 91.8895 87.8132C91.8895 87.8132 93.332 85.6493 94.6155 86.6743C95.899 87.6993 96.0694 90.387 95.6718 91.6055C95.4947 92.3759 95.1045 93.0806 94.546 93.6387C93.9874 94.1967 93.2832 94.5854 92.5142 94.7602Z" fill="#BC5539"/>
</g>
<defs>
<clipPath id="clip0">
<rect x="51" y="33" width="48" height="83" fill="white"/>
</clipPath>
</defs>
</svg>
