<svg width="150" height="150" viewBox="0 0 150 150" fill="none" xmlns="http://www.w3.org/2000/svg">
<circle cx="75" cy="75" r="74.5" fill="white" stroke="#CCCCCC"/>
<g clip-path="url(#clip0)">
<path d="M85.7901 63.92H65.1901C63.0453 63.9174 60.9891 63.0642 59.4725 61.5476C57.9559 60.031 57.1027 57.9748 57.1001 55.83V44.09C57.1027 41.9452 57.9559 39.889 59.4725 38.3724C60.9891 36.8558 63.0453 36.0026 65.1901 36H85.7901C87.9349 36.0026 89.9911 36.8558 91.5077 38.3724C93.0243 39.889 93.8774 41.9452 93.8801 44.09V55.83C93.8774 57.9748 93.0243 60.031 91.5077 61.5476C89.9911 63.0642 87.9349 63.9174 85.7901 63.92ZM65.1901 40.06C64.1292 40.06 63.1118 40.4814 62.3617 41.2316C61.6115 41.9817 61.1901 42.9991 61.1901 44.06V55.83C61.1901 56.8909 61.6115 57.9083 62.3617 58.6584C63.1118 59.4086 64.1292 59.83 65.1901 59.83H85.7901C86.851 59.83 87.8684 59.4086 88.6185 58.6584C89.3687 57.9083 89.7901 56.8909 89.7901 55.83V44.09C89.7901 43.0291 89.3687 42.0117 88.6185 41.2616C87.8684 40.5114 86.851 40.09 85.7901 40.09L65.1901 40.06Z" fill="#414E68"/>
<path d="M107.57 49.54H43.41C39.8699 49.54 37 52.4099 37 55.95V91.89C37 95.4302 39.8699 98.3 43.41 98.3H107.57C111.11 98.3 113.98 95.4302 113.98 91.89V55.95C113.98 52.4099 111.11 49.54 107.57 49.54Z" fill="#93A2BA"/>
<path d="M107.57 49.54H43.41C39.8699 49.54 37 52.4099 37 55.95V91.89C37 95.4302 39.8699 98.3 43.41 98.3H107.57C111.11 98.3 113.98 95.4302 113.98 91.89V55.95C113.98 52.4099 111.11 49.54 107.57 49.54Z" fill="#798BA5"/>
<path d="M111.95 92.0201V55.8201C111.95 53.4729 110.047 51.5701 107.7 51.5701L43.2802 51.5701C40.933 51.5701 39.0302 53.4729 39.0302 55.8201V92.0201C39.0302 94.3673 40.933 96.2701 43.2802 96.2701H107.7C110.047 96.2701 111.95 94.3673 111.95 92.0201Z" fill="#93A2BA"/>
<path d="M68.1798 59.71C67.532 60.0893 66.9757 60.6068 66.5505 61.2256C66.1253 61.8443 65.8417 62.5492 65.7198 63.29C65.5798 63.9 68.1798 63.59 68.1798 63.59V59.71Z" fill="#823759"/>
<path d="M51 86C51.0355 86.2624 51.0148 86.5293 50.9393 86.7831C50.8639 87.0368 50.7354 87.2717 50.5624 87.4721C50.3894 87.6725 50.1758 87.8339 49.9358 87.9456C49.6958 88.0573 49.4348 88.1167 49.17 88.12H41.54C41.54 88.12 41.72 86.32 44.45 86.58C49.94 87.09 50.78 84.52 50.78 84.52L51 86Z" fill="#823759"/>
<path d="M60.8098 70.0801C59.1298 70.8101 50.3698 79.2201 50.3898 83.2101C50.3528 84.5806 50.6049 85.9435 51.1298 87.2101C51.2589 87.5021 51.4686 87.7512 51.7343 87.9283C52 88.1054 52.3106 88.2032 52.6298 88.2101H60.6298C60.6298 88.2101 61.1298 87.1201 60.1798 86.7201C58.861 86.4764 57.5145 86.4192 56.1798 86.5501C56.6873 86.6674 57.2179 86.6354 57.7076 86.458C58.1973 86.2805 58.6252 85.9652 58.9398 85.5501C59.264 85.1761 59.4641 84.7107 59.5125 84.2181C59.5609 83.7255 59.4551 83.23 59.2098 82.8001L62.5698 80.1901L62.8998 85.9401L63.7998 88.2501H65.9998C65.9998 88.2501 66.2198 87.1601 65.5998 86.8701C64.9798 86.5801 64.5998 85.2201 64.5998 85.2201L65.4398 80.3701L65.9098 78.0001C67.1698 76.6601 67.1198 77.4601 68.0798 75.0601L69.4398 70.2901C69.5109 69.312 69.4707 68.3291 69.3198 67.3601L71.7898 67.2001C72.6098 67.1401 72.7898 66.7901 72.7898 66.7901C72.7898 66.7901 73.9998 65.4101 73.7998 65.0601C73.5998 64.7101 72.3498 64.4901 71.4198 64.0601C71.1398 63.9201 70.7998 63.0601 70.1398 62.6101L68.1398 61.8401C67.4185 62.0507 66.741 62.3894 66.1398 62.8401C65.5471 63.202 65.1064 63.7671 64.8998 64.4301C64.7898 64.5701 62.8098 69.2301 60.8098 70.0801Z" fill="#823759"/>
<path d="M93.2901 88.13C101.138 88.13 107.5 81.7679 107.5 73.92C107.5 66.072 101.138 59.71 93.2901 59.71C85.4421 59.71 79.0801 66.072 79.0801 73.92C79.0801 81.7679 85.4421 88.13 93.2901 88.13Z" fill="#B74671"/>
<path d="M96.1699 64.52H90.4199V83.32H96.1699V64.52Z" fill="white"/>
<path d="M83.8901 71.04V76.79H102.69V71.04H83.8901Z" fill="white"/>
</g>
<defs>
<clipPath id="clip0">
<rect x="37" y="36" width="76.98" height="62.3" fill="white"/>
</clipPath>
</defs>
</svg>
