<svg width="206" height="180" viewBox="0 0 206 180" fill="none" xmlns="http://www.w3.org/2000/svg">
<path d="M199.593 57.7336C194.645 51.8386 188.13 48.5918 181.246 48.5918C174.809 48.5918 168.339 51.2819 162.017 56.5897C155.264 62.2559 149.351 70.4712 146.204 78.5644C142.501 88.0819 142.915 96.2476 147.371 101.555C150.621 105.429 155.805 107.475 162.364 107.475C172.626 107.475 185.122 102.554 194.199 94.9397C200.965 89.2601 204.919 82.654 205.629 75.8343C206.29 69.4855 204.203 63.2264 199.593 57.7336Z" fill="white"/>
<path d="M120.438 73.2034C122.075 73.7544 123.814 74.0346 125.604 74.0346C139.732 74.0346 155.173 56.3915 160.73 39.9153C163.851 30.6667 163.79 22.175 160.553 15.3572C157.544 9.02367 152 4.34313 144.521 1.82078C141.28 0.726433 138.044 0.171631 134.902 0.171631C122.899 0.171631 113.29 8.24009 108.543 22.3084C101.841 42.1764 105.504 68.1625 120.438 73.2034Z" fill="white"/>
<path d="M43.3848 107.475C49.9433 107.475 55.1272 105.429 58.3778 101.555C62.8334 96.2476 63.2471 88.0819 59.5446 78.5644C56.3969 70.4712 50.4847 62.2559 43.7337 56.5897C37.4097 51.2819 30.9389 48.5918 24.5025 48.5918C17.618 48.5918 11.1033 51.8386 6.15589 57.7317C1.54589 63.2264 -0.541771 69.4855 0.119797 75.8343C0.829028 82.654 4.78318 89.2601 11.5514 94.9397C20.6265 102.554 33.1219 107.475 43.3829 107.475C43.3848 107.475 43.3848 107.475 43.3848 107.475Z" fill="white"/>
<path d="M78.4097 74.5589C79.6852 74.5589 80.9473 74.4083 82.1637 74.1128C89.5248 72.3244 95.191 65.3579 98.1195 54.4983C100.628 45.1906 100.745 33.9554 98.4341 24.4475C94.6591 8.90924 84.9205 0 71.712 0C69.3251 0 66.8561 0.305046 64.3738 0.907511C56.7019 2.7721 50.7726 6.95504 47.2264 13.0007C43.4095 19.5115 42.6107 27.967 44.9157 37.452C49.2683 55.3715 63.7675 74.5589 78.4097 74.5589Z" fill="white"/>
<path d="M148.294 111.683C142.727 109.494 138.479 105.353 136.334 100.025C130.861 86.4349 117.728 77.6553 102.875 77.6553C88.0208 77.6553 74.8886 86.4349 69.4149 100.025C67.27 105.353 63.0223 109.494 57.4552 111.683C43.7053 117.094 34.8208 130.007 34.8208 144.584C34.8208 164.113 50.9596 180 70.799 180C76.5358 180 82.2459 178.637 87.3134 176.059C96.972 171.137 108.775 171.137 118.438 176.059C123.503 178.637 129.213 180 134.95 180C154.79 180 170.928 164.113 170.928 144.584C170.928 130.007 162.044 117.094 148.294 111.683Z" fill="white"/>
</svg>
