<svg width="150" height="150" viewBox="0 0 150 150" fill="none" xmlns="http://www.w3.org/2000/svg">
<circle cx="75" cy="75" r="74.5" fill="white" stroke="#CCCCCC"/>
<path d="M108.689 60.5913L108.995 61.7241C108.947 61.3339 108.844 60.9525 108.689 60.5913ZM39.2124 61.7241L39.5181 60.5913C39.3681 60.9345 39.2652 61.2966 39.2124 61.6674V61.7241Z" fill="#B08ECE"/>
<path d="M107.862 62.8116C107.862 67.5125 98.7023 71.4885 85.8849 73.0064H85.8283C82.1853 73.4142 78.5223 73.6184 74.8565 73.6181C71.1832 73.6184 67.5128 73.4142 63.8621 73.0064H63.8055C50.9882 71.5111 41.8394 67.5352 41.8394 62.8116C41.8462 62.0072 42.0819 61.2214 42.5187 60.546C45.7004 55.6638 58.982 52.0164 74.9018 52.0164C90.8216 52.0164 104.081 55.6638 107.217 60.5913C107.633 61.2575 107.857 62.026 107.862 62.8116Z" fill="#F99F00"/>
<path d="M32.6341 77.9226L32 80.1088C32.0097 79.3361 32.2289 78.5805 32.6341 77.9226Z" fill="#B08ECE"/>
<path d="M117 86.2484C117 93.8492 98.1362 100 74.9018 100C51.6675 100 32.7925 93.8492 32.7925 86.2484L33.5511 83.6204L40.0051 61.6675C39.905 62.0367 39.8555 62.4177 39.8579 62.8002C39.8579 68.1242 46.9573 71.8623 56.6156 73.8446C62.6284 75.0463 68.7476 75.6346 74.8792 75.6004C81.0102 75.6346 87.129 75.0501 93.1428 73.856C102.778 71.851 109.878 68.1922 109.878 62.8116C109.88 62.4291 109.831 62.048 109.731 61.6788L116.185 83.6317L117 86.2484Z" fill="#FDBC16"/>
<path d="M109.776 61.6674L109.482 60.5347C106.73 53.6362 90.7085 50 74.902 50C59.0954 50 43.0963 53.6362 40.2996 60.5913L40.0052 61.7241C39.9051 62.0932 39.8556 62.4743 39.858 62.8568C39.858 68.1808 46.9574 71.9189 56.6157 73.9012C62.6285 75.1029 68.7477 75.6912 74.8793 75.657C81.0122 75.6725 87.1311 75.0691 93.1429 73.8559C102.779 71.8509 109.878 68.1921 109.878 62.8115C109.896 62.4273 109.862 62.0424 109.776 61.6674ZM85.9303 72.995H85.8737C82.2307 73.4028 78.5677 73.6071 74.902 73.6067C71.2286 73.607 67.5582 73.4028 63.9075 72.995H63.8509C51.0336 71.4998 41.8848 67.5238 41.8848 62.8002C41.8916 61.9958 42.1273 61.21 42.5641 60.5347C45.7005 55.6638 58.9821 52.0163 74.902 52.0163C90.8218 52.0163 104.081 55.6638 107.217 60.5913C107.657 61.2657 107.897 62.0514 107.908 62.8568C107.863 67.5125 98.8043 71.5224 85.9303 72.9837V72.995Z" fill="#FFC74A"/>
<path d="M86.3491 92.4331L86.1113 91.6401C86.2636 91.8768 86.346 92.1516 86.3491 92.4331Z" fill="#664A4A"/>
<path d="M75.9661 95.3103H75.8755C74.671 95.3694 73.4881 95.6538 72.3881 96.1486C71.2558 96.647 69.6933 96.9415 69.263 95.2537L69.0706 94.4947C68.9473 94.0094 68.9818 93.4973 69.1691 93.0329C69.3565 92.5685 69.6868 92.1759 70.1123 91.912L71.3691 91.2211C71.768 90.9933 72.113 90.682 72.3808 90.3087C72.6485 89.9353 72.8325 89.5085 72.9203 89.0575L72.9996 88.7063C73.116 88.0027 73.4712 87.3606 74.0053 86.8882C74.5394 86.4158 75.2198 86.1418 75.9322 86.1123L75.9661 95.3103Z" fill="#5F3343"/>
<path d="M72.3881 86.0784C72.3881 86.0784 75.015 85.8405 75.0942 84.6284C75.1735 83.4164 75.0942 80.0974 75.0942 80.0974C75.0942 80.0974 74.4035 78.1264 72.8297 78.8853C72.1316 79.337 71.5442 79.9402 71.111 80.6501C70.6778 81.36 70.4099 82.1583 70.3273 82.9859C70.2498 83.6619 70.4143 84.3435 70.7916 84.9097C71.1689 85.4758 71.7345 85.8899 72.3881 86.0784Z" fill="#5F3343"/>
<path d="M68.8555 91.0398C68.8555 91.0398 71.2446 89.9071 70.905 88.7743C70.5653 87.6415 69.3651 84.5491 69.3651 84.5491C69.3651 84.5491 68.0516 82.9179 66.8741 84.1526C66.3798 84.8178 66.0417 85.5858 65.8848 86.3997C65.728 87.2135 65.7565 88.0523 65.9682 88.8536C66.1262 89.4938 66.4992 90.0604 67.0248 90.4584C67.5504 90.8564 68.1967 91.0616 68.8555 91.0398Z" fill="#5F3343"/>
<path d="M75.9663 95.3103H76.0456C77.2502 95.3694 78.433 95.6538 79.533 96.1486C80.6653 96.647 82.2278 96.9415 82.6581 95.2537L82.8506 94.4947C82.9749 94.0106 82.9421 93.4994 82.7568 93.0351C82.5716 92.5708 82.2436 92.1775 81.8202 91.912L80.5634 91.2211C80.1645 90.9933 79.8194 90.682 79.5517 90.3087C79.284 89.9353 79.0999 89.5085 79.0121 89.0575L78.9329 88.7063C78.8164 88.0027 78.4612 87.3606 77.9271 86.8882C77.393 86.4158 76.7126 86.1418 76.0003 86.1123L75.9663 95.3103Z" fill="#442332"/>
<path d="M79.5557 86.0784C79.5557 86.0784 76.9402 85.8405 76.8609 84.6284C76.7817 83.4164 76.8609 80.0974 76.8609 80.0974C76.8609 80.0974 77.5516 78.1264 79.0688 78.8853C79.7669 79.337 80.3543 79.9402 80.7875 80.6501C81.2207 81.36 81.4886 82.1583 81.5712 82.9859C81.6488 83.6557 81.4898 84.3315 81.1217 84.8963C80.7536 85.4611 80.1996 85.8792 79.5557 86.0784Z" fill="#442332"/>
<path d="M83.0659 91.04C83.0659 91.04 80.6768 89.9072 81.0165 88.7744C81.3562 87.6417 82.5337 84.5606 82.5337 84.5606C82.5337 84.5606 83.8472 82.9294 85.0247 84.1641C85.5287 84.8246 85.877 85.5904 86.0436 86.4044C86.2103 87.2184 86.191 88.0596 85.9872 88.8651C85.8259 89.5091 85.4468 90.0776 84.9144 90.474C84.382 90.8704 83.7289 91.0703 83.0659 91.04Z" fill="#442332"/>
</svg>
