<svg width="87" height="60" viewBox="0 0 87 60" fill="none" xmlns="http://www.w3.org/2000/svg">
<path d="M45.4862 39.0982C45.5507 36.0661 46.1958 32.7115 47.4215 29.0343C48.7118 25.3572 50.5181 21.7445 52.8405 18.1964C55.163 14.5837 57.937 11.1968 61.1626 8.03575C64.4527 4.81016 68.1298 2.13292 72.1941 0.00403199C72.1941 -0.0604798 72.2263 0.64915 72.2908 2.13292C72.3553 3.55218 72.4199 5.32625 72.4844 7.45514C72.6134 9.58403 72.7102 11.8742 72.7747 14.3257C72.9037 16.7126 73.0327 18.8415 73.1617 20.7123C77.1615 22.1961 80.3226 24.6798 82.645 28.1634C84.9674 31.6471 86.1286 35.4855 86.1286 39.6788C86.1286 42.4528 85.5803 45.0655 84.4836 47.517C83.4514 49.9684 81.9999 52.1296 80.129 54.0004C78.3227 55.8067 76.1615 57.2583 73.6456 58.3549C71.1941 59.4517 68.5814 60 65.8074 60C63.0334 60 60.3884 59.4517 57.8725 58.3549C55.421 57.2583 53.2599 55.8067 51.389 54.0004C49.5827 52.1296 48.1312 49.9684 47.0345 47.517C45.9378 45.0655 45.4217 42.4528 45.4862 39.6788V39.0982ZM0.00537598 39.0982C0.0698878 36.0661 0.715006 32.7115 1.94073 29.0343C3.23097 25.3572 5.0373 21.7445 7.35972 18.1964C9.68214 14.5837 12.4562 11.1968 15.6817 8.03575C18.9718 4.81016 22.649 2.13292 26.7133 0.00403199C26.7133 -0.0604798 26.7455 0.64915 26.81 2.13292C26.8745 3.55218 26.939 5.32625 27.0036 7.45514C27.1326 9.58403 27.2294 11.8742 27.2939 14.3257C27.4229 16.7126 27.5519 18.8415 27.6809 20.7123C31.6807 22.1961 34.8417 24.6798 37.1642 28.1634C39.4866 31.6471 40.6478 35.4855 40.6478 39.6788C40.6478 42.4528 40.0995 45.0655 39.0028 47.517C37.9706 49.9684 36.5191 52.1296 34.6482 54.0004C32.8419 55.8067 30.6807 57.2583 28.1648 58.3549C25.7133 59.4517 23.1006 60 20.3266 60C17.5526 60 14.9076 59.4517 12.3916 58.3549C9.94019 57.2583 7.77905 55.8067 5.9082 54.0004C4.10187 52.1296 2.65036 49.9684 1.55366 47.517C0.456959 45.0655 -0.0591358 42.4528 0.00537598 39.6788V39.0982Z" fill="#FEDA00"/>
</svg>
