<svg width="150" height="150" viewBox="0 0 150 150" fill="none" xmlns="http://www.w3.org/2000/svg">
<circle cx="75" cy="75" r="74.5" fill="white" stroke="#CCCCCC"/>
<path d="M84.7562 84.7561L71.666 97.8463L88.3945 114.575C91.8667 118.046 96.5752 119.996 101.485 119.996C106.394 119.996 111.103 118.046 114.575 114.575L84.7562 84.7561Z" fill="#959595"/>
<path d="M114.575 114.575C118.047 111.101 119.997 106.39 119.997 101.478C119.997 96.5666 118.047 91.8559 114.575 88.3816L97.8466 71.666L84.7563 84.7562L114.575 114.575Z" fill="#707070"/>
<path d="M93.9102 93.9103C94.2743 93.5492 94.5632 93.1196 94.7604 92.6462C94.9576 92.1729 95.0592 91.6652 95.0592 91.1524C95.0592 90.6396 94.9576 90.1319 94.7604 89.6586C94.5632 89.1853 94.2743 88.7556 93.9102 88.3945L82.1666 76.6121L79.4087 79.3699L93.9102 93.9103Z" fill="#AAAAAB"/>
<path d="M76.6118 82.1666L88.3554 93.9102C88.7165 94.2743 89.1462 94.5632 89.6195 94.7604C90.0928 94.9576 90.6005 95.0592 91.1133 95.0592C91.6261 95.0592 92.1338 94.9576 92.6071 94.7604C93.0805 94.5632 93.5101 94.2743 93.8712 93.9102L79.3697 79.4087L76.6118 82.1666Z" fill="#E2E3E4"/>
<path d="M30 56.3487L32.7449 59.0937C35.6194 61.961 39.3524 63.8102 43.3752 64.3595C47.398 64.9088 51.4901 64.1282 55.0281 62.1364L53.6038 60.7121C52.6612 59.7695 52.1316 58.491 52.1316 57.158C52.1316 55.8249 52.6612 54.5464 53.6038 53.6038C54.5464 52.6612 55.8249 52.1316 57.158 52.1316C58.491 52.1316 59.7695 52.6612 60.7121 53.6038L62.1364 55.0281C64.1282 51.4901 64.9088 47.398 64.3595 43.3752C63.8102 39.3524 61.961 35.6194 59.0937 32.7449L56.3487 30L30 56.3487ZM53.5908 53.5908C52.047 55.1523 50.0657 56.2085 47.9088 56.62C45.7519 57.0315 43.5209 56.7789 41.5106 55.8956L55.8956 41.4976C56.7799 43.5099 57.0331 45.7431 56.6216 47.9022C56.2101 50.0614 55.1534 52.0449 53.5908 53.5908Z" fill="#3C3C3B"/>
<path d="M65.205 65.2249L62.4492 67.9807L76.6402 82.1717L79.396 79.4159L65.205 65.2249Z" fill="#FF6800"/>
<path d="M67.9721 62.4549L65.2163 65.2107L79.4073 79.4017L82.1631 76.6459L67.9721 62.4549Z" fill="#AF4700"/>
<path d="M53.6037 53.6038C53.1351 54.0695 52.7632 54.6232 52.5094 55.2332C52.2556 55.8432 52.125 56.4973 52.125 57.1579C52.125 57.8186 52.2556 58.4727 52.5094 59.0827C52.7632 59.6927 53.1351 60.2464 53.6037 60.7121L55.0279 62.1364L55.1833 62.0587L61.7737 68.6491L65.2178 65.2179L53.5648 53.5649L53.6037 53.6038Z" fill="#E2E3E4"/>
<path d="M53.604 53.6038L65.257 65.2568L68.6882 61.8126L62.0977 55.2222L62.1754 55.0669L60.7512 53.6426C60.2874 53.1656 59.7333 52.7857 59.1211 52.5251C58.509 52.2645 57.851 52.1284 57.1857 52.1248C56.5204 52.1212 55.8611 52.2501 55.2461 52.504C54.6312 52.758 54.0729 53.1318 53.604 53.6038Z" fill="#AAAAAB"/>
<path d="M82.6456 95.7358C83.075 96.1649 83.3676 96.7116 83.4863 97.307C83.6049 97.9023 83.5443 98.5195 83.3122 99.0804C83.08 99.6413 82.6867 100.121 82.182 100.458C81.6773 100.795 81.0839 100.975 80.4768 100.975C79.8698 100.975 79.2764 100.795 78.7717 100.458C78.267 100.121 77.8737 99.6413 77.6415 99.0804C77.4093 98.5195 77.3487 97.9023 77.4674 97.307C77.586 96.7116 77.8786 96.1649 78.3081 95.7358C78.5921 95.4497 78.93 95.2225 79.3022 95.0676C79.6744 94.9126 80.0736 94.8328 80.4768 94.8328C80.88 94.8328 81.2792 94.9126 81.6515 95.0676C82.0237 95.2225 82.3615 95.4497 82.6456 95.7358Z" fill="white"/>
</svg>
