<svg width="18" height="15" viewBox="0 0 18 15" fill="none" xmlns="http://www.w3.org/2000/svg">
<g clip-path="url(#clip0)">
<path d="M6.13721 -0.0696289C7.48211 -0.0696289 8.59523 1.32107 8.59523 3.05664C8.59523 4.79186 7.48212 6.18256 6.13721 6.18256C4.79409 6.18256 3.68232 4.79192 3.68232 3.05664C3.68232 1.32101 4.79409 -0.0696289 6.13721 -0.0696289ZM6.13721 0.544657C5.62353 0.544657 5.16222 0.832059 4.83121 1.28721C4.50014 1.74243 4.29661 2.36847 4.29661 3.05664C4.29661 3.74481 4.50014 4.37077 4.83121 4.8259C5.16222 5.28097 5.62354 5.56828 6.13721 5.56828C6.65171 5.56828 7.1138 5.28101 7.4454 4.82594C7.77705 4.3708 7.98094 3.74483 7.98094 3.05664C7.98094 2.36845 7.77705 1.7424 7.44541 1.28717C7.11381 0.832019 6.65172 0.544657 6.13721 0.544657Z" fill="#003072" stroke="#E5E5E5" stroke-width="0.1"/>
<path d="M9.0876 3.05664C9.0876 1.32101 10.1994 -0.0696289 11.5425 -0.0696289C12.8874 -0.0696289 14.0005 1.32107 14.0005 3.05664C14.0005 4.79186 12.8874 6.18256 11.5425 6.18256C10.1994 6.18256 9.0876 4.79192 9.0876 3.05664ZM9.70188 3.05664C9.70188 3.74481 9.90541 4.37077 10.2365 4.8259C10.5675 5.28097 11.0288 5.56828 11.5425 5.56828C12.057 5.56828 12.5191 5.28101 12.8507 4.82594C13.1823 4.3708 13.3862 3.74483 13.3862 3.05664C13.3862 2.36845 13.1823 1.7424 12.8507 1.28717C12.5191 0.832019 12.057 0.544657 11.5425 0.544657C11.0288 0.544657 10.5675 0.832059 10.2365 1.28721C9.90541 1.74243 9.70188 2.36847 9.70188 3.05664Z" fill="#003072" stroke="#E5E5E5" stroke-width="0.1"/>
<path d="M4.47079 7.20414C4.47079 8.76129 3.46839 10.0074 2.259 10.0074C1.0514 10.0074 0.05 8.76135 0.05 7.20414C0.05 5.64692 1.0514 4.40083 2.259 4.40083C3.46839 4.40083 4.47079 5.64698 4.47079 7.20414ZM3.8565 7.20414C3.8565 6.60497 3.6803 6.0597 3.3933 5.66299C3.10637 5.26636 2.70582 5.01512 2.259 5.01512C1.813 5.01512 1.41315 5.26641 1.12672 5.66302C0.840218 6.05973 0.664286 6.60499 0.664286 7.20414C0.664286 7.80329 0.840218 8.34854 1.12672 8.74525C1.41315 9.14187 1.813 9.39316 2.259 9.39316C2.70582 9.39316 3.10637 9.14191 3.3933 8.74528C3.6803 8.34857 3.8565 7.8033 3.8565 7.20414Z" fill="#003072" stroke="#E5E5E5" stroke-width="0.1"/>
<path d="M13.3864 7.20414C13.3864 5.64692 14.3878 4.40083 15.5954 4.40083C16.8048 4.40083 17.8072 5.64698 17.8072 7.20414C17.8072 8.76129 16.8048 10.0074 15.5954 10.0074C14.3878 10.0074 13.3864 8.76135 13.3864 7.20414ZM14.0007 7.20414C14.0007 7.80329 14.1766 8.34854 14.4631 8.74525C14.7496 9.14187 15.1494 9.39316 15.5954 9.39316C16.0422 9.39316 16.4428 9.14191 16.7297 8.74528C17.0167 8.34857 17.1929 7.8033 17.1929 7.20414C17.1929 6.60497 17.0167 6.0597 16.7297 5.66299C16.4428 5.26636 16.0422 5.01512 15.5954 5.01512C15.1494 5.01512 14.7496 5.26641 14.4631 5.66302C14.1766 6.05973 14.0007 6.60499 14.0007 7.20414Z" fill="#003072" stroke="#E5E5E5" stroke-width="0.1"/>
<path d="M12.6373 14.3607L12.6372 14.3607C12.1171 14.5438 11.5467 14.4557 11.1092 14.1239L11.1092 14.1239L10.5721 13.7166C10.0719 13.3378 9.4512 13.1289 8.82457 13.1289C8.28528 13.1289 7.75765 13.2794 7.29891 13.5643L7.2989 13.5643L6.40328 14.1203C5.95237 14.4006 5.39151 14.4433 4.90023 14.2355L4.90021 14.2355C4.42276 14.0333 4.08615 13.6314 3.978 13.1328L12.6373 14.3607ZM12.6373 14.3607C13.152 14.1787 13.5227 13.7726 13.6527 13.2472M12.6373 14.3607L13.6527 13.2472M13.6527 13.2472C13.7318 12.9286 13.7717 12.5988 13.7717 12.2673C13.7717 9.79647 11.5496 7.7949 8.82875 7.7949C6.10792 7.7949 3.88548 9.79646 3.88548 12.2673C3.88548 12.5586 3.91654 12.8499 3.97799 13.1328L13.6527 13.2472ZM6.72719 14.6422L6.72717 14.6422C6.10734 15.0273 5.33483 15.0861 4.66051 14.8011C3.99589 14.5197 3.52885 13.959 3.37749 13.263C3.30709 12.9372 3.27119 12.6021 3.27119 12.2673C3.27119 9.46661 5.76028 7.18062 8.82875 7.18062C11.8972 7.18062 14.386 9.4666 14.386 12.2673C14.386 12.6487 14.3397 13.0283 14.249 13.3948L14.249 13.3948C14.0713 14.1135 13.5453 14.6912 12.8418 14.9399C12.5961 15.0266 12.3422 15.0692 12.0901 15.0692C11.6085 15.0692 11.1336 14.9137 10.7378 14.6135L10.7378 14.6134L10.2007 14.2061L10.2007 14.2061C9.46745 13.6502 8.40492 13.601 7.62284 14.0862L7.62284 14.0862L6.72719 14.6422Z" fill="#003072" stroke="#E5E5E5" stroke-width="0.1"/>
</g>
<defs>
<clipPath id="clip0">
<rect width="17.8571" height="15" fill="white"/>
</clipPath>
</defs>
</svg>
